<svg width="76" height="76" viewBox="0 0 76 76" fill="none" xmlns="http://www.w3.org/2000/svg">
<path d="M50.0756 49.1743V51.7428H50.0896L50.0756 49.1743ZM43.0244 49.1954V51.6865H43.0386L43.0244 49.1954Z" fill="#7BBC42" stroke="white" stroke-width="1.40741" stroke-linecap="round" stroke-linejoin="round"/>
<path d="M73.9662 46.6349C73.9732 47.1626 73.7973 47.6693 73.4455 48.1619C73.0936 48.6545 72.5869 49.0908 71.9255 49.4778L61.5245 55.4804C60.8771 55.8534 60.1242 56.0575 59.2586 56.0786V49.5482C59.2586 48.9993 58.8998 48.5137 58.189 48.1056L49.0479 42.8278C48.3372 42.4126 47.4998 42.2086 46.5427 42.2086C45.5857 42.2086 44.7552 42.4056 44.0515 42.8137L34.9597 48.0634C34.256 48.4715 33.9041 48.95 33.9041 49.506V56.9582L29.0768 59.7449C28.3731 60.153 27.5427 60.3571 26.5787 60.3571C25.6146 60.3571 24.7912 60.146 24.0805 59.7378L4.03195 48.1619C2.65269 47.3667 1.96309 46.4026 1.95605 45.2767V31.2026C1.96309 32.3286 2.65269 33.2926 4.03195 34.0878L11.2168 38.2326L24.0805 45.6637C24.7912 46.0719 25.6216 46.283 26.5787 46.283C27.5357 46.283 28.3731 46.0789 29.0768 45.6708L44.0164 37.0434C44.7201 36.6423 45.5575 36.4382 46.5145 36.4382C47.4715 36.4382 48.302 36.6493 49.0127 37.0575L56.5283 41.3993C56.9575 41.6456 57.436 41.8215 57.9567 41.913C58.2945 41.9763 58.6535 42.0115 59.0335 42.0115C59.9905 42.0186 60.8208 41.8145 61.5245 41.4063L66.4364 38.5704L71.9255 35.4037C72.5869 35.0167 73.0936 34.5804 73.4455 34.0878C73.6636 33.7852 73.8114 33.4756 73.8958 33.166L73.9662 46.6349Z" fill="#7BBC42" stroke="white" stroke-width="1.40741" stroke-linecap="round" stroke-linejoin="round"/>
<path d="M50.1108 69.737C50.1178 70.2648 49.7729 70.7292 49.0903 71.1233C48.4077 71.5174 47.5844 71.7285 46.6274 71.7496C45.6281 71.7496 44.7837 71.5455 44.0941 71.1515C43.4045 70.7503 43.0596 70.2648 43.0596 69.6878L43.0244 63.27V51.687H43.0386L43.0596 55.6137C43.0596 56.1415 43.3482 56.5918 43.9182 56.9648C43.9745 57.007 44.0308 57.0422 44.0941 57.0774C44.7837 57.4715 45.6281 57.6755 46.6274 57.6755C47.5844 57.6544 48.4077 57.4433 49.0903 57.0492C49.1255 57.0281 49.1608 57.007 49.196 56.9859C49.6886 56.6833 49.9841 56.3385 50.0756 55.9515V63.2489L50.1108 69.737Z" fill="#7BBC42" stroke="white" stroke-width="1.40741" stroke-linecap="round" stroke-linejoin="round"/>
<path d="M50.0892 51.7499L50.0752 49.1743V55.951C50.1033 55.8595 50.1104 55.761 50.1104 55.6625L50.0892 51.7499Z" fill="#7BBC42" stroke="white" stroke-width="1.40741" stroke-linecap="round" stroke-linejoin="round"/>
<path d="M73.8958 18.5707C73.8888 18.0359 73.7129 17.5293 73.354 17.0367C72.9951 16.5441 72.4884 16.1007 71.8199 15.7137L53.8401 5.33409C52.4609 4.53891 50.7932 4.13779 48.8369 4.13779C46.8806 4.13075 45.2127 4.52483 43.8475 5.32001L4.00387 28.3241C2.63164 29.1122 1.94907 30.0693 1.95611 31.2022C1.96315 32.3282 2.65274 33.2922 4.032 34.0874L11.2168 38.2322L24.0806 45.6633C24.7913 46.0715 25.6217 46.2826 26.5787 46.2826C27.5358 46.2826 28.3731 46.0785 29.0768 45.6704L44.0164 37.043C44.7201 36.6419 45.5575 36.4378 46.5146 36.4378C47.4716 36.4378 48.3021 36.6489 49.0128 37.057L56.5283 41.3989C56.9575 41.6452 57.4361 41.8211 57.9568 41.9126C58.2946 41.9759 58.6535 42.0111 59.0335 42.0111C59.9905 42.0182 60.8209 41.8141 61.5246 41.4059L66.4365 38.57L71.9255 35.4033C72.5869 35.0163 73.0936 34.58 73.4455 34.0874C73.6636 33.7848 73.8114 33.4752 73.8958 33.1656V33.1515C73.9451 32.9544 73.9662 32.7574 73.9662 32.5604L73.8958 18.5707ZM66.4012 32.7152L66.1409 32.5604L56.4509 26.973C55.7402 26.5648 55.3883 26.0793 55.3812 25.5304C55.3812 24.9744 55.7331 24.4959 56.4368 24.0878L59.1953 22.4974L66.4012 18.3385L66.4435 26.6844L66.4787 32.7574L66.4012 32.7152Z" fill="#7BBC42" stroke="white" stroke-width="1.40741" stroke-linecap="round" stroke-linejoin="round"/>
<path d="M66.4783 32.7573L66.4009 32.715L66.1405 32.5602L56.4505 26.9728C55.7398 26.5647 55.3879 26.0791 55.3809 25.5302C55.3809 24.9743 55.7327 24.4958 56.4364 24.0876L59.1949 22.4973L66.4009 18.3384L66.4431 26.6843L66.4783 32.7573Z" fill="#7BBC42" stroke="white" stroke-width="1.40741" stroke-linecap="round" stroke-linejoin="round"/>
<path d="M59.2587 49.5486V49.5627C59.2587 50.1116 58.9069 50.5901 58.2102 50.9912C57.4995 51.3994 56.6691 51.6034 55.7121 51.5964C54.755 51.5964 53.9176 51.3923 53.2139 50.9842L50.0754 49.1756V55.9523C49.9839 56.3394 49.6884 56.6842 49.1958 56.9868C49.1606 57.0079 49.1254 57.029 49.0902 57.0501C48.4076 57.4442 47.5843 57.6553 46.6273 57.6764C45.628 57.6764 44.7836 57.4723 44.0939 57.0782C44.0306 57.0431 43.9743 57.0079 43.918 56.9656C43.348 56.5927 43.0595 56.1423 43.0595 55.6145L43.0384 51.6808L43.0243 49.1968L39.9702 50.956C39.2665 51.3642 38.4362 51.5682 37.4791 51.5682C36.5221 51.5612 35.6847 51.3571 34.9739 50.949C34.2632 50.5408 33.9113 50.0553 33.9043 49.5064C33.9043 48.9505 34.2561 48.4719 34.9599 48.0638L44.0517 42.8142C44.7554 42.406 45.5858 42.209 46.5428 42.209C47.4999 42.209 48.3373 42.4131 49.048 42.8282L58.1891 48.106C58.8999 48.5142 59.2587 48.9997 59.2587 49.5486Z" fill="#7BBC42" stroke="white" stroke-width="1.40741" stroke-linecap="round" stroke-linejoin="round"/>
<path d="M43.0243 49.1963V63.2704L39.9702 65.0296C39.2665 65.4378 38.4362 65.6418 37.4791 65.6418C36.5221 65.6348 35.6847 65.4307 34.9739 65.0226C34.2632 64.6144 33.9113 64.1289 33.9043 63.58V49.5059C33.9113 50.0548 34.2632 50.5404 34.9739 50.9485C35.6847 51.3567 36.5221 51.5607 37.4791 51.5678C38.4362 51.5678 39.2665 51.3637 39.9702 50.9555L43.0243 49.1963Z" fill="#7BBC42" stroke="white" stroke-width="1.40741" stroke-linecap="round" stroke-linejoin="round"/>
<path d="M59.2585 49.5614V63.6214C59.2656 64.1773 58.9137 64.6558 58.21 65.0639C57.4993 65.4721 56.6688 65.6762 55.7118 65.6691C54.7548 65.6691 53.9173 65.4651 53.2136 65.0569L50.0752 63.2484V55.951C50.1033 55.8595 50.1104 55.761 50.1104 55.6625L50.0892 51.7499L50.0752 49.1743L53.2136 50.9828C53.9173 51.391 54.7548 51.5951 55.7118 51.5951C56.6688 51.6021 57.4993 51.398 58.21 50.9899C58.9067 50.5888 59.2585 50.1102 59.2585 49.5614Z" fill="#7BBC42" stroke="white" stroke-width="1.40741" stroke-linecap="round" stroke-linejoin="round"/>
</svg>
