<svg width="18" height="18" viewBox="0 0 18 18" fill="none" xmlns="http://www.w3.org/2000/svg">
<path d="M17.567 0.432816C17.509 0.374706 17.4401 0.328606 17.3642 0.297153C17.2883 0.265701 17.207 0.249512 17.1249 0.249512C17.0427 0.249512 16.9614 0.265701 16.8855 0.297153C16.8096 0.328606 16.7407 0.374706 16.6827 0.432816L12.5889 4.52735L12.1694 4.10703C11.7 3.63903 11.0642 3.37621 10.4014 3.37621C9.7386 3.37621 9.10282 3.63903 8.63345 4.10703L6.81236 5.92891L6.31705 5.43282C6.19977 5.31554 6.04071 5.24966 5.87486 5.24966C5.70901 5.24966 5.54995 5.31554 5.43267 5.43282C5.3154 5.55009 5.24951 5.70915 5.24951 5.875C5.24951 6.04086 5.3154 6.19992 5.43267 6.31719L5.92877 6.8125L4.10689 8.6336C3.87468 8.86575 3.69048 9.14137 3.56481 9.44473C3.43914 9.74808 3.37446 10.0732 3.37446 10.4016C3.37446 10.7299 3.43914 11.0551 3.56481 11.3584C3.69048 11.6618 3.87468 11.9374 4.10689 12.1695L4.5272 12.5891L0.432672 16.6828C0.374603 16.7409 0.32854 16.8098 0.297113 16.8857C0.265687 16.9616 0.249512 17.0429 0.249512 17.125C0.249512 17.2071 0.265687 17.2884 0.297113 17.3643C0.32854 17.4402 0.374603 17.5091 0.432672 17.5672C0.549947 17.6845 0.709007 17.7504 0.874859 17.7504C0.956981 17.7504 1.0383 17.7342 1.11417 17.7027C1.19004 17.6713 1.25898 17.6253 1.31705 17.5672L5.4108 13.4727L5.83033 13.893C6.06248 14.1252 6.3381 14.3094 6.64146 14.4351C6.94481 14.5607 7.26994 14.6254 7.5983 14.6254C7.92665 14.6254 8.25179 14.5607 8.55514 14.4351C8.85849 14.3094 9.13411 14.1252 9.36627 13.893L11.1874 12.0711L11.6827 12.5672C11.7407 12.6253 11.8097 12.6713 11.8855 12.7027C11.9614 12.7342 12.0427 12.7504 12.1249 12.7504C12.207 12.7504 12.2883 12.7342 12.3642 12.7027C12.44 12.6713 12.509 12.6253 12.567 12.5672C12.6251 12.5091 12.6712 12.4402 12.7026 12.3643C12.734 12.2884 12.7502 12.2071 12.7502 12.125C12.7502 12.0429 12.734 11.9616 12.7026 11.8857C12.6712 11.8098 12.6251 11.7409 12.567 11.6828L12.071 11.1875L13.8928 9.36641C14.125 9.13426 14.3092 8.85863 14.4349 8.55528C14.5606 8.25193 14.6253 7.92679 14.6253 7.59844C14.6253 7.27009 14.5606 6.94495 14.4349 6.6416C14.3092 6.33825 14.125 6.06263 13.8928 5.83047L13.4725 5.41094L17.567 1.31719C17.6252 1.25915 17.6713 1.19021 17.7027 1.11434C17.7342 1.03847 17.7504 0.957138 17.7504 0.875003C17.7504 0.792869 17.7342 0.71154 17.7027 0.635666C17.6713 0.559792 17.6252 0.490862 17.567 0.432816ZM8.48189 13.0109C8.24749 13.2452 7.92968 13.3768 7.5983 13.3768C7.26692 13.3768 6.9491 13.2452 6.7147 13.0109L4.99127 11.2852C4.75702 11.0508 4.62544 10.7329 4.62544 10.4016C4.62544 10.0702 4.75702 9.75237 4.99127 9.51797L6.81236 7.6961L10.3038 11.1875L8.48189 13.0109ZM13.0085 8.48438L11.1874 10.3039L7.69595 6.8125L9.51783 4.99141C9.75222 4.75717 10.07 4.62558 10.4014 4.62558C10.7328 4.62558 11.0506 4.75717 11.285 4.99141L13.0085 6.71016C13.1251 6.82631 13.2177 6.96436 13.2809 7.1164C13.3441 7.26844 13.3766 7.43146 13.3766 7.5961C13.3766 7.76074 13.3441 7.92376 13.2809 8.07579C13.2177 8.22783 13.1251 8.36589 13.0085 8.48203V8.48438ZM5.91939 1.73438C5.85723 1.58043 5.85877 1.40809 5.92368 1.25528C5.98858 1.10247 6.11153 0.981695 6.26548 0.919535C6.41943 0.857374 6.59177 0.858917 6.74458 0.923822C6.8974 0.988727 7.01817 1.11168 7.08033 1.26563L7.70533 2.82813C7.73611 2.90436 7.75157 2.9859 7.75083 3.06811C7.7501 3.15031 7.73318 3.23156 7.70104 3.30723C7.6689 3.38289 7.62218 3.45149 7.56353 3.5091C7.50488 3.5667 7.43546 3.61219 7.35923 3.64297C7.28301 3.67375 7.20146 3.68921 7.11926 3.68848C7.03705 3.68774 6.9558 3.67082 6.88013 3.63868C6.80447 3.60655 6.73587 3.55982 6.67827 3.50117C6.62066 3.44253 6.57517 3.37311 6.54439 3.29688L5.91939 1.73438ZM0.91939 6.26563C0.950061 6.18932 0.995491 6.11981 1.05308 6.06109C1.11066 6.00237 1.17927 5.95559 1.25497 5.92344C1.33067 5.89129 1.41197 5.87439 1.49421 5.87372C1.57646 5.87305 1.65802 5.88862 1.73423 5.91953L3.29673 6.54453C3.37296 6.57531 3.44238 6.6208 3.50103 6.67841C3.55968 6.73602 3.6064 6.80461 3.63854 6.88028C3.67068 6.95594 3.6876 7.0372 3.68833 7.1194C3.68907 7.20161 3.67361 7.28315 3.64283 7.35938C3.61205 7.43561 3.56656 7.50503 3.50895 7.56367C3.45134 7.62232 3.38275 7.66905 3.30708 7.70118C3.23142 7.73332 3.15017 7.75024 3.06796 7.75098C2.98576 7.75171 2.90421 7.73625 2.82798 7.70547L1.26548 7.08047C1.18917 7.0498 1.11966 7.00437 1.06094 6.94679C1.00222 6.8892 0.955448 6.82059 0.923295 6.74489C0.891143 6.66919 0.874248 6.58789 0.873578 6.50565C0.872908 6.42341 0.888476 6.34184 0.91939 6.26563ZM17.0803 11.7344C17.0499 11.8106 17.0047 11.8801 16.9474 11.9389C16.8901 11.9977 16.8217 12.0446 16.7463 12.0769C16.6708 12.1093 16.5897 12.1265 16.5076 12.1275C16.4255 12.1285 16.3441 12.1133 16.2678 12.0828L14.7053 11.4578C14.6289 11.4272 14.5593 11.3818 14.5005 11.3243C14.4416 11.2668 14.3947 11.1982 14.3624 11.1226C14.33 11.0469 14.3129 10.9656 14.3119 10.8833C14.311 10.801 14.3263 10.7194 14.3569 10.643C14.3875 10.5666 14.4329 10.497 14.4904 10.4381C14.5479 10.3793 14.6165 10.3323 14.6921 10.3C14.7678 10.2676 14.8491 10.2505 14.9314 10.2496C15.0137 10.2486 15.0954 10.2639 15.1717 10.2945L16.7342 10.9195C16.8105 10.9502 16.8801 10.9956 16.9388 11.0532C16.9975 11.1108 17.0443 11.1794 17.0764 11.2551C17.1086 11.3308 17.1255 11.4121 17.1261 11.4944C17.1268 11.5766 17.1112 11.6582 17.0803 11.7344ZM12.0803 16.2703C12.1108 16.3465 12.126 16.428 12.1249 16.5101C12.1239 16.5922 12.1067 16.6733 12.0744 16.7487C12.042 16.8242 11.9951 16.8925 11.9364 16.9498C11.8776 17.0072 11.8081 17.0523 11.7319 17.0828C11.6557 17.1133 11.5742 17.1284 11.4921 17.1274C11.41 17.1264 11.3289 17.1092 11.2535 17.0769C11.178 17.0445 11.1097 16.9976 11.0524 16.9389C10.995 16.8801 10.9499 16.8106 10.9194 16.7344L10.2944 15.1719C10.2322 15.0179 10.2338 14.8456 10.2987 14.6928C10.3636 14.54 10.4865 14.4192 10.6405 14.357C10.7944 14.2949 10.9668 14.2964 11.1196 14.3613C11.2724 14.4262 11.3932 14.5492 11.4553 14.7031L12.0803 16.2703Z" fill="#212529"/>
</svg>
