<svg width="16" height="16" viewBox="0 0 16 16" fill="none" xmlns="http://www.w3.org/2000/svg">
<path d="M10.5001 14C10.5001 14.1326 10.4474 14.2598 10.3537 14.3536C10.2599 14.4473 10.1327 14.5 10.0001 14.5H6.00012C5.86751 14.5 5.74033 14.4473 5.64656 14.3536C5.55279 14.2598 5.50012 14.1326 5.50012 14C5.50012 13.8674 5.55279 13.7402 5.64656 13.6464C5.74033 13.5527 5.86751 13.5 6.00012 13.5H10.0001C10.1327 13.5 10.2599 13.5527 10.3537 13.6464C10.4474 13.7402 10.5001 13.8674 10.5001 14ZM13.8657 12C13.779 12.1528 13.653 12.2797 13.5009 12.3676C13.3487 12.4555 13.1758 12.5012 13.0001 12.5H3.00012C2.82433 12.4998 2.6517 12.4532 2.49965 12.365C2.3476 12.2768 2.22148 12.15 2.13402 11.9975C2.04656 11.845 2.00084 11.6722 2.00147 11.4964C2.0021 11.3206 2.04906 11.1481 2.13762 10.9963C2.48449 10.3988 3.00012 8.70875 3.00012 6.5C3.00012 5.17392 3.5269 3.90215 4.46458 2.96447C5.40226 2.02678 6.67403 1.5 8.00012 1.5C9.3262 1.5 10.598 2.02678 11.5357 2.96447C12.4733 3.90215 13.0001 5.17392 13.0001 6.5C13.0001 8.70813 13.5164 10.3988 13.8632 10.9963C13.9527 11.1483 14 11.3215 14.0003 11.4979C14.0007 11.6743 13.954 11.8476 13.8651 12H13.8657ZM13.0001 11.5C12.517 10.6706 12.0001 8.75313 12.0001 6.5C12.0001 5.43913 11.5787 4.42172 10.8285 3.67157C10.0784 2.92143 9.06098 2.5 8.00012 2.5C6.93925 2.5 5.92183 2.92143 5.17169 3.67157C4.42154 4.42172 4.00012 5.43913 4.00012 6.5C4.00012 8.75375 3.48262 10.6713 3.00012 11.5H13.0001Z" fill="#212529"/>
</svg>
