<svg width="72" height="72" viewBox="0 0 72 72" fill="none" xmlns="http://www.w3.org/2000/svg">
<g filter="url(#filter0_i_21_16702)">
<rect width="72" height="72" rx="36" fill="white"/>
<rect x="0.6" y="0.6" width="70.8" height="70.8" rx="35.4" stroke="white" stroke-width="1.2"/>
<path d="M49.6001 43.5113L38.6689 24.5276C38.3957 24.0625 38.0057 23.6769 37.5376 23.4089C37.0695 23.141 36.5395 23 36.0001 23C35.4607 23 34.9307 23.141 34.4626 23.4089C33.9945 23.6769 33.6045 24.0625 33.3314 24.5276L22.4001 43.5113C22.1373 43.9612 21.9988 44.4728 21.9988 44.9938C21.9988 45.5148 22.1373 46.0265 22.4001 46.4763C22.6698 46.9442 23.0591 47.332 23.5281 47.5997C23.9971 47.8675 24.5288 48.0057 25.0689 48.0001H46.9314C47.471 48.0052 48.0022 47.8669 48.4707 47.5991C48.9393 47.3314 49.3282 46.9439 49.5976 46.4763C49.8608 46.0267 49.9998 45.5152 50.0002 44.9942C50.0007 44.4732 49.8626 43.9614 49.6001 43.5113ZM35.0001 33.0001C35.0001 32.7349 35.1055 32.4805 35.293 32.293C35.4805 32.1054 35.7349 32.0001 36.0001 32.0001C36.2653 32.0001 36.5197 32.1054 36.7072 32.293C36.8948 32.4805 37.0001 32.7349 37.0001 33.0001V38.0001C37.0001 38.2653 36.8948 38.5197 36.7072 38.7072C36.5197 38.8947 36.2653 39.0001 36.0001 39.0001C35.7349 39.0001 35.4805 38.8947 35.293 38.7072C35.1055 38.5197 35.0001 38.2653 35.0001 38.0001V33.0001ZM36.0001 44.0001C35.7034 44.0001 35.4134 43.9121 35.1668 43.7473C34.9201 43.5825 34.7278 43.3482 34.6143 43.0741C34.5008 42.8 34.4711 42.4984 34.5289 42.2074C34.5868 41.9165 34.7297 41.6492 34.9395 41.4394C35.1492 41.2296 35.4165 41.0868 35.7075 41.0289C35.9985 40.971 36.3001 41.0007 36.5741 41.1143C36.8482 41.2278 37.0825 41.4201 37.2473 41.6667C37.4121 41.9134 37.5001 42.2034 37.5001 42.5001C37.5001 42.8979 37.3421 43.2794 37.0608 43.5607C36.7795 43.842 36.3979 44.0001 36.0001 44.0001Z" fill="#D02C2C"/>
</g>
<defs>
<filter id="filter0_i_21_16702" x="0" y="0" width="72" height="76" filterUnits="userSpaceOnUse" color-interpolation-filters="sRGB">
<feFlood flood-opacity="0" result="BackgroundImageFix"/>
<feBlend mode="normal" in="SourceGraphic" in2="BackgroundImageFix" result="shape"/>
<feColorMatrix in="SourceAlpha" type="matrix" values="0 0 0 0 0 0 0 0 0 0 0 0 0 0 0 0 0 0 127 0" result="hardAlpha"/>
<feMorphology radius="1" operator="erode" in="SourceAlpha" result="effect1_innerShadow_21_16702"/>
<feOffset dy="4"/>
<feGaussianBlur stdDeviation="3"/>
<feComposite in2="hardAlpha" operator="arithmetic" k2="-1" k3="1"/>
<feColorMatrix type="matrix" values="0 0 0 0 1 0 0 0 0 0.968018 0 0 0 0 0.968018 0 0 0 1 0"/>
<feBlend mode="normal" in2="shape" result="effect1_innerShadow_21_16702"/>
</filter>
</defs>
</svg>
