<svg width="72" height="72" viewBox="0 0 72 72" fill="none" xmlns="http://www.w3.org/2000/svg">
<g filter="url(#filter0_i_6570_54654)">
<rect width="72" height="72" rx="36" fill="white"/>
<rect x="0.6" y="0.6" width="70.8" height="70.8" rx="35.4" stroke="white" stroke-width="1.2"/>
<path d="M46.7075 30.2925L39.7075 23.2925C39.6146 23.1997 39.5042 23.1261 39.3829 23.0759C39.2615 23.0257 39.1314 22.9999 39 23H27C26.4696 23 25.9609 23.2107 25.5858 23.5858C25.2107 23.9609 25 24.4696 25 25V47C25 47.5304 25.2107 48.0391 25.5858 48.4142C25.9609 48.7893 26.4696 49 27 49H45C45.5304 49 46.0391 48.7893 46.4142 48.4142C46.7893 48.0391 47 47.5304 47 47V31C47.0001 30.8686 46.9743 30.7385 46.9241 30.6172C46.8739 30.4958 46.8003 30.3854 46.7075 30.2925ZM39 40H33C32.7348 40 32.4804 39.8946 32.2929 39.7071C32.1054 39.5196 32 39.2652 32 39C32 38.7348 32.1054 38.4804 32.2929 38.2929C32.4804 38.1054 32.7348 38 33 38H39C39.2652 38 39.5196 38.1054 39.7071 38.2929C39.8946 38.4804 40 38.7348 40 39C40 39.2652 39.8946 39.5196 39.7071 39.7071C39.5196 39.8946 39.2652 40 39 40ZM39 31V25.4138L44.5863 31H39Z" fill="#D02C2C"/>
</g>
<defs>
<filter id="filter0_i_6570_54654" x="0" y="0" width="72" height="76" filterUnits="userSpaceOnUse" color-interpolation-filters="sRGB">
<feFlood flood-opacity="0" result="BackgroundImageFix"/>
<feBlend mode="normal" in="SourceGraphic" in2="BackgroundImageFix" result="shape"/>
<feColorMatrix in="SourceAlpha" type="matrix" values="0 0 0 0 0 0 0 0 0 0 0 0 0 0 0 0 0 0 127 0" result="hardAlpha"/>
<feMorphology radius="1" operator="erode" in="SourceAlpha" result="effect1_innerShadow_6570_54654"/>
<feOffset dy="4"/>
<feGaussianBlur stdDeviation="3"/>
<feComposite in2="hardAlpha" operator="arithmetic" k2="-1" k3="1"/>
<feColorMatrix type="matrix" values="0 0 0 0 1 0 0 0 0 0.968018 0 0 0 0 0.968018 0 0 0 1 0"/>
<feBlend mode="normal" in2="shape" result="effect1_innerShadow_6570_54654"/>
</filter>
</defs>
</svg>
