<svg width="72" height="72" viewBox="0 0 72 72" fill="none" xmlns="http://www.w3.org/2000/svg">
<g filter="url(#filter0_i_195_14858)">
<rect width="72" height="72" rx="36" fill="white"/>
<rect x="0.6" y="0.6" width="70.8" height="70.8" rx="35.4" stroke="white" stroke-width="1.2"/>
<path d="M36 23C33.4288 23 30.9154 23.7624 28.7776 25.1909C26.6398 26.6194 24.9735 28.6497 23.9896 31.0251C23.0056 33.4006 22.7482 36.0144 23.2498 38.5362C23.7514 41.0579 24.9895 43.3743 26.8076 45.1924C28.6257 47.0105 30.9421 48.2486 33.4638 48.7502C35.9856 49.2518 38.5995 48.9944 40.9749 48.0104C43.3503 47.0265 45.3807 45.3603 46.8091 43.2224C48.2376 41.0846 49 38.5712 49 36C48.9964 32.5533 47.6256 29.2488 45.1884 26.8116C42.7512 24.3744 39.4467 23.0036 36 23ZM35.5 29C35.7967 29 36.0867 29.088 36.3334 29.2528C36.58 29.4176 36.7723 29.6519 36.8858 29.926C36.9994 30.2001 37.0291 30.5017 36.9712 30.7926C36.9133 31.0836 36.7704 31.3509 36.5607 31.5607C36.3509 31.7704 36.0836 31.9133 35.7926 31.9712C35.5017 32.0291 35.2001 31.9994 34.926 31.8858C34.6519 31.7723 34.4176 31.58 34.2528 31.3334C34.088 31.0867 34 30.7967 34 30.5C34 30.1022 34.158 29.7206 34.4393 29.4393C34.7206 29.158 35.1022 29 35.5 29ZM37 43C36.4696 43 35.9609 42.7893 35.5858 42.4142C35.2107 42.0391 35 41.5304 35 41V36C34.7348 36 34.4804 35.8946 34.2929 35.7071C34.1054 35.5196 34 35.2652 34 35C34 34.7348 34.1054 34.4804 34.2929 34.2929C34.4804 34.1054 34.7348 34 35 34C35.5304 34 36.0391 34.2107 36.4142 34.5858C36.7893 34.9609 37 35.4696 37 36V41C37.2652 41 37.5196 41.1054 37.7071 41.2929C37.8946 41.4804 38 41.7348 38 42C38 42.2652 37.8946 42.5196 37.7071 42.7071C37.5196 42.8946 37.2652 43 37 43Z" fill="#5DAE2E"/>
</g>
<defs>
<filter id="filter0_i_195_14858" x="0" y="0" width="72" height="76" filterUnits="userSpaceOnUse" color-interpolation-filters="sRGB">
<feFlood flood-opacity="0" result="BackgroundImageFix"/>
<feBlend mode="normal" in="SourceGraphic" in2="BackgroundImageFix" result="shape"/>
<feColorMatrix in="SourceAlpha" type="matrix" values="0 0 0 0 0 0 0 0 0 0 0 0 0 0 0 0 0 0 127 0" result="hardAlpha"/>
<feMorphology radius="1" operator="erode" in="SourceAlpha" result="effect1_innerShadow_195_14858"/>
<feOffset dy="4"/>
<feGaussianBlur stdDeviation="3"/>
<feComposite in2="hardAlpha" operator="arithmetic" k2="-1" k3="1"/>
<feColorMatrix type="matrix" values="0 0 0 0 0.947063 0 0 0 0 1 0 0 0 0 0.900641 0 0 0 1 0"/>
<feBlend mode="normal" in2="shape" result="effect1_innerShadow_195_14858"/>
</filter>
</defs>
</svg>
