<svg width="16" height="17" viewBox="0 0 16 17" fill="none" xmlns="http://www.w3.org/2000/svg">
<path d="M10.3537 13.3782C10.4001 13.4247 10.437 13.4798 10.4621 13.5405C10.4872 13.6012 10.5002 13.6663 10.5002 13.732C10.5002 13.7977 10.4872 13.8627 10.4621 13.9234C10.437 13.9841 10.4001 14.0393 10.3537 14.0857C10.3072 14.1322 10.252 14.169 10.1914 14.1942C10.1307 14.2193 10.0656 14.2322 9.99991 14.2322C9.93421 14.2322 9.86915 14.2193 9.80846 14.1942C9.74776 14.169 9.69261 14.1322 9.64615 14.0857L4.64615 9.08572C4.59967 9.03928 4.56279 8.98414 4.53763 8.92344C4.51246 8.86274 4.49951 8.79768 4.49951 8.73197C4.49951 8.66626 4.51246 8.6012 4.53763 8.5405C4.56279 8.4798 4.59967 8.42465 4.64615 8.37822L9.64615 3.37822C9.73997 3.2844 9.86722 3.23169 9.99991 3.23169C10.1326 3.23169 10.2598 3.2844 10.3537 3.37822C10.4475 3.47204 10.5002 3.59929 10.5002 3.73197C10.5002 3.86465 10.4475 3.9919 10.3537 4.08572L5.70678 8.73197L10.3537 13.3782Z" fill="#212529"/>
</svg>
