<svg width="15" height="14" viewBox="0 0 15 14" fill="none" xmlns="http://www.w3.org/2000/svg">
<path d="M6.5 12.2319C6.5 12.4297 6.44135 12.6231 6.33147 12.7875C6.22159 12.952 6.06541 13.0801 5.88268 13.1558C5.69996 13.2315 5.49889 13.2513 5.30491 13.2127C5.11093 13.1741 4.93275 13.0789 4.79289 12.939C4.65304 12.7992 4.5578 12.621 4.51921 12.427C4.48063 12.233 4.50043 12.032 4.57612 11.8492C4.65181 11.6665 4.77998 11.5103 4.94443 11.4005C5.10888 11.2906 5.30222 11.2319 5.5 11.2319C5.76522 11.2319 6.01957 11.3373 6.20711 11.5248C6.39464 11.7124 6.5 11.9667 6.5 12.2319ZM12 11.2319C11.8022 11.2319 11.6089 11.2906 11.4444 11.4005C11.28 11.5103 11.1518 11.6665 11.0761 11.8492C11.0004 12.032 10.9806 12.233 11.0192 12.427C11.0578 12.621 11.153 12.7992 11.2929 12.939C11.4327 13.0789 11.6109 13.1741 11.8049 13.2127C11.9989 13.2513 12.2 13.2315 12.3827 13.1558C12.5654 13.0801 12.7216 12.952 12.8315 12.7875C12.9414 12.6231 13 12.4297 13 12.2319C13 11.9667 12.8946 11.7124 12.7071 11.5248C12.5196 11.3373 12.2652 11.2319 12 11.2319ZM14.9819 3.36568L13.3794 9.13318C13.2913 9.44824 13.1028 9.72597 12.8426 9.92426C12.5824 10.1225 12.2646 10.2306 11.9375 10.2319H5.76C5.43189 10.2318 5.11284 10.1243 4.8515 9.92595C4.59016 9.72757 4.40087 9.44917 4.3125 9.13318L2.12 1.23193H1C0.867392 1.23193 0.740215 1.17926 0.646447 1.08549C0.552678 0.991719 0.5 0.864542 0.5 0.731934C0.5 0.599325 0.552678 0.472148 0.646447 0.37838C0.740215 0.284612 0.867392 0.231934 1 0.231934H2.5C2.60931 0.231913 2.71562 0.267716 2.80265 0.333862C2.88968 0.400009 2.95263 0.492854 2.98187 0.598184L3.57437 2.73193H14.5C14.5771 2.73192 14.6531 2.74973 14.7222 2.78396C14.7912 2.8182 14.8515 2.86794 14.8981 2.9293C14.9448 2.99066 14.9766 3.06198 14.9911 3.13768C15.0057 3.21338 15.0025 3.29141 14.9819 3.36568ZM13.8419 3.73193H3.8525L5.27812 8.86568C5.30737 8.97101 5.37032 9.06386 5.45735 9.13C5.54438 9.19615 5.65069 9.23195 5.76 9.23193H11.9375C12.0468 9.23195 12.1531 9.19615 12.2402 9.13C12.3272 9.06386 12.3901 8.97101 12.4194 8.86568L13.8419 3.73193Z" fill="#212529"/>
</svg>
