<svg width="33" height="32" viewBox="0 0 33 32" fill="none" xmlns="http://www.w3.org/2000/svg">
<path d="M26.5 18H6.5C5.94772 18 5.5 18.4477 5.5 19V24C5.5 24.5523 5.94772 25 6.5 25H26.5C27.0523 25 27.5 24.5523 27.5 24V19C27.5 18.4477 27.0523 18 26.5 18Z" stroke="#B2B9B5" stroke-width="2" stroke-linecap="round" stroke-linejoin="round"/>
<path d="M26.5 7H6.5C5.94772 7 5.5 7.44772 5.5 8V13C5.5 13.5523 5.94772 14 6.5 14H26.5C27.0523 14 27.5 13.5523 27.5 13V8C27.5 7.44772 27.0523 7 26.5 7Z" stroke="#B2B9B5" stroke-width="2" stroke-linecap="round" stroke-linejoin="round"/>
</svg>
