<svg width="20" height="15" viewBox="0 0 20 15" fill="none" xmlns="http://www.w3.org/2000/svg">
<path d="M16.8752 4.9375V3.625C16.8752 2.7962 16.546 2.00134 15.9599 1.41529C15.3739 0.82924 14.579 0.5 13.7502 0.5H6.2502C5.4214 0.5 4.62655 0.82924 4.04049 1.41529C3.45444 2.00134 3.1252 2.7962 3.1252 3.625V4.9375C2.41877 5.08095 1.78366 5.46421 1.32747 6.02234C0.871278 6.58047 0.62207 7.27915 0.62207 8C0.62207 8.72085 0.871278 9.41953 1.32747 9.97766C1.78366 10.5358 2.41877 10.9191 3.1252 11.0625V13.625C3.1252 13.9565 3.2569 14.2745 3.49132 14.5089C3.72574 14.7433 4.04368 14.875 4.3752 14.875H15.6252C15.9567 14.875 16.2747 14.7433 16.5091 14.5089C16.7435 14.2745 16.8752 13.9565 16.8752 13.625V11.0625C17.5816 10.9191 18.2167 10.5358 18.6729 9.97766C19.1291 9.41953 19.3783 8.72085 19.3783 8C19.3783 7.27915 19.1291 6.58047 18.6729 6.02234C18.2167 5.46421 17.5816 5.08095 16.8752 4.9375ZM6.2502 1.75H13.7502C14.2475 1.75 14.7244 1.94754 15.076 2.29917C15.4277 2.65081 15.6252 3.12772 15.6252 3.625V4.9375C14.9198 5.08253 14.286 5.46633 13.8306 6.02419C13.3752 6.58205 13.1261 7.27986 13.1252 8H6.8752C6.87432 7.27986 6.62519 6.58205 6.16979 6.02419C5.71439 5.46633 5.08058 5.08253 4.3752 4.9375V3.625C4.3752 3.12772 4.57275 2.65081 4.92438 2.29917C5.27601 1.94754 5.75292 1.75 6.2502 1.75ZM16.2807 9.875H16.2502C16.0844 9.875 15.9255 9.94085 15.8083 10.0581C15.6911 10.1753 15.6252 10.3342 15.6252 10.5V13.625H4.3752V10.5C4.3752 10.3342 4.30936 10.1753 4.19214 10.0581C4.07493 9.94085 3.91596 9.875 3.7502 9.875H3.71973C3.35025 9.86899 2.99078 9.75395 2.68647 9.5443C2.38216 9.33466 2.14659 9.03977 2.00934 8.69667C1.87208 8.35357 1.83927 7.97757 1.91502 7.61589C1.99077 7.2542 2.17171 6.92296 2.43511 6.66378C2.6985 6.4046 3.03261 6.22902 3.39547 6.15911C3.75833 6.0892 4.13376 6.12807 4.4746 6.27083C4.81543 6.4136 5.10649 6.65389 5.3112 6.96154C5.51591 7.26919 5.62515 7.63047 5.6252 8V11.125C5.6252 11.2908 5.69105 11.4497 5.80826 11.5669C5.92547 11.6842 6.08444 11.75 6.2502 11.75C6.41596 11.75 6.57493 11.6842 6.69214 11.5669C6.80935 11.4497 6.8752 11.2908 6.8752 11.125V9.25H13.1252V11.125C13.1252 11.2908 13.1911 11.4497 13.3083 11.5669C13.4255 11.6842 13.5844 11.75 13.7502 11.75C13.916 11.75 14.0749 11.6842 14.1921 11.5669C14.3094 11.4497 14.3752 11.2908 14.3752 11.125V8C14.3753 7.63047 14.4845 7.26919 14.6892 6.96154C14.8939 6.65389 15.185 6.4136 15.5258 6.27083C15.8667 6.12807 16.2421 6.0892 16.6049 6.15911C16.9678 6.22902 17.3019 6.4046 17.5653 6.66378C17.8287 6.92296 18.0096 7.2542 18.0854 7.61589C18.1611 7.97757 18.1283 8.35357 17.9911 8.69667C17.8538 9.03977 17.6182 9.33466 17.3139 9.5443C17.0096 9.75395 16.6502 9.86899 16.2807 9.875Z" fill="#212529"/>
</svg>
