<svg width="32" height="33" viewBox="0 0 32 33" fill="none" xmlns="http://www.w3.org/2000/svg">
<path d="M30 17.2319C29.9999 18.0735 29.6966 18.8869 29.1456 19.523C28.5947 20.1591 27.8329 20.5755 27 20.6957V25.7319C27 26.2624 26.7893 26.7711 26.4142 27.1461C26.0391 27.5212 25.5304 27.7319 25 27.7319H7C6.46957 27.7319 5.96086 27.5212 5.58579 27.1461C5.21071 26.7711 5 26.2624 5 25.7319V20.6957C4.33598 20.5998 3.7135 20.3152 3.20669 19.8756C2.69987 19.436 2.33008 18.86 2.14134 18.2162C1.95261 17.5724 1.95289 16.8879 2.14215 16.2442C2.33141 15.6006 2.70167 15.0249 3.20885 14.5857C3.71602 14.1465 4.33873 13.8624 5.00283 13.7671C5.66692 13.6718 6.34442 13.7693 6.95463 14.0482C7.56484 14.327 8.08206 14.7753 8.44468 15.3398C8.80731 15.9043 9.00007 16.561 9 17.2319V21.7319C9 21.9972 9.10536 22.2515 9.29289 22.439C9.48043 22.6266 9.73478 22.7319 10 22.7319C10.2652 22.7319 10.5196 22.6266 10.7071 22.439C10.8946 22.2515 11 21.9972 11 21.7319V18.7319H21V21.7319C21 21.9972 21.1054 22.2515 21.2929 22.439C21.4804 22.6266 21.7348 22.7319 22 22.7319C22.2652 22.7319 22.5196 22.6266 22.7071 22.439C22.8946 22.2515 23 21.9972 23 21.7319V17.2319C23 16.3037 23.3687 15.4134 24.0251 14.7571C24.6815 14.1007 25.5717 13.7319 26.5 13.7319C27.4283 13.7319 28.3185 14.1007 28.9749 14.7571C29.6313 15.4134 30 16.3037 30 17.2319ZM5.5 11.7319C6.87147 11.7339 8.19288 12.2475 9.2057 13.1722C10.2185 14.0969 10.8499 15.3663 10.9762 16.7319H21.0238C21.1501 15.3663 21.7815 14.0969 22.7943 13.1722C23.8071 12.2475 25.1285 11.7339 26.5 11.7319C26.6326 11.7319 26.7598 11.6793 26.8536 11.5855C26.9473 11.4917 27 11.3645 27 11.2319V9.73193C27 8.40585 26.4732 7.13408 25.5355 6.1964C24.5979 5.25872 23.3261 4.73193 22 4.73193H10C8.67392 4.73193 7.40215 5.25872 6.46447 6.1964C5.52678 7.13408 5 8.40585 5 9.73193V11.2319C5 11.3645 5.05268 11.4917 5.14645 11.5855C5.24021 11.6793 5.36739 11.7319 5.5 11.7319Z" fill="#212529"/>
</svg>
