<svg width="24" height="25" viewBox="0 0 24 25" fill="none" xmlns="http://www.w3.org/2000/svg">
<path d="M22.81 9.35747L10.7725 21.395C10.4913 21.6761 10.1099 21.834 9.71223 21.834C9.31458 21.834 8.9332 21.6761 8.65192 21.395L1.93755 14.645C1.65674 14.3637 1.49902 13.9826 1.49902 13.5851C1.49902 13.1877 1.65674 12.8065 1.93755 12.5253L3.81255 10.6503C4.09367 10.3703 4.47425 10.2132 4.87099 10.2132C5.26772 10.2132 5.6483 10.3703 5.92942 10.6503L9.74973 14.3553L18.821 5.3956C19.1021 5.11536 19.4829 4.95801 19.8799 4.95801C20.2769 4.95801 20.6576 5.11536 20.9388 5.3956L22.8091 7.22747C22.9498 7.36685 23.0614 7.53271 23.1377 7.71546C23.2139 7.89822 23.2532 8.09426 23.2533 8.29228C23.2534 8.49029 23.2142 8.68637 23.1382 8.86919C23.0621 9.05201 22.9506 9.21797 22.81 9.35747Z" fill="#7BBC42"/>
</svg>
