<svg width="79" height="86" viewBox="0 0 79 86" fill="none" xmlns="http://www.w3.org/2000/svg">
<g filter="url(#filter0_d_244_8065)">
<rect x="16" y="19" width="40" height="40" rx="20" fill="white"/>
<path d="M38.3537 43.6463C38.4001 43.6927 38.437 43.7479 38.4621 43.8086C38.4872 43.8693 38.5002 43.9343 38.5002 44C38.5002 44.0657 38.4872 44.1308 38.4621 44.1915C38.437 44.2522 38.4001 44.3073 38.3537 44.3538C38.3072 44.4002 38.252 44.4371 38.1914 44.4622C38.1307 44.4874 38.0656 44.5003 37.9999 44.5003C37.9342 44.5003 37.8692 44.4874 37.8085 44.4622C37.7478 44.4371 37.6926 44.4002 37.6462 44.3538L32.6462 39.3538C32.5997 39.3073 32.5628 39.2522 32.5376 39.1915C32.5125 39.1308 32.4995 39.0657 32.4995 39C32.4995 38.9343 32.5125 38.8693 32.5376 38.8086C32.5628 38.7479 32.5997 38.6927 32.6462 38.6463L37.6462 33.6463C37.74 33.5525 37.8672 33.4998 37.9999 33.4998C38.1326 33.4998 38.2598 33.5525 38.3537 33.6463C38.4475 33.7401 38.5002 33.8674 38.5002 34C38.5002 34.1327 38.4475 34.26 38.3537 34.3538L33.7068 39L38.3537 43.6463Z" fill="#212529"/>
</g>
<defs>
<filter id="filter0_d_244_8065" x="-7" y="0" width="86" height="86" filterUnits="userSpaceOnUse" color-interpolation-filters="sRGB">
<feFlood flood-opacity="0" result="BackgroundImageFix"/>
<feColorMatrix in="SourceAlpha" type="matrix" values="0 0 0 0 0 0 0 0 0 0 0 0 0 0 0 0 0 0 127 0" result="hardAlpha"/>
<feMorphology radius="3" operator="dilate" in="SourceAlpha" result="effect1_dropShadow_244_8065"/>
<feOffset dy="4"/>
<feGaussianBlur stdDeviation="10"/>
<feComposite in2="hardAlpha" operator="out"/>
<feColorMatrix type="matrix" values="0 0 0 0 0.129412 0 0 0 0 0.145098 0 0 0 0 0.160784 0 0 0 0.04 0"/>
<feBlend mode="normal" in2="BackgroundImageFix" result="effect1_dropShadow_244_8065"/>
<feBlend mode="normal" in="SourceGraphic" in2="effect1_dropShadow_244_8065" result="shape"/>
</filter>
</defs>
</svg>
