<svg width="79" height="86" viewBox="0 0 79 86" fill="none" xmlns="http://www.w3.org/2000/svg">
<g filter="url(#filter0_d_244_8068)">
<rect x="23" y="19" width="40" height="40" rx="20" fill="white"/>
<path d="M49 39C49 39.1326 48.9473 39.2598 48.8536 39.3536C48.7598 39.4473 48.6326 39.5 48.5 39.5H37.5C37.3674 39.5 37.2402 39.4473 37.1464 39.3536C37.0527 39.2598 37 39.1326 37 39C37 38.8674 37.0527 38.7402 37.1464 38.6464C37.2402 38.5527 37.3674 38.5 37.5 38.5H48.5C48.6326 38.5 48.7598 38.5527 48.8536 38.6464C48.9473 38.7402 49 38.8674 49 39ZM37.5 35.5H48.5C48.6326 35.5 48.7598 35.4473 48.8536 35.3536C48.9473 35.2598 49 35.1326 49 35C49 34.8674 48.9473 34.7402 48.8536 34.6464C48.7598 34.5527 48.6326 34.5 48.5 34.5H37.5C37.3674 34.5 37.2402 34.5527 37.1464 34.6464C37.0527 34.7402 37 34.8674 37 35C37 35.1326 37.0527 35.2598 37.1464 35.3536C37.2402 35.4473 37.3674 35.5 37.5 35.5ZM48.5 42.5H37.5C37.3674 42.5 37.2402 42.5527 37.1464 42.6464C37.0527 42.7402 37 42.8674 37 43C37 43.1326 37.0527 43.2598 37.1464 43.3536C37.2402 43.4473 37.3674 43.5 37.5 43.5H48.5C48.6326 43.5 48.7598 43.4473 48.8536 43.3536C48.9473 43.2598 49 43.1326 49 43C49 42.8674 48.9473 42.7402 48.8536 42.6464C48.7598 42.5527 48.6326 42.5 48.5 42.5Z" fill="#212529"/>
</g>
<defs>
<filter id="filter0_d_244_8068" x="0" y="0" width="86" height="86" filterUnits="userSpaceOnUse" color-interpolation-filters="sRGB">
<feFlood flood-opacity="0" result="BackgroundImageFix"/>
<feColorMatrix in="SourceAlpha" type="matrix" values="0 0 0 0 0 0 0 0 0 0 0 0 0 0 0 0 0 0 127 0" result="hardAlpha"/>
<feMorphology radius="3" operator="dilate" in="SourceAlpha" result="effect1_dropShadow_244_8068"/>
<feOffset dy="4"/>
<feGaussianBlur stdDeviation="10"/>
<feComposite in2="hardAlpha" operator="out"/>
<feColorMatrix type="matrix" values="0 0 0 0 0.129412 0 0 0 0 0.145098 0 0 0 0 0.160784 0 0 0 0.04 0"/>
<feBlend mode="normal" in2="BackgroundImageFix" result="effect1_dropShadow_244_8068"/>
<feBlend mode="normal" in="SourceGraphic" in2="effect1_dropShadow_244_8068" result="shape"/>
</filter>
</defs>
</svg>
