<svg width="24" height="24" viewBox="0 0 24 24" fill="none" xmlns="http://www.w3.org/2000/svg">
<path d="M19.2801 18.2194C19.3497 18.2891 19.405 18.3718 19.4427 18.4628C19.4804 18.5539 19.4999 18.6515 19.4999 18.75C19.4999 18.8486 19.4804 18.9461 19.4427 19.0372C19.405 19.1282 19.3497 19.2109 19.2801 19.2806C19.2104 19.3503 19.1277 19.4056 19.0366 19.4433C18.9456 19.481 18.848 19.5004 18.7494 19.5004C18.6509 19.5004 18.5533 19.481 18.4623 19.4433C18.3712 19.4056 18.2885 19.3503 18.2188 19.2806L11.9994 13.0603L5.78007 19.2806C5.63933 19.4214 5.44846 19.5004 5.24944 19.5004C5.05042 19.5004 4.85955 19.4214 4.71882 19.2806C4.57808 19.1399 4.49902 18.949 4.49902 18.75C4.49902 18.551 4.57808 18.3601 4.71882 18.2194L10.9391 12L4.71882 5.78063C4.57808 5.6399 4.49902 5.44903 4.49902 5.25001C4.49902 5.05098 4.57808 4.86011 4.71882 4.71938C4.85955 4.57865 5.05042 4.49959 5.24944 4.49959C5.44846 4.49959 5.63933 4.57865 5.78007 4.71938L11.9994 10.9397L18.2188 4.71938C18.3595 4.57865 18.5504 4.49959 18.7494 4.49959C18.9485 4.49959 19.1393 4.57865 19.2801 4.71938C19.4208 4.86011 19.4999 5.05098 19.4999 5.25001C19.4999 5.44903 19.4208 5.6399 19.2801 5.78063L13.0598 12L19.2801 18.2194Z" fill="#5D716C"/>
</svg>
