<svg width="14" height="18" viewBox="0 0 14 18" fill="none" xmlns="http://www.w3.org/2000/svg">
<path d="M13.094 1.08516C13.0352 1.01892 12.963 0.965925 12.8822 0.929694C12.8014 0.893463 12.7138 0.87482 12.6252 0.875001H1.37521C1.28652 0.874971 1.19884 0.893817 1.118 0.930286C1.03715 0.966756 0.964995 1.02001 0.906321 1.08652C0.847646 1.15303 0.803799 1.23126 0.777691 1.31602C0.751584 1.40079 0.743816 1.49013 0.754902 1.57813L2.5635 16.6563C2.60158 16.9585 2.74875 17.2365 2.97735 17.4379C3.20595 17.6393 3.50023 17.7503 3.8049 17.75H10.1955C10.5013 17.7501 10.7964 17.6381 11.0252 17.4353C11.254 17.2324 11.4004 16.9528 11.4369 16.6492L13.2455 1.57813C13.2568 1.4899 13.2491 1.40029 13.223 1.31528C13.1968 1.23027 13.1528 1.15181 13.094 1.08516ZM11.9221 2.125L11.6955 4H2.3049L2.07834 2.125H11.9221ZM10.1955 16.5H3.8049L2.4549 5.25H11.5455L10.1955 16.5Z" fill="#212529"/>
</svg>
