<svg width="32" height="32" viewBox="0 0 32 32" fill="none" xmlns="http://www.w3.org/2000/svg">
<rect width="32" height="32" rx="16" fill="#4F6642"/>
<path d="M22 11H10C9.73478 11 9.48043 11.1054 9.29289 11.2929C9.10536 11.4804 9 11.7348 9 12V20C9 20.2652 9.10536 20.5196 9.29289 20.7071C9.48043 20.8946 9.73478 21 10 21H22C22.2652 21 22.5196 20.8946 22.7071 20.7071C22.8946 20.5196 23 20.2652 23 20V12C23 11.7348 22.8946 11.4804 22.7071 11.2929C22.5196 11.1054 22.2652 11 22 11ZM16.5 19H15.5C15.3674 19 15.2402 18.9473 15.1464 18.8536C15.0527 18.7598 15 18.6326 15 18.5C15 18.3674 15.0527 18.2402 15.1464 18.1464C15.2402 18.0527 15.3674 18 15.5 18H16.5C16.6326 18 16.7598 18.0527 16.8536 18.1464C16.9473 18.2402 17 18.3674 17 18.5C17 18.6326 16.9473 18.7598 16.8536 18.8536C16.7598 18.9473 16.6326 19 16.5 19ZM20.5 19H18.5C18.3674 19 18.2402 18.9473 18.1464 18.8536C18.0527 18.7598 18 18.6326 18 18.5C18 18.3674 18.0527 18.2402 18.1464 18.1464C18.2402 18.0527 18.3674 18 18.5 18H20.5C20.6326 18 20.7598 18.0527 20.8536 18.1464C20.9473 18.2402 21 18.3674 21 18.5C21 18.6326 20.9473 18.7598 20.8536 18.8536C20.7598 18.9473 20.6326 19 20.5 19ZM10 13.5V12H22V13.5H10Z" fill="white"/>
</svg>
