<svg width="32" height="32" viewBox="0 0 32 32" fill="none" xmlns="http://www.w3.org/2000/svg">
<rect width="32" height="32" rx="16" fill="#4F6642"/>
<path d="M16 9.5C14.7144 9.5 13.4577 9.88122 12.3888 10.5954C11.3199 11.3097 10.4868 12.3248 9.99479 13.5126C9.50282 14.7003 9.37409 16.0072 9.6249 17.2681C9.8757 18.529 10.4948 19.6872 11.4038 20.5962C12.3129 21.5052 13.471 22.1243 14.7319 22.3751C15.9928 22.6259 17.2997 22.4972 18.4874 22.0052C19.6752 21.5132 20.6903 20.6801 21.4046 19.6112C22.1188 18.5423 22.5 17.2856 22.5 16C22.4982 14.2767 21.8128 12.6244 20.5942 11.4058C19.3756 10.1872 17.7234 9.50182 16 9.5ZM18.8538 14.8538L15.3538 18.3538C15.3073 18.4002 15.2522 18.4371 15.1915 18.4623C15.1308 18.4874 15.0657 18.5004 15 18.5004C14.9343 18.5004 14.8692 18.4874 14.8085 18.4623C14.7478 18.4371 14.6927 18.4002 14.6463 18.3538L13.1463 16.8538C13.0524 16.7599 12.9997 16.6327 12.9997 16.5C12.9997 16.3673 13.0524 16.2401 13.1463 16.1462C13.2401 16.0524 13.3673 15.9997 13.5 15.9997C13.6327 15.9997 13.7599 16.0524 13.8538 16.1462L15 17.2931L18.1463 14.1462C18.1927 14.0998 18.2479 14.0629 18.3086 14.0378C18.3693 14.0127 18.4343 13.9997 18.5 13.9997C18.5657 13.9997 18.6308 14.0127 18.6915 14.0378C18.7521 14.0629 18.8073 14.0998 18.8538 14.1462C18.9002 14.1927 18.9371 14.2479 18.9622 14.3086C18.9873 14.3692 19.0003 14.4343 19.0003 14.5C19.0003 14.5657 18.9873 14.6308 18.9622 14.6914C18.9371 14.7521 18.9002 14.8073 18.8538 14.8538Z" fill="white"/>
</svg>
