<svg width="32" height="32" viewBox="0 0 32 32" fill="none" xmlns="http://www.w3.org/2000/svg">
<rect width="32" height="32" rx="16" fill="#4F6642"/>
<path d="M21.5 12H11.5C11.3674 12 11.2402 11.9473 11.1464 11.8536C11.0527 11.7598 11 11.6326 11 11.5C11 11.3674 11.0527 11.2402 11.1464 11.1464C11.2402 11.0527 11.3674 11 11.5 11H20C20.1326 11 20.2598 10.9473 20.3536 10.8536C20.4473 10.7598 20.5 10.6326 20.5 10.5C20.5 10.3674 20.4473 10.2402 20.3536 10.1464C20.2598 10.0527 20.1326 10 20 10H11.5C11.1022 10 10.7206 10.158 10.4393 10.4393C10.158 10.7206 10 11.1022 10 11.5V19.5C10 19.8978 10.158 20.2794 10.4393 20.5607C10.7206 20.842 11.1022 21 11.5 21H21.5C21.7652 21 22.0196 20.8946 22.2071 20.7071C22.3946 20.5196 22.5 20.2652 22.5 20V13C22.5 12.7348 22.3946 12.4804 22.2071 12.2929C22.0196 12.1054 21.7652 12 21.5 12ZM19.25 17C19.1017 17 18.9567 16.956 18.8333 16.8736C18.71 16.7912 18.6139 16.6741 18.5571 16.537C18.5003 16.4 18.4855 16.2492 18.5144 16.1037C18.5434 15.9582 18.6148 15.8246 18.7197 15.7197C18.8246 15.6148 18.9582 15.5433 19.1037 15.5144C19.2492 15.4855 19.4 15.5003 19.537 15.5571C19.6741 15.6139 19.7912 15.71 19.8736 15.8333C19.956 15.9567 20 16.1017 20 16.25C20 16.4489 19.921 16.6397 19.7803 16.7803C19.6397 16.921 19.4489 17 19.25 17Z" fill="white"/>
</svg>
