<svg width="32" height="32" viewBox="0 0 32 32" fill="none" xmlns="http://www.w3.org/2000/svg">
<rect width="32" height="32" rx="16" fill="#4F6642"/>
<path d="M22 15.5002V21.5002C22 21.6328 21.9473 21.7599 21.8536 21.8537C21.7598 21.9475 21.6326 22.0002 21.5 22.0002H10.5C10.3674 22.0002 10.2402 21.9475 10.1465 21.8537C10.0527 21.7599 10 21.6328 10 21.5002V15.5002C9.99954 15.3687 10.0252 15.2384 10.0755 15.117C10.1259 14.9955 10.1998 14.8853 10.2931 14.7927L15.2931 9.79266C15.4806 9.60527 15.7349 9.5 16 9.5C16.2651 9.5 16.5194 9.60527 16.7069 9.79266L21.7069 14.7927C21.8002 14.8853 21.8742 14.9955 21.9245 15.117C21.9748 15.2384 22.0005 15.3687 22 15.5002Z" fill="white"/>
</svg>
