<svg width="72" height="72" viewBox="0 0 72 72" fill="none" xmlns="http://www.w3.org/2000/svg">
<g filter="url(#filter0_i_321_13333)">
<rect width="72" height="72" rx="36" fill="white"/>
<rect x="0.6" y="0.6" width="70.8" height="70.8" rx="35.4" stroke="white" stroke-width="1.2"/>
<path d="M47 26H42V25C42 24.2044 41.6839 23.4413 41.1213 22.8787C40.5587 22.3161 39.7956 22 39 22H33C32.2044 22 31.4413 22.3161 30.8787 22.8787C30.3161 23.4413 30 24.2044 30 25V26H25C24.7348 26 24.4804 26.1054 24.2929 26.2929C24.1054 26.4804 24 26.7348 24 27C24 27.2652 24.1054 27.5196 24.2929 27.7071C24.4804 27.8946 24.7348 28 25 28H26V46C26 46.5304 26.2107 47.0391 26.5858 47.4142C26.9609 47.7893 27.4696 48 28 48H44C44.5304 48 45.0391 47.7893 45.4142 47.4142C45.7893 47.0391 46 46.5304 46 46V28H47C47.2652 28 47.5196 27.8946 47.7071 27.7071C47.8946 27.5196 48 27.2652 48 27C48 26.7348 47.8946 26.4804 47.7071 26.2929C47.5196 26.1054 47.2652 26 47 26ZM34 41C34 41.2652 33.8946 41.5196 33.7071 41.7071C33.5196 41.8946 33.2652 42 33 42C32.7348 42 32.4804 41.8946 32.2929 41.7071C32.1054 41.5196 32 41.2652 32 41V33C32 32.7348 32.1054 32.4804 32.2929 32.2929C32.4804 32.1054 32.7348 32 33 32C33.2652 32 33.5196 32.1054 33.7071 32.2929C33.8946 32.4804 34 32.7348 34 33V41ZM40 41C40 41.2652 39.8946 41.5196 39.7071 41.7071C39.5196 41.8946 39.2652 42 39 42C38.7348 42 38.4804 41.8946 38.2929 41.7071C38.1054 41.5196 38 41.2652 38 41V33C38 32.7348 38.1054 32.4804 38.2929 32.2929C38.4804 32.1054 38.7348 32 39 32C39.2652 32 39.5196 32.1054 39.7071 32.2929C39.8946 32.4804 40 32.7348 40 33V41ZM40 26H32V25C32 24.7348 32.1054 24.4804 32.2929 24.2929C32.4804 24.1054 32.7348 24 33 24H39C39.2652 24 39.5196 24.1054 39.7071 24.2929C39.8946 24.4804 40 24.7348 40 25V26Z" fill="#D02C2C"/>
</g>
<defs>
<filter id="filter0_i_321_13333" x="0" y="0" width="72" height="76" filterUnits="userSpaceOnUse" color-interpolation-filters="sRGB">
<feFlood flood-opacity="0" result="BackgroundImageFix"/>
<feBlend mode="normal" in="SourceGraphic" in2="BackgroundImageFix" result="shape"/>
<feColorMatrix in="SourceAlpha" type="matrix" values="0 0 0 0 0 0 0 0 0 0 0 0 0 0 0 0 0 0 127 0" result="hardAlpha"/>
<feMorphology radius="1" operator="erode" in="SourceAlpha" result="effect1_innerShadow_321_13333"/>
<feOffset dy="4"/>
<feGaussianBlur stdDeviation="3"/>
<feComposite in2="hardAlpha" operator="arithmetic" k2="-1" k3="1"/>
<feColorMatrix type="matrix" values="0 0 0 0 1 0 0 0 0 0.968018 0 0 0 0 0.968018 0 0 0 1 0"/>
<feBlend mode="normal" in2="shape" result="effect1_innerShadow_321_13333"/>
</filter>
</defs>
</svg>
