<svg width="18" height="16" viewBox="0 0 18 16" fill="none" xmlns="http://www.w3.org/2000/svg">
<path d="M15.875 4.00001H10.5086L13.1922 1.3172C13.3095 1.19992 13.3753 1.04086 13.3753 0.875012C13.3753 0.709159 13.3095 0.5501 13.1922 0.432824C13.0749 0.315549 12.9159 0.249664 12.75 0.249664C12.5841 0.249664 12.4251 0.315549 12.3078 0.432824L9 3.74142L5.69219 0.432824C5.63412 0.374755 5.56518 0.328693 5.48931 0.297266C5.41344 0.265839 5.33212 0.249664 5.25 0.249664C5.16788 0.249664 5.08656 0.265839 5.01069 0.297266C4.93482 0.328693 4.86588 0.374755 4.80781 0.432824C4.69054 0.5501 4.62465 0.709159 4.62465 0.875012C4.62465 1.04086 4.69054 1.19992 4.80781 1.3172L7.49141 4.00001H2.125C1.79348 4.00001 1.47554 4.13171 1.24112 4.36613C1.0067 4.60055 0.875 4.91849 0.875 5.25001V14.625C0.875 14.9565 1.0067 15.2745 1.24112 15.5089C1.47554 15.7433 1.79348 15.875 2.125 15.875H15.875C16.2065 15.875 16.5245 15.7433 16.7589 15.5089C16.9933 15.2745 17.125 14.9565 17.125 14.625V5.25001C17.125 4.91849 16.9933 4.60055 16.7589 4.36613C16.5245 4.13171 16.2065 4.00001 15.875 4.00001ZM15.875 14.625H2.125V5.25001H15.875V14.625Z" fill="#212529"/>
</svg>
