<svg width="32" height="32" viewBox="0 0 32 32" fill="none" xmlns="http://www.w3.org/2000/svg">
<rect width="32" height="32" rx="16" fill="#D02C2C"/>
<path d="M16 9.5C14.7144 9.5 13.4577 9.88122 12.3888 10.5954C11.3199 11.3097 10.4868 12.3248 9.99479 13.5126C9.50282 14.7003 9.37409 16.0072 9.6249 17.2681C9.8757 18.529 10.4948 19.6872 11.4038 20.5962C12.3129 21.5052 13.471 22.1243 14.7319 22.3751C15.9928 22.6259 17.2997 22.4972 18.4874 22.0052C19.6752 21.5132 20.6903 20.6801 21.4046 19.6112C22.1188 18.5423 22.5 17.2856 22.5 16C22.4982 14.2767 21.8128 12.6244 20.5942 11.4058C19.3756 10.1872 17.7234 9.50182 16 9.5ZM15.75 12.5C15.8983 12.5 16.0433 12.544 16.1667 12.6264C16.29 12.7088 16.3861 12.8259 16.4429 12.963C16.4997 13.1 16.5145 13.2508 16.4856 13.3963C16.4567 13.5418 16.3852 13.6754 16.2803 13.7803C16.1754 13.8852 16.0418 13.9567 15.8963 13.9856C15.7508 14.0145 15.6 13.9997 15.463 13.9429C15.3259 13.8861 15.2088 13.79 15.1264 13.6667C15.044 13.5433 15 13.3983 15 13.25C15 13.0511 15.079 12.8603 15.2197 12.7197C15.3603 12.579 15.5511 12.5 15.75 12.5ZM16.5 19.5C16.2348 19.5 15.9804 19.3946 15.7929 19.2071C15.6054 19.0196 15.5 18.7652 15.5 18.5V16C15.3674 16 15.2402 15.9473 15.1464 15.8536C15.0527 15.7598 15 15.6326 15 15.5C15 15.3674 15.0527 15.2402 15.1464 15.1464C15.2402 15.0527 15.3674 15 15.5 15C15.7652 15 16.0196 15.1054 16.2071 15.2929C16.3946 15.4804 16.5 15.7348 16.5 16V18.5C16.6326 18.5 16.7598 18.5527 16.8536 18.6464C16.9473 18.7402 17 18.8674 17 19C17 19.1326 16.9473 19.2598 16.8536 19.3536C16.7598 19.4473 16.6326 19.5 16.5 19.5Z" fill="white"/>
</svg>
