<svg width="32" height="33" viewBox="0 0 32 33" fill="none" xmlns="http://www.w3.org/2000/svg">
<path d="M29.1252 17.6069C28.8224 16.4757 28.2589 15.4312 27.4799 14.557C26.7009 13.6827 25.728 13.003 24.6391 12.5723C23.5502 12.1415 22.3756 11.9718 21.2093 12.0765C20.043 12.1813 18.9174 12.5577 17.9227 13.1757L19.9715 4.99566C20.0223 4.79242 20.008 4.57836 19.9306 4.38368C19.8533 4.18901 19.7167 4.02354 19.5402 3.91066C18.6897 3.3736 17.7399 3.01312 16.7472 2.85066C15.7545 2.6882 14.7393 2.72709 13.7619 2.96501C12.7846 3.20293 11.8651 3.63502 11.0581 4.23556C10.2512 4.83611 9.57331 5.59284 9.0648 6.46073C8.5563 7.32862 8.22757 8.28993 8.09818 9.28746C7.96879 10.285 8.04139 11.2984 8.31164 12.2673C8.5819 13.2362 9.0443 14.1408 9.67132 14.9273C10.2983 15.7139 11.0772 16.3663 11.9615 16.8457L3.85273 19.1619C3.65128 19.2193 3.47293 19.3385 3.34285 19.5026C3.21277 19.6668 3.13752 19.8677 3.12773 20.0769C3.05077 21.7843 3.55927 23.4668 4.56904 24.8457C5.57881 26.2246 7.02927 27.2173 8.68023 27.6594C9.31701 27.8304 9.9734 27.9174 10.6327 27.9182C11.6374 27.9155 12.6314 27.7112 13.5557 27.3175C14.48 26.9237 15.3159 26.3485 16.0139 25.6258C16.7118 24.9031 17.2577 24.0477 17.6191 23.1102C17.9804 22.1728 18.15 21.1723 18.1177 20.1682L24.1777 26.0332C24.3284 26.179 24.5212 26.2737 24.7286 26.304C24.9361 26.3343 25.1479 26.2986 25.334 26.2019C26.8503 25.4152 28.0525 24.1344 28.742 22.5715C29.4314 21.0086 29.5666 19.2571 29.1252 17.6069ZM16.3052 19.2132C15.8145 19.2735 15.3168 19.187 14.8753 18.9645C14.4337 18.742 14.068 18.3935 13.8244 17.9632C13.5809 17.5329 13.4704 17.04 13.507 16.5469C13.5436 16.0538 13.7255 15.5826 14.0299 15.193C14.3343 14.8033 14.7474 14.5126 15.2169 14.3577C15.6865 14.2028 16.1915 14.1906 16.668 14.3227C17.1444 14.4548 17.5711 14.7252 17.8939 15.0997C18.2167 15.4743 18.4212 15.9361 18.4815 16.4269C18.5624 17.085 18.3785 17.7482 17.9704 18.2707C17.5623 18.7932 16.9633 19.1322 16.3052 19.2132Z" fill="#212529"/>
</svg>
