<svg width="18" height="16" viewBox="0 0 18 16" fill="none" xmlns="http://www.w3.org/2000/svg">
<path d="M17.2029 9.54689C17.0136 8.83992 16.6615 8.18708 16.1746 7.64067C15.6877 7.09425 15.0796 6.66943 14.3991 6.40023C13.7185 6.13103 12.9844 6.02493 12.2554 6.09041C11.5265 6.1559 10.823 6.39116 10.2013 6.77736L11.4818 1.66486C11.5136 1.53784 11.5046 1.40405 11.4563 1.28237C11.4079 1.1607 11.3226 1.05729 11.2123 0.986731C10.6807 0.651071 10.087 0.42577 9.46662 0.324234C8.84619 0.222699 8.21168 0.247004 7.60084 0.395703C6.99 0.544402 6.41531 0.814457 5.91097 1.1898C5.40663 1.56514 4.98295 2.0381 4.66514 2.58053C4.34732 3.12296 4.14187 3.72378 4.061 4.34723C3.98013 4.97069 4.0255 5.60404 4.19441 6.20961C4.36332 6.81517 4.65232 7.38057 5.04421 7.87216C5.4361 8.36375 5.92287 8.77149 6.47556 9.07111L1.40759 10.5188C1.28168 10.5546 1.17022 10.6291 1.08891 10.7317C1.00761 10.8343 0.960585 10.9599 0.954464 11.0906C0.906364 12.1578 1.22418 13.2093 1.85528 14.0711C2.48639 14.933 3.39293 15.5534 4.42478 15.8297C4.82276 15.9366 5.23301 15.9909 5.64509 15.9914C6.27302 15.9898 6.89424 15.8621 7.47194 15.616C8.04964 15.3699 8.57208 15.0104 9.00831 14.5587C9.44454 14.107 9.78569 13.5724 10.0115 12.9865C10.2374 12.4006 10.3434 11.7753 10.3232 11.1477L14.1107 14.8133C14.2049 14.9044 14.3254 14.9636 14.455 14.9826C14.5847 15.0015 14.7171 14.9792 14.8334 14.9188C15.781 14.4271 16.5325 13.6266 16.9634 12.6498C17.3942 11.6729 17.4787 10.5783 17.2029 9.54689ZM7.74978 9.00001C7.74978 8.75279 7.82309 8.51111 7.96044 8.30555C8.09779 8.09999 8.29302 7.93977 8.52142 7.84516C8.74983 7.75055 9.00116 7.7258 9.24364 7.77403C9.48612 7.82226 9.70884 7.94131 9.88366 8.11613C10.0585 8.29095 10.1775 8.51367 10.2258 8.75615C10.274 8.99863 10.2492 9.24996 10.1546 9.47837C10.06 9.70677 9.8998 9.902 9.69424 10.0393C9.48868 10.1767 9.247 10.25 8.99978 10.25C8.66826 10.25 8.35031 10.1183 8.11589 9.8839C7.88147 9.64948 7.74978 9.33153 7.74978 9.00001ZM5.24978 4.93751C5.24958 4.35829 5.39575 3.78841 5.67471 3.28079C5.95368 2.77316 6.35639 2.34426 6.84545 2.03391C7.33451 1.72356 7.89407 1.54183 8.47216 1.50558C9.05025 1.46933 9.62812 1.57975 10.1521 1.82658L8.98181 6.50001C8.534 6.50337 8.09532 6.62695 7.71161 6.85784C7.32791 7.08872 7.01326 7.41843 6.80056 7.81251C6.32314 7.5003 5.93124 7.07381 5.66043 6.57175C5.38962 6.06969 5.24847 5.50795 5.24978 4.93751ZM7.35915 14.2789C6.85765 14.5687 6.29105 14.727 5.71197 14.7393C5.1329 14.7515 4.56012 14.6172 4.04683 14.3489C3.53353 14.0805 3.09636 13.6869 2.77591 13.2044C2.45546 12.7219 2.26212 12.1663 2.21384 11.5891L6.84743 10.2656C7.06773 10.6409 7.38218 10.9522 7.75966 11.1687C8.13715 11.3852 8.56461 11.4994 8.99978 11.5H9.07087C9.03942 12.0691 8.8664 12.6213 8.56749 13.1066C8.26858 13.5919 7.85324 13.9948 7.35915 14.2789ZM15.6537 12.482C15.4008 12.9207 15.054 13.2979 14.6381 13.5867L11.1756 10.236C11.3971 9.84678 11.5098 9.40511 11.5017 8.95736C11.4936 8.50961 11.365 8.07231 11.1295 7.69142C11.7905 7.3577 12.5417 7.24638 13.2711 7.37403C14.0006 7.50169 14.6693 7.86149 15.1778 8.39988C15.6862 8.93827 16.0072 9.62646 16.093 10.362C16.1787 11.0976 16.0246 11.8411 15.6537 12.482Z" fill="#212529"/>
</svg>
