<svg width="14" height="8" viewBox="0 0 14 8" fill="none" xmlns="http://www.w3.org/2000/svg">
<path d="M11.5 4.23193C11.5 4.36454 11.4473 4.49172 11.3536 4.58549C11.2598 4.67926 11.1326 4.73193 11 4.73193H3C2.86739 4.73193 2.74021 4.67926 2.64645 4.58549C2.55268 4.49172 2.5 4.36454 2.5 4.23193C2.5 4.09933 2.55268 3.97215 2.64645 3.87838C2.74021 3.78461 2.86739 3.73193 3 3.73193H11C11.1326 3.73193 11.2598 3.78461 11.3536 3.87838C11.4473 3.97215 11.5 4.09933 11.5 4.23193ZM13.5 0.731934H0.5C0.367392 0.731934 0.240215 0.784612 0.146447 0.87838C0.0526784 0.972148 0 1.09933 0 1.23193C0 1.36454 0.0526784 1.49172 0.146447 1.58549C0.240215 1.67926 0.367392 1.73193 0.5 1.73193H13.5C13.6326 1.73193 13.7598 1.67926 13.8536 1.58549C13.9473 1.49172 14 1.36454 14 1.23193C14 1.09933 13.9473 0.972148 13.8536 0.87838C13.7598 0.784612 13.6326 0.731934 13.5 0.731934ZM8.5 6.73193H5.5C5.36739 6.73193 5.24021 6.78461 5.14645 6.87838C5.05268 6.97215 5 7.09933 5 7.23193C5 7.36454 5.05268 7.49172 5.14645 7.58549C5.24021 7.67926 5.36739 7.73193 5.5 7.73193H8.5C8.63261 7.73193 8.75979 7.67926 8.85355 7.58549C8.94732 7.49172 9 7.36454 9 7.23193C9 7.09933 8.94732 6.97215 8.85355 6.87838C8.75979 6.78461 8.63261 6.73193 8.5 6.73193Z" fill="white"/>
</svg>
