<svg width="18" height="16" viewBox="0 0 18 16" fill="none" xmlns="http://www.w3.org/2000/svg">
<path d="M1.66439 1.79531C1.58307 1.70581 1.52945 1.59464 1.51005 1.47527C1.49065 1.35591 1.50629 1.23348 1.55508 1.12283C1.60388 1.01218 1.68372 0.918057 1.78494 0.85188C1.88616 0.785704 2.0044 0.750314 2.12533 0.75H15.8753C15.9964 0.750012 16.1149 0.785184 16.2163 0.851243C16.3178 0.917302 16.3978 1.0114 16.4468 1.12212C16.4958 1.23283 16.5116 1.35538 16.4922 1.47489C16.4729 1.5944 16.4192 1.70571 16.3378 1.79531L10.8753 7.625V12.207C10.8754 12.31 10.85 12.4113 10.8015 12.5021C10.753 12.5928 10.6828 12.6702 10.5972 12.7273L8.09721 14.3937C8.00317 14.4565 7.89388 14.4926 7.78097 14.4981C7.66806 14.5036 7.55576 14.4784 7.45603 14.4252C7.3563 14.372 7.27288 14.2927 7.21464 14.1958C7.15641 14.0989 7.12554 13.988 7.12533 13.875V7.625L1.66439 1.79531Z" stroke="white" stroke-width="1.25" stroke-linecap="round" stroke-linejoin="round"/>
</svg>
