<svg width="15" height="17" viewBox="0 0 15 17" fill="none" xmlns="http://www.w3.org/2000/svg">
<path d="M3.62501 4.87501V1.12501C3.62501 0.959248 3.69085 0.800277 3.80806 0.683067C3.92527 0.565857 4.08425 0.500009 4.25001 0.500009C4.41577 0.500009 4.57474 0.565857 4.69195 0.683067C4.80916 0.800277 4.87501 0.959248 4.87501 1.12501V4.87501C4.87501 5.04077 4.80916 5.19974 4.69195 5.31695C4.57474 5.43416 4.41577 5.50001 4.25001 5.50001C4.08425 5.50001 3.92527 5.43416 3.80806 5.31695C3.69085 5.19974 3.62501 5.04077 3.62501 4.87501ZM14.875 1.12501V15.5C14.875 15.6658 14.8092 15.8247 14.6919 15.9419C14.5747 16.0592 14.4158 16.125 14.25 16.125C14.0842 16.125 13.9253 16.0592 13.8081 15.9419C13.6909 15.8247 13.625 15.6658 13.625 15.5V11.75H9.87501C9.70925 11.75 9.55027 11.6842 9.43306 11.5669C9.31585 11.4497 9.25001 11.2908 9.25001 11.125C9.27903 9.62788 9.46813 8.13816 9.81407 6.68126C10.5781 3.51798 12.0266 1.39766 14.0039 0.55079C14.099 0.510079 14.2026 0.493582 14.3056 0.502777C14.4086 0.511972 14.5077 0.546572 14.594 0.603476C14.6803 0.660381 14.7512 0.737812 14.8002 0.828831C14.8493 0.919851 14.875 1.02162 14.875 1.12501ZM13.625 2.21095C11.1117 4.13048 10.6195 8.80626 10.5234 10.5H13.625V2.21095ZM7.36641 1.02266C7.35417 0.940598 7.32571 0.86179 7.28269 0.790838C7.23968 0.719885 7.18296 0.658209 7.11586 0.609406C7.04875 0.560603 6.9726 0.525651 6.89184 0.506587C6.81109 0.487524 6.72735 0.484731 6.6455 0.498372C6.56366 0.512013 6.48535 0.541815 6.41514 0.586038C6.34493 0.630262 6.28423 0.688023 6.23658 0.755952C6.18893 0.82388 6.15529 0.900617 6.13761 0.981686C6.11992 1.06275 6.11856 1.14653 6.1336 1.22813L6.75001 4.92423C6.75001 5.58727 6.48661 6.22315 6.01777 6.69199C5.54893 7.16084 4.91305 7.42423 4.25001 7.42423C3.58696 7.42423 2.95108 7.16084 2.48224 6.69199C2.0134 6.22315 1.75001 5.58727 1.75001 4.92423L2.36563 1.22813C2.38067 1.14653 2.37931 1.06275 2.36162 0.981686C2.34394 0.900617 2.3103 0.82388 2.26265 0.755952C2.215 0.688023 2.1543 0.630262 2.08409 0.586038C2.01389 0.541815 1.93558 0.512013 1.85373 0.498372C1.77188 0.484731 1.68814 0.487524 1.60739 0.506587C1.52663 0.525651 1.45048 0.560603 1.38338 0.609406C1.31627 0.658209 1.25955 0.719885 1.21654 0.790838C1.17352 0.86179 1.14506 0.940598 1.13282 1.02266L0.507818 4.77267C0.502471 4.80651 0.499858 4.84074 0.500006 4.87501C0.501255 5.7608 0.815567 6.61764 1.3874 7.29412C1.95924 7.9706 2.75179 8.42318 3.62501 8.57188V15.5C3.62501 15.6658 3.69085 15.8247 3.80806 15.9419C3.92527 16.0592 4.08425 16.125 4.25001 16.125C4.41577 16.125 4.57474 16.0592 4.69195 15.9419C4.80916 15.8247 4.87501 15.6658 4.87501 15.5V8.57188C5.74822 8.42318 6.54077 7.9706 7.11261 7.29412C7.68445 6.61764 7.99876 5.7608 8.00001 4.87501C7.9999 4.84072 7.99702 4.80649 7.99141 4.77267L7.36641 1.02266Z" fill="#212529"/>
</svg>
