<svg width="32" height="21" viewBox="0 0 32 21" fill="none" xmlns="http://www.w3.org/2000/svg">
<path d="M25.0002 2.73193V18.7319C25.0002 19.2624 24.7895 19.7711 24.4145 20.1461C24.0394 20.5212 23.5307 20.7319 23.0002 20.7319H21.0002C20.4698 20.7319 19.9611 20.5212 19.586 20.1461C19.211 19.7711 19.0002 19.2624 19.0002 18.7319V11.7319H13.0002V18.7319C13.0002 19.2624 12.7895 19.7711 12.4145 20.1461C12.0394 20.5212 11.5307 20.7319 11.0002 20.7319H9.00024C8.46981 20.7319 7.9611 20.5212 7.58603 20.1461C7.21096 19.7711 7.00024 19.2624 7.00024 18.7319V2.73193C7.00024 2.2015 7.21096 1.69279 7.58603 1.31772C7.9611 0.942647 8.46981 0.731934 9.00024 0.731934H11.0002C11.5307 0.731934 12.0394 0.942647 12.4145 1.31772C12.7895 1.69279 13.0002 2.2015 13.0002 2.73193V9.73193H19.0002V2.73193C19.0002 2.2015 19.211 1.69279 19.586 1.31772C19.9611 0.942647 20.4698 0.731934 21.0002 0.731934H23.0002C23.5307 0.731934 24.0394 0.942647 24.4145 1.31772C24.7895 1.69279 25.0002 2.2015 25.0002 2.73193ZM4.50024 3.73193H4.00024C3.46981 3.73193 2.9611 3.94265 2.58603 4.31772C2.21096 4.69279 2.00024 5.2015 2.00024 5.73193V9.73193H1.03399C0.775577 9.72812 0.5253 9.8223 0.333511 9.99554C0.141721 10.1688 0.0226482 10.4082 0.000244057 10.6657C-0.00883835 10.8025 0.0103009 10.9397 0.0564729 11.0687C0.102645 11.1978 0.174864 11.316 0.268643 11.416C0.362423 11.516 0.47576 11.5957 0.601616 11.65C0.727471 11.7043 0.863156 11.7322 1.00024 11.7319H2.00024V15.7319C2.00024 16.2624 2.21096 16.7711 2.58603 17.1461C2.9611 17.5212 3.46981 17.7319 4.00024 17.7319H4.50024C4.63285 17.7319 4.76003 17.6793 4.8538 17.5855C4.94757 17.4917 5.00024 17.3645 5.00024 17.2319V4.23193C5.00024 4.09933 4.94757 3.97215 4.8538 3.87838C4.76003 3.78461 4.63285 3.73193 4.50024 3.73193ZM32.0002 10.6657C31.9779 10.4086 31.8592 10.1696 31.6679 9.9964C31.4766 9.82322 31.227 9.72875 30.969 9.73193H30.0002V5.73193C30.0002 5.2015 29.7895 4.69279 29.4145 4.31772C29.0394 3.94265 28.5307 3.73193 28.0002 3.73193H27.5002C27.3676 3.73193 27.2405 3.78461 27.1467 3.87838C27.0529 3.97215 27.0002 4.09933 27.0002 4.23193V17.2319C27.0002 17.3645 27.0529 17.4917 27.1467 17.5855C27.2405 17.6793 27.3676 17.7319 27.5002 17.7319H28.0002C28.5307 17.7319 29.0394 17.5212 29.4145 17.1461C29.7895 16.7711 30.0002 16.2624 30.0002 15.7319V11.7319H31.0002C31.1373 11.7322 31.273 11.7043 31.3989 11.65C31.5247 11.5957 31.6381 11.516 31.7318 11.416C31.8256 11.316 31.8978 11.1978 31.944 11.0687C31.9902 10.9397 32.0093 10.8025 32.0002 10.6657Z" fill="#212529"/>
</svg>
