<svg width="18" height="16" viewBox="0 0 18 16" fill="none" xmlns="http://www.w3.org/2000/svg">
<path d="M14.7727 3.27031C14.025 2.51514 13.1357 1.91486 12.1558 1.50383C11.1758 1.09281 10.1244 0.879121 9.06172 0.875H9C6.84512 0.875 4.77849 1.73102 3.25476 3.25476C1.73102 4.77849 0.875 6.84512 0.875 9V13.375C0.875 13.8723 1.07254 14.3492 1.42417 14.7008C1.77581 15.0525 2.25272 15.25 2.75 15.25H4C4.49728 15.25 4.97419 15.0525 5.32583 14.7008C5.67746 14.3492 5.875 13.8723 5.875 13.375V10.25C5.875 9.75272 5.67746 9.27581 5.32583 8.92417C4.97419 8.57254 4.49728 8.375 4 8.375H2.15313C2.30905 6.66688 3.09785 5.07873 4.36466 3.92236C5.63147 2.76599 7.28477 2.12491 9 2.125H9.05234C10.7604 2.13222 12.4042 2.77711 13.6616 3.93327C14.9189 5.08944 15.6991 6.67351 15.8492 8.375H14C13.5027 8.375 13.0258 8.57254 12.6742 8.92417C12.3225 9.27581 12.125 9.75272 12.125 10.25V13.375C12.125 13.8723 12.3225 14.3492 12.6742 14.7008C13.0258 15.0525 13.5027 15.25 14 15.25H15.25C15.7473 15.25 16.2242 15.0525 16.5758 14.7008C16.9275 14.3492 17.125 13.8723 17.125 13.375V9C17.1291 7.93717 16.9234 6.88398 16.5197 5.90077C16.1161 4.91757 15.5224 4.02368 14.7727 3.27031ZM4 9.625C4.16576 9.625 4.32473 9.69085 4.44194 9.80806C4.55915 9.92527 4.625 10.0842 4.625 10.25V13.375C4.625 13.5408 4.55915 13.6997 4.44194 13.8169C4.32473 13.9342 4.16576 14 4 14H2.75C2.58424 14 2.42527 13.9342 2.30806 13.8169C2.19085 13.6997 2.125 13.5408 2.125 13.375V9.625H4ZM15.875 13.375C15.875 13.5408 15.8092 13.6997 15.6919 13.8169C15.5747 13.9342 15.4158 14 15.25 14H14C13.8342 14 13.6753 13.9342 13.5581 13.8169C13.4408 13.6997 13.375 13.5408 13.375 13.375V10.25C13.375 10.0842 13.4408 9.92527 13.5581 9.80806C13.6753 9.69085 13.8342 9.625 14 9.625H15.875V13.375Z" fill="#212529"/>
</svg>
