<svg width="25" height="25" viewBox="0 0 25 25" fill="none" xmlns="http://www.w3.org/2000/svg">
<path d="M9.5 24V16H15.5V24H23.5V12C23.5001 11.8686 23.4743 11.7385 23.4241 11.6171C23.3739 11.4957 23.3003 11.3854 23.2075 11.2925L13.2075 1.29249C13.1146 1.19952 13.0043 1.12576 12.8829 1.07543C12.7615 1.02511 12.6314 0.999207 12.5 0.999207C12.3686 0.999207 12.2385 1.02511 12.1171 1.07543C11.9957 1.12576 11.8854 1.19952 11.7925 1.29249L1.7925 11.2925C1.69967 11.3854 1.62605 11.4957 1.57586 11.6171C1.52568 11.7385 1.4999 11.8686 1.5 12V24H9.5Z" stroke="#7BBC42" stroke-width="2" stroke-linecap="round" stroke-linejoin="round"/>
</svg>
