<svg width="14" height="18" viewBox="0 0 14 18" fill="none" xmlns="http://www.w3.org/2000/svg">
<path d="M8.20156 0.394527C8.12452 0.33047 8.0332 0.285876 7.93531 0.264505C7.83741 0.243133 7.73582 0.24561 7.63908 0.271728C7.54235 0.297845 7.45331 0.346837 7.37948 0.414573C7.30565 0.482309 7.24918 0.566803 7.21484 0.660933L5.49609 5.38046L3.60859 3.55156C3.54521 3.49008 3.46951 3.44273 3.38649 3.41263C3.30347 3.38253 3.21502 3.37036 3.12696 3.37693C3.0389 3.3835 2.95323 3.40866 2.87559 3.45074C2.79796 3.49283 2.73013 3.55088 2.67656 3.62109C0.984375 5.83828 0.125 8.06875 0.125 10.25C0.125 12.0734 0.849328 13.822 2.13864 15.1114C3.42795 16.4007 5.17664 17.125 7 17.125C8.82336 17.125 10.572 16.4007 11.8614 15.1114C13.1507 13.822 13.875 12.0734 13.875 10.25C13.875 5.60546 9.90703 1.8125 8.20156 0.394527ZM7 15.875C5.50867 15.8733 4.07889 15.2802 3.02435 14.2256C1.96982 13.1711 1.37665 11.7413 1.375 10.25C1.375 8.53125 2.00703 6.75078 3.25469 4.95L5.31484 6.94843C5.38966 7.02109 5.48148 7.07388 5.58192 7.10197C5.68236 7.13007 5.78823 7.13258 5.88989 7.10928C5.99155 7.08598 6.08577 7.03761 6.16395 6.96858C6.24213 6.89955 6.30179 6.81205 6.3375 6.71406L8.07734 1.94296C9.82891 3.5375 12.625 6.64921 12.625 10.25C12.6233 11.7413 12.0302 13.1711 10.9756 14.2256C9.92111 15.2802 8.49133 15.8733 7 15.875Z" fill="#212529"/>
</svg>
