<svg width="301" height="164" viewBox="0 0 301 164" fill="none" xmlns="http://www.w3.org/2000/svg">
    <path d="M182.899 157.36H115.266V34.5601L149.083 19.3833L182.899 34.5601V157.36Z" fill="#EBD5A5"/>
    <path d="M182.899 157.36V157.413H182.953V157.36H182.899ZM115.266 157.36H115.212V157.413H115.266V157.36ZM115.266 34.5601L115.244 34.5114L115.212 34.5255V34.5601H115.266ZM149.083 19.3833L149.105 19.3346L149.083 19.3248L149.061 19.3346L149.083 19.3833ZM182.899 34.5601H182.953V34.5255L182.921 34.5114L182.899 34.5601ZM182.899 157.36V157.306H115.266V157.36V157.413H182.899V157.36ZM115.266 157.36H115.319V34.5601H115.266H115.212V157.36H115.266ZM115.266 34.5601L115.287 34.6088L149.105 19.432L149.083 19.3833L149.061 19.3346L115.244 34.5114L115.266 34.5601ZM149.083 19.3833L149.061 19.432L182.878 34.6088L182.899 34.5601L182.921 34.5114L149.105 19.3346L149.083 19.3833ZM182.899 34.5601H182.846V157.36H182.899H182.953V34.5601H182.899Z" fill="#321E16"/>
    <path d="M182.898 34.5604H217.94L217.94 157.365H182.898L182.898 34.5604Z" fill="#C0A678" stroke="#321E16" stroke-width="0.10675"/>
    <path d="M186.28 34.2572V36.1654L149.082 19.4701L111.883 36.1654V34.2572L149.082 17.5619L186.28 34.2572Z" fill="#88574C"/>
    <path d="M186.28 34.2572H186.334V34.2227L186.302 34.2085L186.28 34.2572ZM186.28 36.1654L186.258 36.2141L186.334 36.2479V36.1654H186.28ZM149.082 19.4701L149.104 19.4214L149.082 19.4116L149.06 19.4214L149.082 19.4701ZM111.883 36.1654H111.829V36.2479L111.905 36.2141L111.883 36.1654ZM111.883 34.2572L111.861 34.2085L111.829 34.2227V34.2572H111.883ZM149.082 17.5619L149.104 17.5132L149.082 17.5034L149.06 17.5132L149.082 17.5619ZM186.28 34.2572H186.227V36.1654H186.28H186.334V34.2572H186.28ZM186.28 36.1654L186.302 36.1167L149.104 19.4214L149.082 19.4701L149.06 19.5188L186.258 36.2141L186.28 36.1654ZM149.082 19.4701L149.06 19.4214L111.861 36.1167L111.883 36.1654L111.905 36.2141L149.104 19.5188L149.082 19.4701ZM111.883 36.1654H111.936V34.2572H111.883H111.829V36.1654H111.883ZM111.883 34.2572L111.905 34.3059L149.104 17.6106L149.082 17.5619L149.06 17.5132L111.861 34.2085L111.883 34.2572ZM149.082 17.5619L149.06 17.6106L186.258 34.3059L186.28 34.2572L186.302 34.2085L149.104 17.5132L149.082 17.5619Z" fill="#321E16"/>
    <path d="M186.281 17.5619L223.48 34.2567V36.1653L186.281 19.4705L169.548 26.8049L167.682 25.9093L186.281 17.5619Z" fill="#88574C" stroke="#321E16" stroke-width="0.10675"/>
    <path d="M186.256 36.2163V34.2456L223.491 34.2589V36.2163H186.256Z" fill="#6E463D" stroke="#321E16" stroke-width="0.10675"/>
    <path d="M186.268 17.5435H149.182L186.268 34.231H223.436L186.268 17.5435Z" fill="#67413B" stroke="#321E16" stroke-width="0.10675"/>
    <rect x="123.852" y="42.1012" width="17.1867" height="31.662" fill="#EEF0EE"/>
    <rect x="123.852" y="42.1012" width="17.1867" height="31.662" stroke="#321E16" stroke-width="0.10675"/>
    <rect x="132.456" y="43.126" width="30.6372" height="7.57925" transform="rotate(90 132.456 43.126)" fill="#B26F5B" stroke="#321E16" stroke-width="0.10675"/>
    <rect x="140.014" y="43.126" width="30.6372" height="7.57925" transform="rotate(90 140.014 43.126)" fill="#B26F5B" stroke="#321E16" stroke-width="0.10675"/>
    <rect x="153.956" y="42.1012" width="17.1867" height="31.662" fill="#EEF0EE"/>
    <rect x="153.956" y="42.1012" width="17.1867" height="31.662" stroke="#321E16" stroke-width="0.10675"/>
    <rect x="162.56" y="43.126" width="30.6372" height="7.57925" transform="rotate(90 162.56 43.126)" fill="#B26F5B" stroke="#321E16" stroke-width="0.10675"/>
    <rect x="170.118" y="43.126" width="30.6372" height="7.57925" transform="rotate(90 170.118 43.126)" fill="#B26F5B" stroke="#321E16" stroke-width="0.10675"/>
    <rect x="155.663" y="95.1665" width="9.62885" height="31.662" fill="#EEF0EE"/>
    <rect x="155.663" y="95.1665" width="9.62885" height="31.662" stroke="#321E16" stroke-width="0.10675"/>
    <rect x="164.267" y="96.1913" width="30.6372" height="7.57925" transform="rotate(90 164.267 96.1913)" fill="#B26F5B" stroke="#321E16" stroke-width="0.10675"/>
    <rect x="118.653" y="58.0606" width="59.6403" height="0.996649" fill="#604343" stroke="#321E16" stroke-width="0.10675"/>
    <rect x="142.419" y="61.809" width="12.0367" height="0.996649" transform="rotate(90 142.419 61.809)" fill="#604343" stroke="#321E16" stroke-width="0.10675"/>
    <rect x="172.292" y="61.809" width="12.0367" height="0.996649" transform="rotate(90 172.292 61.809)" fill="#604343" stroke="#321E16" stroke-width="0.10675"/>
    <rect x="134.035" y="61.809" width="12.0367" height="0.996649" transform="rotate(90 134.035 61.809)" fill="#604343" stroke="#321E16" stroke-width="0.10675"/>
    <rect x="163.908" y="61.809" width="12.0367" height="0.996649" transform="rotate(90 163.908 61.809)" fill="#604343" stroke="#321E16" stroke-width="0.10675"/>
    <rect x="125.648" y="61.809" width="12.0367" height="0.996649" transform="rotate(90 125.648 61.809)" fill="#604343" stroke="#321E16" stroke-width="0.10675"/>
    <rect x="155.521" y="61.809" width="12.0367" height="0.996649" transform="rotate(90 155.521 61.809)" fill="#604343" stroke="#321E16" stroke-width="0.10675"/>
    <rect x="118.653" y="61.809" width="59.6403" height="0.996649" fill="#604343" stroke="#321E16" stroke-width="0.10675"/>
    <rect x="148.97" y="58.0606" width="15.7855" height="0.996649" transform="rotate(90 148.97 58.0606)" fill="#604343" stroke="#321E16" stroke-width="0.10675"/>
    <rect x="118.653" y="72.849" width="59.6403" height="0.996649" fill="#604343" stroke="#321E16" stroke-width="0.10675"/>
    <rect x="119.097" y="58.0606" width="15.7855" height="0.996649" transform="rotate(90 119.097 58.0606)" fill="#604343" stroke="#321E16" stroke-width="0.10675"/>
    <rect x="178.843" y="58.0606" width="15.7855" height="0.996649" transform="rotate(90 178.843 58.0606)" fill="#604343" stroke="#321E16" stroke-width="0.10675"/>
    <rect x="194.85" y="55.0492" width="20.0476" height="15.6069" fill="#EEF0EE"/>
    <rect x="194.85" y="55.0492" width="20.0476" height="15.6069" stroke="#321E16" stroke-width="0.10675"/>
    <rect x="204.308" y="56.074" width="13.5573" height="8.43325" transform="rotate(90 204.308 56.074)" fill="#38727E" stroke="#321E16" stroke-width="0.10675"/>
    <rect x="213.873" y="56.074" width="13.5573" height="8.43325" transform="rotate(90 213.873 56.074)" fill="#38727E" stroke="#321E16" stroke-width="0.10675"/>
    <rect x="190.413" y="69.6723" width="34.0532" height="5.87125" fill="#F2DEAE" stroke="#321E16" stroke-width="0.10675"/>
    <rect x="190.413" y="69.6723" width="8.5837" height="5.87125" fill="#604343" stroke="#321E16" stroke-width="0.10675"/>
    <path d="M340.372 88.2711H296.893V17.2692L318.633 2.09241L340.372 17.2692V88.2711Z" fill="#A6A6A7"/>
    <path d="M248.227 17.269H296.892V88.2609H248.227V17.269Z" fill="#A6A6A7"/>
    <path d="M248.227 17.269H292.889V88.2609H248.227V17.269Z" fill="#DEDEDE" stroke="#321E16" stroke-width="0.10675"/>
    <path d="M294.686 17.3756H294.685V19.2848L318.598 2.58948L342.512 19.2848V17.3756H342.511L318.598 0.681274L294.686 17.3756Z" fill="#663B36"/>
    <path d="M294.686 17.3756L294.716 17.4194L294.702 17.429H294.686V17.3756ZM294.685 17.3756H294.631V17.3222H294.685V17.3756ZM294.685 19.2848L294.715 19.3286L294.631 19.3872V19.2848H294.685ZM318.598 2.58948L318.567 2.54571L318.598 2.52438L318.628 2.54571L318.598 2.58948ZM342.512 19.2848H342.565V19.3871L342.481 19.3286L342.512 19.2848ZM342.512 17.3756V17.3222H342.565V17.3756H342.512ZM342.511 17.3756V17.429H342.494L342.48 17.4194L342.511 17.3756ZM318.598 0.681274L318.567 0.63751L318.598 0.616179L318.628 0.637509L318.598 0.681274ZM294.686 17.3756V17.429H294.685V17.3756V17.3222H294.686V17.3756ZM294.685 17.3756H294.738V19.2848H294.685H294.631V17.3756H294.685ZM294.685 19.2848L294.654 19.241L318.567 2.54571L318.598 2.58948L318.628 2.63324L294.715 19.3286L294.685 19.2848ZM318.598 2.58948L318.628 2.54571L342.542 19.241L342.512 19.2848L342.481 19.3286L318.567 2.63324L318.598 2.58948ZM342.512 19.2848H342.458V17.3756H342.512H342.565V19.2848H342.512ZM342.512 17.3756V17.429H342.511V17.3756V17.3222H342.512V17.3756ZM342.511 17.3756L342.48 17.4194L318.567 0.725039L318.598 0.681274L318.628 0.637509L342.541 17.3318L342.511 17.3756ZM318.598 0.681274L318.628 0.725039L294.716 17.4194L294.686 17.3756L294.655 17.3318L318.567 0.63751L318.598 0.681274Z" fill="#321E16"/>
    <path d="M245.922 19.2846V17.3138L294.735 17.3271V19.2846L245.922 19.2846Z" fill="#6E463D" stroke="#321E16" stroke-width="0.10675"/>
    <path d="M269.926 0.662842H318.533L294.692 17.3504H246.032L269.926 0.662842Z" fill="#85524D" stroke="#321E16" stroke-width="0.10675"/>
    <rect x="254.217" y="23.7055" width="32.682" height="4.12844" fill="#C07D5F" stroke="#321E16" stroke-width="0.10675"/>
    <rect x="254.217" y="27.8083" width="32.682" height="4.12844" fill="#C07D5F" stroke="#321E16" stroke-width="0.10675"/>
    <rect x="254.217" y="31.9109" width="32.682" height="4.12844" fill="#C07D5F" stroke="#321E16" stroke-width="0.10675"/>
    <rect x="254.217" y="36.0139" width="32.682" height="4.12844" fill="#C07D5F" stroke="#321E16" stroke-width="0.10675"/>
    <mask id="path-45-inside-1_195_15658" fill="white">
        <path d="M254.164 40.0634H286.953V44.2985H254.164V40.0634Z"/>
    </mask>
    <path d="M254.164 40.0634H286.953V44.2985H254.164V40.0634Z" fill="#C07D5F"/>
    <path d="M254.164 40.0634V39.9566H254.057V40.0634H254.164ZM286.953 40.0634H287.06V39.9566H286.953V40.0634ZM254.164 40.0634V40.1701H286.953V40.0634V39.9566H254.164V40.0634ZM286.953 40.0634H286.846V44.2985H286.953H287.06V40.0634H286.953ZM254.164 44.2985H254.271V40.0634H254.164H254.057V44.2985H254.164Z" fill="#321E16" mask="url(#path-45-inside-1_195_15658)"/>
    <rect x="245.616" y="41.3631" width="34.0532" height="5.87125" fill="#DCDCDD" stroke="#321E16" stroke-width="0.10675"/>
    <rect x="279.647" y="41.3631" width="8.5837" height="5.87125" fill="#A4A4A5" stroke="#321E16" stroke-width="0.10675"/>
    <rect x="267.255" y="57.7932" width="20.0476" height="21.8081" fill="#B36F5F"/>
    <rect x="267.255" y="57.7932" width="20.0476" height="21.8081" stroke="#321E16" stroke-width="0.10675"/>
    <rect x="276.713" y="58.8181" width="19.7585" height="8.43325" transform="rotate(90 276.713 58.8181)" fill="#38727E" stroke="#321E16" stroke-width="0.10675"/>
    <rect x="286.278" y="58.8181" width="19.7585" height="8.43325" transform="rotate(90 286.278 58.8181)" fill="#38727E" stroke="#321E16" stroke-width="0.10675"/>
    <rect x="252.82" y="51.6815" width="8.35853" height="9.87925" fill="#EEF0EE"/>
    <rect x="252.82" y="51.6815" width="8.35853" height="9.87925" stroke="#321E16" stroke-width="0.053375"/>
    <rect x="257.01" y="51.708" width="9.82588" height="4.16325" transform="rotate(90 257.01 51.708)" fill="#38727E" stroke="#321E16" stroke-width="0.10675"/>
    <rect x="261.151" y="51.708" width="9.82588" height="4.16325" transform="rotate(90 261.151 51.708)" fill="#38727E" stroke="#321E16" stroke-width="0.10675"/>
    <g clip-path="url(#clip0_195_15658)">
        <rect x="306.41" y="126.455" width="7.97306" height="0.613" transform="rotate(-157.216 306.41 126.455)" fill="#EEF0EE" stroke="#321E16" stroke-width="0.1226"/>
        <rect x="306.41" y="116.596" width="7.97306" height="0.613" transform="rotate(-157.216 306.41 116.596)" fill="#EEF0EE" stroke="#321E16" stroke-width="0.1226"/>
        <path d="M305.278 159.97H261.799V88.9683L283.538 73.7915L305.278 88.9683V159.97Z" fill="#A6A6A7"/>
        <path d="M213.133 88.9688H261.798V159.961H213.133V88.9688Z" fill="#A6A6A7"/>
        <path d="M213.133 88.9688H257.795V159.961H213.133V88.9688Z" fill="#DEDEDE" stroke="#321E16" stroke-width="0.10675"/>
        <path d="M259.591 89.0751H259.59V90.9843H307.417V89.0751H307.417L283.503 72.3807L259.591 89.0751ZM307.417 90.9833H259.59L283.503 74.2889L307.417 90.9833Z" fill="#663B36"/>
        <path d="M259.591 89.0751L259.622 89.1188L259.608 89.1284H259.591V89.0751ZM259.59 89.0751H259.537V89.0217H259.59V89.0751ZM259.59 90.9843V91.0376H259.537V90.9843H259.59ZM307.417 90.9843H307.471V91.0376H307.417V90.9843ZM307.417 89.0751V89.0217H307.471V89.0751H307.417ZM307.417 89.0751V89.1284H307.4L307.386 89.1188L307.417 89.0751ZM283.503 72.3807L283.473 72.337L283.503 72.3156L283.534 72.337L283.503 72.3807ZM307.417 90.9833L307.448 90.9395L307.587 91.0367H307.417V90.9833ZM259.59 90.9833V91.0367H259.421L259.56 90.9395L259.59 90.9833ZM283.503 74.2889L283.473 74.2452L283.503 74.2238L283.534 74.2452L283.503 74.2889ZM259.591 89.0751V89.1284H259.59V89.0751V89.0217H259.591V89.0751ZM259.59 89.0751H259.644V90.9843H259.59H259.537V89.0751H259.59ZM259.59 90.9843V90.9309H307.417V90.9843V91.0376H259.59V90.9843ZM307.417 90.9843H307.364V89.0751H307.417H307.471V90.9843H307.417ZM307.417 89.0751V89.1284H307.417V89.0751V89.0217H307.417V89.0751ZM307.417 89.0751L307.386 89.1188L283.473 72.4245L283.503 72.3807L283.534 72.337L307.447 89.0313L307.417 89.0751ZM283.503 72.3807L283.534 72.4245L259.622 89.1188L259.591 89.0751L259.561 89.0313L283.473 72.337L283.503 72.3807ZM307.417 90.9833V91.0367H259.59V90.9833V90.9299H307.417V90.9833ZM259.59 90.9833L259.56 90.9395L283.473 74.2452L283.503 74.2889L283.534 74.3327L259.621 91.027L259.59 90.9833ZM283.503 74.2889L283.534 74.2452L307.448 90.9395L307.417 90.9833L307.387 91.027L283.473 74.3327L283.503 74.2889Z" fill="#321E16"/>
        <path d="M210.828 90.9842V89.0134L259.642 89.0267V90.9842L210.828 90.9842Z" fill="#6E463D" stroke="#321E16" stroke-width="0.10675"/>
        <path d="M234.832 72.3625H283.44L259.598 89.0501H210.939L234.832 72.3625Z" fill="#85524D" stroke="#321E16" stroke-width="0.10675"/>
        <rect x="301.803" y="104.111" width="21.8134" height="30.6214" transform="rotate(90 301.803 104.111)" fill="#EEF0EE" stroke="#321E16" stroke-width="0.1226"/>
        <rect x="285.741" y="105.375" width="20.7884" height="13.5346" transform="rotate(90 285.741 105.375)" fill="#38727E" stroke="#321E16" stroke-width="0.1226"/>
        <rect x="300.761" y="105.375" width="20.7884" height="13.463" transform="rotate(90 300.761 105.375)" fill="#38727E" stroke="#321E16" stroke-width="0.1226"/>
        <rect x="266.673" y="116.059" width="39.7088" height="0.613" fill="#EEF0EE" stroke="#321E16" stroke-width="0.1226"/>
        <rect x="282.467" y="118.559" width="7.97306" height="0.613" transform="rotate(90 282.467 118.559)" fill="#EEF0EE" stroke="#321E16" stroke-width="0.1226"/>
        <rect x="276.876" y="118.559" width="7.97306" height="0.613" transform="rotate(90 276.876 118.559)" fill="#EEF0EE" stroke="#321E16" stroke-width="0.1226"/>
        <rect x="296.791" y="118.559" width="7.97306" height="0.613" transform="rotate(90 296.791 118.559)" fill="#EEF0EE" stroke="#321E16" stroke-width="0.1226"/>
        <rect x="271.285" y="118.559" width="7.97306" height="0.613" transform="rotate(90 271.285 118.559)" fill="#EEF0EE" stroke="#321E16" stroke-width="0.1226"/>
        <rect x="291.201" y="118.559" width="7.97306" height="0.613" transform="rotate(90 291.201 118.559)" fill="#EEF0EE" stroke="#321E16" stroke-width="0.1226"/>
        <rect x="266.673" y="118.559" width="39.7088" height="0.613" fill="#EEF0EE" stroke="#321E16" stroke-width="0.1226"/>
        <rect x="286.834" y="116.059" width="10.4722" height="0.613" transform="rotate(90 286.834 116.059)" fill="#EEF0EE" stroke="#321E16" stroke-width="0.1226"/>
        <rect x="266.673" y="125.919" width="39.7088" height="0.613" fill="#EEF0EE" stroke="#321E16" stroke-width="0.1226"/>
        <rect x="266.918" y="116.059" width="10.4722" height="0.613" transform="rotate(90 266.918 116.059)" fill="#EEF0EE" stroke="#321E16" stroke-width="0.1226"/>
        <rect x="215.989" y="97.3714" width="20.0476" height="21.8081" fill="#EEF0EE"/>
        <rect x="215.989" y="97.3714" width="20.0476" height="21.8081" stroke="#321E16" stroke-width="0.10675"/>
        <rect x="225.447" y="98.3961" width="19.7585" height="8.43325" transform="rotate(90 225.447 98.3961)" fill="#38727E" stroke="#321E16" stroke-width="0.10675"/>
        <rect x="235.012" y="98.3961" width="19.7585" height="8.43325" transform="rotate(90 235.012 98.3961)" fill="#38727E" stroke="#321E16" stroke-width="0.10675"/>
        <rect x="244.527" y="97.3714" width="10.4829" height="21.8081" fill="#EEF0EE"/>
        <rect x="244.527" y="97.3714" width="10.4829" height="21.8081" stroke="#321E16" stroke-width="0.10675"/>
        <rect x="253.985" y="98.396" width="19.7585" height="8.43325" transform="rotate(90 253.985 98.396)" fill="#38727E" stroke="#321E16" stroke-width="0.10675"/>
    </g>
    <path d="M213.133 49.9984C213.133 49.4269 213.596 48.9636 214.168 48.9636C214.739 48.9636 215.202 49.4269 215.202 49.9984V158.282H213.133V49.9984Z" fill="#9A928D" stroke="#321E16" stroke-width="0.10675"/>
    <path d="M255.584 86.2557H304.249V157.248H255.584V86.2557Z" fill="#A6A6A7"/>
    <path d="M255.584 86.2557H300.246V157.248H255.584V86.2557Z" fill="#DCDDDC" stroke="#321E16" stroke-width="0.10675"/>
    <path d="M253.279 88.2709V86.3002L302.093 86.3134V88.2709L253.279 88.2709Z" fill="#6E463D" stroke="#321E16" stroke-width="0.10675"/>
    <path d="M277.283 69.6492H325.891L302.049 86.3367H253.389L277.283 69.6492Z" fill="#85524D" stroke="#321E16" stroke-width="0.10675"/>
    <rect x="286.432" y="94.6586" width="10.4829" height="21.8081" fill="#EEF0EE"/>
    <rect x="286.432" y="94.6586" width="10.4829" height="21.8081" stroke="#321E16" stroke-width="0.10675"/>
    <rect x="295.89" y="95.6836" width="19.7585" height="8.43325" transform="rotate(90 295.89 95.6836)" fill="#38727E" stroke="#321E16" stroke-width="0.10675"/>
    <rect x="286.432" y="124.411" width="10.4829" height="21.8081" fill="#EEF0EE"/>
    <rect x="286.432" y="124.411" width="10.4829" height="21.8081" stroke="#321E16" stroke-width="0.10675"/>
    <rect x="295.89" y="125.436" width="19.7585" height="8.43325" transform="rotate(90 295.89 125.436)" fill="#38727E" stroke="#321E16" stroke-width="0.10675"/>
    <rect x="272.426" y="94.6586" width="10.4829" height="21.8081" fill="#EEF0EE"/>
    <rect x="272.426" y="94.6586" width="10.4829" height="21.8081" stroke="#321E16" stroke-width="0.10675"/>
    <rect x="281.884" y="95.6836" width="19.7585" height="8.43325" transform="rotate(90 281.884 95.6836)" fill="#38727E" stroke="#321E16" stroke-width="0.10675"/>
    <rect x="272.426" y="124.411" width="10.4829" height="21.8081" fill="#EEF0EE"/>
    <rect x="272.426" y="124.411" width="10.4829" height="21.8081" stroke="#321E16" stroke-width="0.10675"/>
    <rect x="281.884" y="125.436" width="19.7585" height="8.43325" transform="rotate(90 281.884 125.436)" fill="#38727E" stroke="#321E16" stroke-width="0.10675"/>
    <rect x="258.421" y="94.6585" width="10.4829" height="21.8081" fill="#EEF0EE"/>
    <rect x="258.421" y="94.6585" width="10.4829" height="21.8081" stroke="#321E16" stroke-width="0.10675"/>
    <rect x="267.879" y="95.6833" width="19.7585" height="8.43325" transform="rotate(90 267.879 95.6833)" fill="#38727E" stroke="#321E16" stroke-width="0.10675"/>
    <rect x="258.42" y="124.411" width="10.4829" height="21.8081" fill="#EEF0EE"/>
    <rect x="258.42" y="124.411" width="10.4829" height="21.8081" stroke="#321E16" stroke-width="0.10675"/>
    <rect x="267.878" y="125.436" width="19.7585" height="8.43325" transform="rotate(90 267.878 125.436)" fill="#38727E" stroke="#321E16" stroke-width="0.10675"/>
    <path d="M347.326 157.385H296.086V123.188L321.706 108.011L347.326 123.188V157.385Z" fill="#EBD5A5"/>
    <path d="M347.326 157.385V157.439H347.38V157.385H347.326ZM296.086 157.385H296.033V157.439H296.086V157.385ZM296.086 123.188L296.059 123.142L296.033 123.158V123.188H296.086ZM321.706 108.011L321.733 107.965L321.706 107.949L321.679 107.965L321.706 108.011ZM347.326 123.188H347.38V123.158L347.353 123.142L347.326 123.188ZM347.326 157.385V157.332H296.086V157.385V157.439H347.326V157.385ZM296.086 157.385H296.139V123.188H296.086H296.033V157.385H296.086ZM296.086 123.188L296.113 123.234L321.733 108.057L321.706 108.011L321.679 107.965L296.059 123.142L296.086 123.188ZM321.706 108.011L321.679 108.057L347.299 123.234L347.326 123.188L347.353 123.142L321.733 107.965L321.706 108.011ZM347.326 123.188H347.273V157.385H347.326H347.38V123.188H347.326Z" fill="#321E16"/>
    <path d="M349.888 122.885V124.792H349.886L321.705 108.098L293.525 124.792H293.523V122.885L321.705 106.19L349.888 122.885Z" fill="#88574C"/>
    <path d="M349.888 122.885H349.941V122.855L349.915 122.839L349.888 122.885ZM349.888 124.792V124.846H349.941V124.792H349.888ZM349.886 124.792L349.859 124.838L349.871 124.846H349.886V124.792ZM321.705 108.098L321.732 108.052L321.705 108.036L321.678 108.052L321.705 108.098ZM293.525 124.792V124.846H293.54L293.553 124.838L293.525 124.792ZM293.523 124.792H293.47V124.846H293.523V124.792ZM293.523 122.885L293.496 122.839L293.47 122.855V122.885H293.523ZM321.705 106.19L321.732 106.144L321.705 106.128L321.678 106.144L321.705 106.19ZM349.888 122.885H349.834V124.792H349.888H349.941V122.885H349.888ZM349.888 124.792V124.739H349.886V124.792V124.846H349.888V124.792ZM349.886 124.792L349.913 124.747L321.732 108.052L321.705 108.098L321.678 108.144L349.859 124.838L349.886 124.792ZM321.705 108.098L321.678 108.052L293.498 124.747L293.525 124.792L293.553 124.838L321.732 108.144L321.705 108.098ZM293.525 124.792V124.739H293.523V124.792V124.846H293.525V124.792ZM293.523 124.792H293.577V122.885H293.523H293.47V124.792H293.523ZM293.523 122.885L293.551 122.931L321.732 106.236L321.705 106.19L321.678 106.144L293.496 122.839L293.523 122.885ZM321.705 106.19L321.678 106.236L349.86 122.931L349.888 122.885L349.915 122.839L321.732 106.144L321.705 106.19Z" fill="#321E16"/>
    <rect x="248.625" y="123.184" width="4.27" height="34.16" fill="#AEAEA4" stroke="#321E16" stroke-width="0.10675"/>
    <rect x="290.828" y="123.184" width="0.972801" height="4.1303" fill="#7D7F6D" stroke="#321E16" stroke-width="0.10675"/>
    <path d="M296.084 157.344H252.895V127.318H291.814V123.184H296.084V157.344Z" fill="#AEAEA4"/>
    <path d="M296.084 157.344V157.398H296.137V157.344H296.084ZM252.895 157.344H252.841V157.398H252.895V157.344ZM252.895 127.318V127.265H252.841V127.318H252.895ZM291.814 127.318V127.371H291.868V127.318H291.814ZM291.814 123.184V123.131H291.761V123.184H291.814ZM296.084 123.184H296.137V123.131H296.084V123.184ZM296.084 157.344V157.291H252.895V157.344V157.398H296.084V157.344ZM252.895 157.344H252.948V127.318H252.895H252.841V157.344H252.895ZM252.895 127.318V127.371H291.814V127.318V127.265H252.895V127.318ZM291.814 127.318H291.868V123.184H291.814H291.761V127.318H291.814ZM291.814 123.184V123.238H296.084V123.184V123.131H291.814V123.184ZM296.084 123.184H296.031V157.344H296.084H296.137V123.184H296.084Z" fill="#321E16"/>
    <rect x="252.895" y="127.315" width="0.959082" height="30.0297" fill="#82827B"/>
    <rect x="77.5898" y="68.5537" width="81.6492" height="1.708" fill="#CB9F81" stroke="#321E16" stroke-width="0.10675"/>
    <rect x="79.4512" y="70.2617" width="68.4417" height="87.0384" fill="#E7C8A9" stroke="#321E16" stroke-width="0.10675"/>
    <rect x="130.844" y="68.5537" width="28.3955" height="1.708" fill="#9F785D" stroke="#321E16" stroke-width="0.10675"/>
    <path fill-rule="evenodd" clip-rule="evenodd" d="M157.532 70.2622H129.137V90.3947H127.428V157.301H155.823V90.3947H157.532V70.2622Z" fill="#C89F7E"/>
    <path d="M129.137 70.2622V70.2088H129.083V70.2622H129.137ZM157.532 70.2622H157.586V70.2088H157.532V70.2622ZM129.137 90.3947V90.4481H129.19V90.3947H129.137ZM127.428 90.3947V90.3413H127.374V90.3947H127.428ZM127.428 157.301H127.374V157.354H127.428V157.301ZM155.823 157.301V157.354H155.877V157.301H155.823ZM155.823 90.3947V90.3413H155.77V90.3947H155.823ZM157.532 90.3947V90.4481H157.586V90.3947H157.532ZM129.137 70.2622V70.3156H157.532V70.2622V70.2088H129.137V70.2622ZM129.137 90.3947H129.19V70.2622H129.137H129.083V90.3947H129.137ZM127.428 90.3947V90.4481H129.137V90.3947V90.3413H127.428V90.3947ZM127.428 157.301H127.481V90.3947H127.428H127.374V157.301H127.428ZM155.823 157.301V157.247H127.428V157.301V157.354H155.823V157.301ZM155.823 90.3947H155.77V157.301H155.823H155.877V90.3947H155.823ZM157.532 90.3947V90.3413H155.823V90.3947V90.4481H157.532V90.3947ZM157.532 70.2622H157.479V90.3947H157.532H157.586V70.2622H157.532Z" fill="#321E16"/>
    <rect x="78.9062" y="111.229" width="77.4947" height="3.416" fill="#CD9C7E" stroke="#321E16" stroke-width="0.10675"/>
    <rect x="125.883" y="111.229" width="30.5182" height="3.416" fill="#A07158" stroke="#321E16" stroke-width="0.10675"/>
    <rect x="102.202" y="125.585" width="14.7529" height="31.662" fill="#EEF0EE"/>
    <rect x="102.202" y="125.585" width="14.7529" height="31.662" stroke="#321E16" stroke-width="0.10675"/>
    <rect x="115.93" y="126.61" width="30.6372" height="12.7032" transform="rotate(90 115.93 126.61)" fill="#B26F5B" stroke="#321E16" stroke-width="0.10675"/>
    <rect x="116.101" y="126.609" width="30.6372" height="1.25965" transform="rotate(90 116.101 126.609)" fill="#DAB999" stroke="#321E16" stroke-width="0.10675"/>
    <rect x="84.8392" y="119.575" width="8.35853" height="9.87925" fill="#EEF0EE"/>
    <rect x="84.8392" y="119.575" width="8.35853" height="9.87925" stroke="#321E16" stroke-width="0.053375"/>
    <rect x="89.0289" y="119.601" width="9.82588" height="4.16325" transform="rotate(90 89.0289 119.601)" fill="#38727E" stroke="#321E16" stroke-width="0.10675"/>
    <rect x="93.171" y="119.601" width="9.82588" height="4.16325" transform="rotate(90 93.171 119.601)" fill="#38727E" stroke="#321E16" stroke-width="0.10675"/>
    <rect x="108.24" y="76.8963" width="12.5004" height="5.92463" fill="#EEF0EE"/>
    <rect x="108.24" y="76.8963" width="12.5004" height="5.92463" stroke="#321E16" stroke-width="0.053375"/>
    <rect x="112.43" y="76.923" width="5.87125" height="4.16325" transform="rotate(90 112.43 76.923)" fill="#46494E" stroke="#321E16" stroke-width="0.10675"/>
    <rect x="116.572" y="76.923" width="5.87125" height="4.16325" transform="rotate(90 116.572 76.923)" fill="#46494E" stroke="#321E16" stroke-width="0.10675"/>
    <rect x="120.713" y="76.923" width="5.87125" height="4.16325" transform="rotate(90 120.713 76.923)" fill="#46494E" stroke="#321E16" stroke-width="0.10675"/>
    <path d="M203.903 157.3H248.621V115.303L226.263 102.975L203.904 115.303H203.903V157.3Z" fill="#B39E8B"/>
    <path d="M203.903 157.3V157.354H203.85V157.3H203.903ZM248.621 157.3H248.674V157.354H248.621V157.3ZM248.621 115.303L248.647 115.256L248.674 115.272V115.303H248.621ZM226.263 102.975L226.237 102.928L226.263 102.914L226.288 102.928L226.263 102.975ZM203.904 115.303L203.93 115.35L203.918 115.357H203.904V115.303ZM203.903 115.303H203.85V115.25H203.903V115.303ZM203.903 157.3V157.247H248.621V157.3V157.354H203.903V157.3ZM248.621 157.3H248.568V115.303H248.621H248.674V157.3H248.621ZM248.621 115.303L248.595 115.35L226.237 103.022L226.263 102.975L226.288 102.928L248.647 115.256L248.621 115.303ZM226.263 102.975L226.288 103.022L203.93 115.35L203.904 115.303L203.879 115.256L226.237 102.928L226.263 102.975ZM203.904 115.303V115.357H203.903V115.303V115.25H203.904V115.303ZM203.903 115.303H203.957V157.3H203.903H203.85V115.303H203.903Z" fill="#321E16"/>
    <path d="M203.904 115.303H166.713V157.3H203.904V115.303Z" fill="#D9BBA6" stroke="#321E16" stroke-width="0.10675"/>
    <path d="M201.668 115.056H201.669V116.606L226.263 103.046L250.857 116.607V115.056L226.263 101.495L201.668 115.056Z" fill="#88574C"/>
    <path d="M201.668 115.056V115.109L201.642 115.009L201.668 115.056ZM201.669 115.056V115.003H201.722V115.056H201.669ZM201.669 116.606L201.695 116.653L201.616 116.696V116.606H201.669ZM226.263 103.046L226.237 103L226.263 102.985L226.288 103L226.263 103.046ZM250.857 116.607H250.911V116.697L250.832 116.654L250.857 116.607ZM250.857 115.056L250.883 115.009L250.911 115.025V115.056H250.857ZM226.263 101.495L226.237 101.449L226.263 101.435L226.288 101.449L226.263 101.495ZM201.668 115.056V115.003H201.669V115.056V115.109H201.668V115.056ZM201.669 115.056H201.722V116.606H201.669H201.616V115.056H201.669ZM201.669 116.606L201.643 116.559L226.237 103L226.263 103.046L226.288 103.093L201.695 116.653L201.669 116.606ZM226.263 103.046L226.288 103L250.883 116.56L250.857 116.607L250.832 116.654L226.237 103.093L226.263 103.046ZM250.857 116.607H250.804V115.056H250.857H250.911V116.607H250.857ZM250.857 115.056L250.832 115.103L226.237 101.542L226.263 101.495L226.288 101.449L250.883 115.009L250.857 115.056ZM226.263 101.495L226.288 101.542L201.694 115.103L201.668 115.056L201.642 115.009L226.237 101.449L226.263 101.495Z" fill="#321E16"/>
    <path d="M201.669 101.495L177.075 115.056V116.606L201.669 103.046L212.733 109.003L213.967 108.276L201.669 101.495Z" fill="#88574C" stroke="#321E16" stroke-width="0.10675"/>
    <path d="M201.684 116.648V115.047L162.157 115.058V116.648H201.684Z" fill="#6E463D" stroke="#321E16" stroke-width="0.10675"/>
    <path d="M186.732 101.481H226.197L201.677 115.035H162.158L186.732 101.481Z" fill="#67413B" stroke="#321E16" stroke-width="0.10675"/>
    <rect x="-0.053375" y="0.053375" width="9.8904" height="19.9458" transform="matrix(-1 0 0 1 228.671 137.248)" fill="#88564F" stroke="#321E16" stroke-width="0.10675"/>
    <rect x="-0.053375" y="0.053375" width="0.57645" height="28.2929" transform="matrix(-1 0 0 1 153.342 128.944)" fill="#EAD5C3" stroke="#321E16" stroke-width="0.10675"/>
    <rect x="-0.053375" y="0.053375" width="9.8904" height="2.52552" transform="matrix(-1 0 0 1 228.671 137.248)" fill="#88564F" stroke="#321E16" stroke-width="0.10675"/>
    <rect width="0.817451" height="3.80429" transform="matrix(-1 0 0 1 220.547 145.807)" fill="#321E16"/>
    <rect x="220.956" y="111.595" width="4.76105" height="9.45805" fill="#EEF0EE"/>
    <rect x="220.956" y="111.595" width="4.76105" height="9.45805" stroke="#321E16" stroke-width="0.10675"/>
    <rect x="225.204" y="112.107" width="8.43325" height="3.73625" transform="rotate(90 225.204 112.107)" fill="#38727E" stroke="#321E16" stroke-width="0.10675"/>
    <rect x="174.077" y="130.191" width="18.361" height="19.7585" fill="#EEF0EE"/>
    <rect x="174.077" y="130.191" width="18.361" height="19.7585" stroke="#321E16" stroke-width="0.10675"/>
    <rect x="174.824" y="130.191" width="19.7585" height="0.74725" transform="rotate(90 174.824 130.191)" fill="#F3E0B4" stroke="#321E16" stroke-width="0.10675"/>
    <rect x="183.257" y="130.191" width="19.7585" height="8.43325" transform="rotate(90 183.257 130.191)" fill="#925E54" stroke="#321E16" stroke-width="0.10675"/>
    <rect x="184.004" y="130.191" width="19.7585" height="0.74725" transform="rotate(90 184.004 130.191)" fill="#F3E0B4" stroke="#321E16" stroke-width="0.10675"/>
    <rect x="192.438" y="130.191" width="19.7585" height="8.43325" transform="rotate(90 192.438 130.191)" fill="#38727E" stroke="#321E16" stroke-width="0.10675"/>
    <rect x="-0.053375" y="0.053375" width="0.57645" height="28.2929" transform="matrix(-1 0 0 1 181.897 128.944)" fill="#EAD5C3" stroke="#321E16" stroke-width="0.10675"/>
    <path d="M169.478 122.265H202.965L181.861 128.988H148.32L169.478 122.265Z" fill="#CD8A68" stroke="#321E16" stroke-width="0.10675"/>
    <g clip-path="url(#clip1_195_15658)">
        <path d="M241.425 157.267H249.962C248.192 155.499 248.233 152.754 248.221 150.015C248.328 146.92 249.361 143.374 249.823 139.731L248.729 139.632C248.527 141.412 248.02 143.088 247.406 144.506C246.478 142.255 245.789 141.028 245.718 138.427H244.946C244.587 140.522 244.813 142.718 245.718 145.031C244.311 143.065 242.829 141.624 241.258 140.801L240.462 141.605C242.388 143.001 244.229 145.752 244.061 148.909C244.061 152.691 243.564 155.077 241.425 157.267Z" fill="#794F3E" stroke="#321E16" stroke-width="0.10675"/>
        <path d="M263.819 127.099C263.819 125.622 262.814 124.383 261.45 124.02C261.452 123.984 261.456 123.947 261.456 123.91C261.456 122.149 260.028 120.72 258.266 120.72C257.976 120.72 257.696 120.763 257.428 120.836C257.308 119.184 255.933 117.879 254.25 117.879C253.8 117.879 253.372 117.974 252.983 118.142C252.782 116.574 251.445 115.361 249.822 115.361C249.067 115.361 248.373 115.625 247.826 116.064C247.307 114.893 246.143 114.072 244.779 114.072C243.405 114.072 242.224 114.901 241.711 116.087C241.62 116.08 241.529 116.075 241.437 116.075C240.339 116.075 239.365 116.604 238.756 117.421C238.193 116.989 237.489 116.732 236.725 116.732C234.879 116.732 233.383 118.228 233.383 120.073C231.537 120.073 230.041 121.57 230.041 123.415C230.041 123.823 230.114 124.213 230.248 124.574C228.463 124.802 227.084 126.326 227.084 128.172C227.084 129.268 227.571 130.25 228.339 130.915C227.934 131.5 227.697 132.21 227.697 132.975C227.697 133.388 227.767 133.785 227.895 134.155C227.328 134.795 226.984 135.636 226.984 136.558C226.984 138.562 228.608 140.187 230.613 140.187C231.425 140.187 232.174 139.92 232.779 139.469C233.175 141.043 234.6 142.209 236.298 142.209C237.242 142.209 238.101 141.848 238.747 141.257C239.338 142.2 240.386 142.828 241.581 142.828C243.427 142.828 244.923 141.332 244.923 139.486C244.923 139.457 244.921 139.428 244.92 139.399C245.39 139.642 245.922 139.78 246.487 139.78C247.245 139.78 247.945 139.532 248.512 139.115C248.989 140.738 250.49 141.923 252.267 141.923C253.342 141.923 254.315 141.49 255.023 140.789C255.51 141.006 256.049 141.128 256.617 141.128C258.779 141.128 260.532 139.375 260.532 137.213C260.532 136.609 260.395 136.037 260.151 135.527C261.725 135.019 262.863 133.544 262.863 131.801C262.863 131.072 262.66 130.391 262.312 129.806C263.215 129.243 263.819 128.243 263.819 127.099Z" fill="#619142" stroke="#321E16" stroke-width="0.10675"/>
        <path fill-rule="evenodd" clip-rule="evenodd" d="M233.186 140.447C233.196 139.771 233.068 139.082 232.787 138.419C232.774 138.389 232.76 138.36 232.747 138.33C232.742 138.32 232.737 138.31 232.732 138.3C233.523 138.36 234.339 138.239 235.119 137.908C236.165 137.464 236.987 136.713 237.526 135.804C239.136 137.766 241.902 138.523 244.357 137.482C245.84 136.853 246.93 135.685 247.497 134.302C248.297 134.317 249.113 134.169 249.897 133.837C252.883 132.57 254.277 129.123 253.01 126.137C252.657 125.303 252.133 124.594 251.497 124.032C253.187 122.57 253.928 120.229 253.312 118.02C253.608 117.929 253.923 117.879 254.25 117.879C255.933 117.879 257.308 119.184 257.428 120.836C257.695 120.763 257.976 120.72 258.266 120.72C260.028 120.72 261.456 122.149 261.456 123.91C261.456 123.932 261.454 123.954 261.453 123.976C261.451 123.991 261.45 124.006 261.45 124.02C262.813 124.383 263.819 125.622 263.819 127.099C263.819 128.243 263.215 129.243 262.311 129.806C262.659 130.391 262.862 131.072 262.862 131.801C262.862 133.544 261.724 135.019 260.151 135.527C260.395 136.037 260.532 136.609 260.532 137.213C260.532 139.375 258.779 141.128 256.616 141.128C256.049 141.128 255.51 141.006 255.022 140.789C254.314 141.49 253.342 141.923 252.267 141.923C250.489 141.923 248.989 140.738 248.511 139.115C247.945 139.532 247.244 139.78 246.487 139.78C245.922 139.78 245.389 139.642 244.92 139.399C244.92 139.406 244.92 139.414 244.921 139.421C244.922 139.443 244.922 139.464 244.922 139.486C244.922 141.332 243.426 142.828 241.58 142.828C240.385 142.828 239.337 142.2 238.746 141.257C238.101 141.848 237.241 142.209 236.297 142.209C234.976 142.209 233.82 141.503 233.186 140.447Z" fill="#436C2E"/>
        <path d="M263.819 127.099C263.819 125.622 262.814 124.383 261.45 124.02C261.452 123.984 261.456 123.947 261.456 123.91C261.456 122.149 260.028 120.72 258.266 120.72C257.976 120.72 257.696 120.763 257.428 120.836C257.308 119.184 255.933 117.879 254.25 117.879C253.8 117.879 253.372 117.974 252.983 118.142C252.782 116.574 251.445 115.361 249.822 115.361C249.067 115.361 248.373 115.625 247.826 116.064C247.307 114.893 246.143 114.072 244.779 114.072C243.405 114.072 242.224 114.901 241.711 116.087C241.62 116.08 241.529 116.075 241.437 116.075C240.339 116.075 239.365 116.604 238.756 117.421C238.193 116.989 237.489 116.732 236.725 116.732C234.879 116.732 233.383 118.228 233.383 120.073C231.537 120.073 230.041 121.57 230.041 123.415C230.041 123.823 230.114 124.213 230.248 124.574C228.463 124.802 227.084 126.326 227.084 128.172C227.084 129.268 227.571 130.25 228.339 130.915C227.934 131.5 227.697 132.21 227.697 132.975C227.697 133.388 227.767 133.785 227.895 134.155C227.328 134.795 226.984 135.636 226.984 136.558C226.984 138.562 228.608 140.187 230.613 140.187C231.425 140.187 232.174 139.92 232.779 139.469C233.175 141.043 234.6 142.209 236.298 142.209C237.242 142.209 238.101 141.848 238.747 141.257C239.338 142.2 240.386 142.828 241.581 142.828C243.427 142.828 244.923 141.332 244.923 139.486C244.923 139.457 244.921 139.428 244.92 139.399C245.39 139.642 245.922 139.78 246.487 139.78C247.245 139.78 247.945 139.532 248.512 139.115C248.989 140.738 250.49 141.923 252.267 141.923C253.342 141.923 254.315 141.49 255.023 140.789C255.51 141.006 256.049 141.128 256.617 141.128C258.779 141.128 260.532 139.375 260.532 137.213C260.532 136.609 260.395 136.037 260.151 135.527C261.725 135.019 262.863 133.544 262.863 131.801C262.863 131.072 262.66 130.391 262.312 129.806C263.215 129.243 263.819 128.243 263.819 127.099Z" stroke="#321E16" stroke-width="0.10675"/>
    </g>
    <g clip-path="url(#clip2_195_15658)">
        <path d="M74.6336 115.144C75.9002 115.606 76.8697 116.468 77.6381 117.599C80.094 117.227 82.582 118.037 84.3458 119.801C86.1096 121.565 86.9203 124.052 86.5478 126.508C88.5483 127.982 89.7337 130.314 89.7337 132.808C89.7337 135.396 88.4647 137.793 86.3304 139.257C85.9657 140.539 85.2822 141.707 84.3458 142.643C82.8417 144.147 80.8312 144.925 78.8077 144.925C77.3256 144.925 75.8368 144.508 74.5352 143.653L74.7987 143.252L69.7847 142.622L69.681 143.091C69.4785 143.046 69.2764 142.993 69.0782 142.933C67.251 144.571 64.8187 145.184 62.5312 144.797C62.5356 144.757 62.5543 144.645 62.5572 144.615C60.1272 142.879 57.8844 139.107 57.8637 136.011C57.8441 133.028 59.1577 130.027 61.4125 128.249C60.9709 125.314 61.9515 122.491 63.7887 120.24C65.6898 117.912 68.7984 116.934 71.6675 117.571C71.7866 116.184 73.2091 115.634 74.6336 115.144Z" fill="#619142"/>
        <path d="M62.5565 144.614C60.127 142.879 58.2883 139.155 58.2681 136.059C58.2485 133.076 59.5726 130.277 61.827 128.5C61.3854 125.564 62.2839 122.583 64.268 120.46C66.2516 118.337 69.0631 117.349 71.8478 117.777C72.5984 116.685 73.5526 115.795 74.6334 115.145C73.6159 114.671 72.4952 114.413 71.3381 114.413C68.8438 114.413 66.5117 115.599 65.0383 117.6C62.5824 117.227 60.0948 118.037 58.331 119.801C56.5672 121.565 55.7566 124.052 56.1295 126.508C54.1286 127.982 52.9436 130.314 52.9436 132.808C52.9436 135.397 54.2126 137.793 56.3469 139.257C56.7112 140.539 57.3946 141.706 58.3315 142.643C59.5103 143.822 60.9875 144.535 62.5306 144.797C62.5344 144.757 62.5536 144.644 62.5565 144.614Z" fill="#436C2E"/>
        <path d="M62.5306 144.797C60.9875 144.535 59.5103 143.822 58.3315 142.643C57.3946 141.706 56.7112 140.539 56.3469 139.257C54.2126 137.793 52.9436 135.397 52.9436 132.808C52.9436 130.314 54.1286 127.982 56.1295 126.508C55.7566 124.052 56.5672 121.565 58.331 119.801C60.0948 118.037 62.5824 117.227 65.0383 117.6C66.5117 115.599 68.8438 114.413 71.3381 114.413C72.4948 114.413 73.6151 114.671 74.6323 115.145C74.6327 115.144 74.6331 115.144 74.6335 115.144C75.9001 115.605 76.8696 116.467 77.638 117.599C80.0939 117.227 82.5819 118.037 84.3458 119.801C86.1096 121.564 86.9202 124.052 86.5478 126.508C88.5482 127.981 89.7337 130.313 89.7337 132.808C89.7337 135.396 88.4647 137.793 86.3303 139.257C85.9656 140.539 85.2821 141.706 84.3458 142.643C82.8416 144.147 80.8311 144.924 78.8076 144.924C77.3256 144.924 75.8368 144.507 74.5351 143.653L74.7986 143.252L69.7846 142.622L69.6809 143.091C69.4784 143.046 69.2763 142.993 69.0781 142.933C67.251 144.571 64.8186 145.184 62.5312 144.796" stroke="#321E16" stroke-width="0.10675"/>
        <path d="M69.3582 140.382L69.3435 140.368L66.2166 137.005C66.0627 136.839 66.0651 136.58 66.2224 136.418L67.4324 135.164C67.5918 134.998 67.8857 134.998 68.0457 135.164L70.323 137.524L70.4148 137.62V134.038C70.415 133.802 70.6063 133.612 70.8416 133.612H72.8933C73.129 133.612 73.3198 133.802 73.3201 134.038V141.277L73.4099 141.191L75.2644 139.42L75.2654 139.421C75.4313 139.262 75.6919 139.263 75.8572 139.423L77.3123 140.838C77.3954 140.919 77.442 141.03 77.4412 141.146C77.4402 141.262 77.3924 141.373 77.3083 141.453L73.3367 145.231L73.3201 145.247V157.129C73.3201 157.364 73.1292 157.555 72.8933 157.555H69.7849C69.5494 157.555 69.3582 157.364 69.3582 157.129V140.382Z" fill="#794F3E" stroke="#321E16" stroke-width="0.10675"/>
    </g>
    <path d="M160.556 151.544H170.918V157.364H160.556V151.544Z" fill="#795D45" stroke="#321E16" stroke-width="0.10675"/>
    <path d="M160.556 148.563H170.918V151.544H160.556V148.563Z" fill="#E39A46" stroke="#321E16" stroke-width="0.10675"/>
    <path d="M170.918 151.544H177.447V157.364H170.918V151.544Z" fill="#523A29" stroke="#321E16" stroke-width="0.10675"/>
    <path d="M170.918 148.563H177.447V151.544H170.918V148.563Z" fill="#AF6A28" stroke="#321E16" stroke-width="0.10675"/>
    <path d="M40.084 49.9984C40.084 49.4269 40.5473 48.9636 41.1187 48.9636C41.6902 48.9636 42.1535 49.4269 42.1535 49.9984V158.282H40.084V49.9984Z" fill="#9A928D" stroke="#321E16" stroke-width="0.10675"/>
    <rect x="0.8544" y="157.311" width="512.293" height="0.91805" fill="white" stroke="#321E16" stroke-width="0.10675"/>
    <path d="M214.889 59.7798C286.2 74.8955 327.325 73.5623 401.78 61.7225" stroke="#321E16" stroke-width="0.1708"/>
    <path d="M214.889 68.4255C286.2 83.5412 327.325 82.2081 401.78 70.3683" stroke="#321E16" stroke-width="0.1708"/>
    <path d="M213.418 60.6375C181.077 88.2431 60.1675 68.7342 42.1836 60.6456" stroke="#321E16" stroke-width="0.1708"/>
    <path d="M214.216 68.3397C151.277 105.111 114.854 118.123 42.4805 91.725" stroke="#321E16" stroke-width="0.1708"/>
    <defs>
        <clipPath id="clip0_195_15658">
            <rect width="96.5874" height="81.0873" fill="white" transform="translate(210.82 72.3433)"/>
        </clipPath>
        <clipPath id="clip1_195_15658">
            <rect width="43.7248" height="43.7248" fill="white" transform="translate(223.563 113.832)"/>
        </clipPath>
        <clipPath id="clip2_195_15658">
            <rect width="43.7248" height="43.7248" fill="white" transform="translate(49.5002 114.173)"/>
        </clipPath>
    </defs>
</svg>