<svg width="18" height="18" viewBox="0 0 18 18" fill="none" xmlns="http://www.w3.org/2000/svg">
<path d="M15.2276 2.77237C14.3341 1.87765 13.1652 1.31006 11.9096 1.1612C10.6539 1.01233 9.38474 1.29088 8.30682 1.95188C7.22891 2.61288 6.40514 3.61778 5.96845 4.80443C5.53176 5.99107 5.50762 7.29024 5.89993 8.49229L2.01727 12.3749C1.91235 12.479 1.82917 12.6029 1.77256 12.7395C1.71594 12.876 1.68703 13.0224 1.68751 13.1702V15.1874C1.68751 15.4858 1.80603 15.772 2.01701 15.9829C2.22799 16.1939 2.51414 16.3124 2.81251 16.3124H5.06251C5.21169 16.3124 5.35476 16.2532 5.46025 16.1477C5.56574 16.0422 5.62501 15.8991 5.62501 15.7499V14.6249H6.75001C6.89919 14.6249 7.04226 14.5657 7.14775 14.4602C7.25324 14.3547 7.31251 14.2116 7.31251 14.0624V12.9374H8.43751C8.5114 12.9375 8.58457 12.923 8.65286 12.8948C8.72114 12.8665 8.7832 12.8251 8.83547 12.7729L9.50766 12.1C10.0703 12.283 10.6584 12.3758 11.25 12.3749H11.257C12.369 12.3736 13.4556 12.0427 14.3796 11.4241C15.3036 10.8055 16.0235 9.9269 16.4484 8.89932C16.8733 7.87175 16.9841 6.7413 16.7668 5.65079C16.5495 4.56027 16.0139 3.55862 15.2276 2.77237ZM12.6563 6.4687C12.4338 6.4687 12.2162 6.40272 12.0312 6.2791C11.8462 6.15548 11.702 5.97978 11.6169 5.77422C11.5317 5.56865 11.5095 5.34245 11.5529 5.12422C11.5963 4.90599 11.7034 4.70554 11.8608 4.5482C12.0181 4.39087 12.2185 4.28372 12.4368 4.24031C12.655 4.19691 12.8812 4.21918 13.0868 4.30433C13.2923 4.38948 13.468 4.53368 13.5917 4.71868C13.7153 4.90369 13.7813 5.12119 13.7813 5.3437C13.7813 5.64207 13.6627 5.92821 13.4517 6.13919C13.2408 6.35017 12.9546 6.4687 12.6563 6.4687Z" fill="#4F6642"/>
</svg>
