<svg width="28" height="28" viewBox="0 0 28 28" fill="none" xmlns="http://www.w3.org/2000/svg">
<path d="M20 9.07943V8.73193C20 8.2015 19.7893 7.69279 19.4142 7.31772C19.0392 6.94265 18.5305 6.73193 18 6.73193H15V1.73193C15 1.46672 14.8947 1.21236 14.7071 1.02483C14.5196 0.83729 14.2652 0.731934 14 0.731934C13.7348 0.731934 13.4805 0.83729 13.2929 1.02483C13.1054 1.21236 13 1.46672 13 1.73193V6.73193H10C9.46959 6.73193 8.96088 6.94265 8.58581 7.31772C8.21074 7.69279 8.00002 8.2015 8.00002 8.73193V9.07943C5.6033 10.2118 3.57833 12.0029 2.16171 14.2433C0.745091 16.4838 -0.00467413 19.0812 2.19252e-05 21.7319C2.19252e-05 21.9972 0.105379 22.2515 0.292915 22.439C0.480451 22.6266 0.734805 22.7319 1.00002 22.7319H9.00002C9.00002 24.058 9.52681 25.3298 10.4645 26.2675C11.4022 27.2051 12.6739 27.7319 14 27.7319C15.3261 27.7319 16.5979 27.2051 17.5356 26.2675C18.4732 25.3298 19 24.058 19 22.7319H27C27.2652 22.7319 27.5196 22.6266 27.7071 22.439C27.8947 22.2515 28 21.9972 28 21.7319C28.0047 19.0812 27.255 16.4838 25.8383 14.2433C24.4217 12.0029 22.3967 10.2118 20 9.07943ZM14 25.7319C13.2044 25.7319 12.4413 25.4159 11.8787 24.8533C11.3161 24.2906 11 23.5276 11 22.7319H17C17 23.5276 16.684 24.2906 16.1213 24.8533C15.5587 25.4159 14.7957 25.7319 14 25.7319Z" fill="#212529"/>
</svg>
