<svg width="16" height="17" viewBox="0 0 16 17" fill="none" xmlns="http://www.w3.org/2000/svg">
<path d="M13 6.23193H3C2.72386 6.23193 2.5 6.45579 2.5 6.73193V13.7319C2.5 14.0081 2.72386 14.2319 3 14.2319H13C13.2761 14.2319 13.5 14.0081 13.5 13.7319V6.73193C13.5 6.45579 13.2761 6.23193 13 6.23193Z" stroke="#5DAE2E" stroke-linecap="round" stroke-linejoin="round"/>
<path d="M5.5 6.23193V4.23193C5.5 3.56889 5.76339 2.93301 6.23223 2.46417C6.70107 1.99533 7.33696 1.73193 8 1.73193C8.66304 1.73193 9.29893 1.99533 9.76777 2.46417C10.2366 2.93301 10.5 3.56889 10.5 4.23193V6.23193" stroke="#5DAE2E" stroke-linecap="round" stroke-linejoin="round"/>
</svg>
