<svg width="20" height="24" viewBox="0 0 20 24" fill="none" xmlns="http://www.w3.org/2000/svg">
<path d="M17.5 5.75H2.5C2.33424 5.75 2.17527 5.81585 2.05806 5.93306C1.94085 6.05027 1.875 6.20924 1.875 6.375V17C1.875 17.3315 2.0067 17.6495 2.24112 17.8839C2.47554 18.1183 2.79348 18.25 3.125 18.25H16.875C17.2065 18.25 17.5245 18.1183 17.7589 17.8839C17.9933 17.6495 18.125 17.3315 18.125 17V6.375C18.125 6.20924 18.0592 6.05027 17.9419 5.93306C17.8247 5.81585 17.6658 5.75 17.5 5.75ZM10 12.4023L4.10703 7H15.893L10 12.4023ZM7.71172 12L3.125 16.2039V7.79609L7.71172 12ZM8.63672 12.8477L9.57422 13.7109C9.68953 13.8168 9.84035 13.8755 9.99687 13.8755C10.1534 13.8755 10.3042 13.8168 10.4195 13.7109L11.357 12.8477L15.8883 17H4.10703L8.63672 12.8477ZM12.2883 12L16.875 7.79531V16.2047L12.2883 12Z" fill="#889491"/>
</svg>
