<svg width="16" height="16" viewBox="0 0 16 16" fill="none" xmlns="http://www.w3.org/2000/svg">
<path d="M1.125 14.75H7.375V9.07964C6.28026 8.92163 5.286 8.35482 4.59232 7.49329C3.89863 6.63176 3.55702 5.53945 3.63623 4.43621C3.71544 3.33296 4.20959 2.30066 5.01923 1.54707C5.82888 0.793468 6.89391 0.374512 8 0.374512C9.10609 0.374512 10.1711 0.793468 10.9808 1.54707C11.7904 2.30066 12.2846 3.33296 12.3638 4.43621C12.443 5.53945 12.1014 6.63176 11.4077 7.49329C10.714 8.35482 9.71974 8.92163 8.625 9.07964V14.75H14.875C15.0408 14.75 15.1997 14.8158 15.3169 14.933C15.4342 15.0502 15.5 15.2092 15.5 15.375C15.5 15.5407 15.4342 15.6997 15.3169 15.8169C15.1997 15.9341 15.0408 16 14.875 16H1.125C0.95924 16 0.800268 15.9341 0.683058 15.8169C0.565847 15.6997 0.5 15.5407 0.5 15.375C0.5 15.2092 0.565847 15.0502 0.683058 14.933C0.800268 14.8158 0.95924 14.75 1.125 14.75ZM11.125 4.74995C11.125 4.13188 10.9417 3.5277 10.5983 3.01379C10.255 2.49989 9.7669 2.09935 9.19589 1.86283C8.62487 1.6263 7.99653 1.56442 7.39034 1.685C6.78415 1.80558 6.22733 2.1032 5.79029 2.54024C5.35325 2.97728 5.05562 3.5341 4.93505 4.14029C4.81447 4.74648 4.87635 5.37482 5.11288 5.94584C5.3494 6.51686 5.74994 7.00491 6.26384 7.34829C6.77775 7.69167 7.38193 7.87495 8 7.87495C8.8288 7.87495 9.62366 7.54571 10.2097 6.95966C10.7958 6.37361 11.125 5.57875 11.125 4.74995Z" fill="#4F6642"/>
</svg>
