<svg width="20" height="21" viewBox="0 0 20 21" fill="none" xmlns="http://www.w3.org/2000/svg">
<path d="M3.125 16.75H9.375V11.0796C8.28026 10.9216 7.286 10.3548 6.59232 9.49329C5.89863 8.63176 5.55702 7.53945 5.63623 6.43621C5.71544 5.33296 6.20959 4.30066 7.01923 3.54707C7.82888 2.79347 8.89391 2.37451 10 2.37451C11.1061 2.37451 12.1711 2.79347 12.9808 3.54707C13.7904 4.30066 14.2846 5.33296 14.3638 6.43621C14.443 7.53945 14.1014 8.63176 13.4077 9.49329C12.714 10.3548 11.7197 10.9216 10.625 11.0796V16.75H16.875C17.0408 16.75 17.1997 16.8158 17.3169 16.933C17.4342 17.0502 17.5 17.2092 17.5 17.375C17.5 17.5407 17.4342 17.6997 17.3169 17.8169C17.1997 17.9341 17.0408 18 16.875 18H3.125C2.95924 18 2.80027 17.9341 2.68306 17.8169C2.56585 17.6997 2.5 17.5407 2.5 17.375C2.5 17.2092 2.56585 17.0502 2.68306 16.933C2.80027 16.8158 2.95924 16.75 3.125 16.75ZM13.125 6.74995C13.125 6.13188 12.9417 5.5277 12.5983 5.01379C12.255 4.49989 11.7669 4.09935 11.1959 3.86283C10.6249 3.6263 9.99653 3.56442 9.39034 3.685C8.78415 3.80558 8.22733 4.1032 7.79029 4.54024C7.35325 4.97728 7.05562 5.5341 6.93505 6.14029C6.81447 6.74648 6.87635 7.37482 7.11288 7.94584C7.3494 8.51686 7.74994 9.00491 8.26384 9.34829C8.77775 9.69167 9.38193 9.87495 10 9.87495C10.8288 9.87495 11.6237 9.54571 12.2097 8.95966C12.7958 8.37361 13.125 7.57875 13.125 6.74995Z" fill="#4F6642"/>
</svg>
