<svg width="33" height="32" viewBox="0 0 33 32" fill="none" xmlns="http://www.w3.org/2000/svg">
<path opacity="0.2" d="M26.6665 7V25C26.6665 25.2652 26.5611 25.5196 26.3736 25.7071C26.1861 25.8946 25.9317 26 25.6665 26H7.6665C7.40129 26 7.14693 25.8946 6.9594 25.7071C6.77186 25.5196 6.6665 25.2652 6.6665 25V7C6.6665 6.73478 6.77186 6.48043 6.9594 6.29289C7.14693 6.10536 7.40129 6 7.6665 6H25.6665C25.9317 6 26.1861 6.10536 26.3736 6.29289C26.5611 6.48043 26.6665 6.73478 26.6665 7Z" fill="#B2B9B5"/>
<path d="M25.6665 5H7.6665C7.13607 5 6.62736 5.21071 6.25229 5.58579C5.87722 5.96086 5.6665 6.46957 5.6665 7V25C5.6665 25.5304 5.87722 26.0391 6.25229 26.4142C6.62736 26.7893 7.13607 27 7.6665 27H25.6665C26.1969 27 26.7056 26.7893 27.0807 26.4142C27.4558 26.0391 27.6665 25.5304 27.6665 25V7C27.6665 6.46957 27.4558 5.96086 27.0807 5.58579C26.7056 5.21071 26.1969 5 25.6665 5ZM25.6665 15H17.6665V7H25.6665V15ZM15.6665 7V15H7.6665V7H15.6665ZM7.6665 17H15.6665V25H7.6665V17ZM25.6665 25H17.6665V17H25.6665V25Z" fill="#B2B9B5"/>
</svg>
