<svg width="33" height="32" viewBox="0 0 33 32" fill="none" xmlns="http://www.w3.org/2000/svg">
<path opacity="0.2" d="M26.3154 15.3974L28.4129 12.7724C28.13 11.7089 27.7067 10.6879 27.1541 9.73617L23.8166 9.36117C23.55 9.06079 23.2658 8.77654 22.9654 8.50992L22.5904 5.17117C21.6376 4.62196 20.6162 4.20162 19.5529 3.92117L16.9279 6.01742C16.5266 5.99367 16.1242 5.99367 15.7229 6.01742L13.0979 3.91992C12.0378 4.20367 11.0202 4.62695 10.0716 5.17867L9.69662 8.51617C9.39624 8.78279 9.11199 9.06704 8.84537 9.36742L5.50662 9.74242C4.95741 10.6952 4.53707 11.7166 4.25662 12.7799L6.35287 15.4049C6.32912 15.8062 6.32912 16.2086 6.35287 16.6099L4.25537 19.2349C4.53828 20.2984 4.96159 21.3195 5.51412 22.2712L8.85162 22.6462C9.11824 22.9466 9.40249 23.2308 9.70287 23.4974L10.0779 26.8362C11.0306 27.3854 12.052 27.8057 13.1154 28.0862L15.7404 25.9899C16.1417 26.0137 16.5441 26.0137 16.9454 25.9899L19.5704 28.0874C20.6339 27.8045 21.6549 27.3812 22.6066 26.8287L22.9816 23.4912C23.282 23.2246 23.5663 22.9403 23.8329 22.6399L27.1716 22.2649C27.7208 21.3122 28.1412 20.2908 28.4216 19.2274L26.3254 16.6024C26.3458 16.2009 26.3425 15.7985 26.3154 15.3974ZM16.3329 20.9999C15.344 20.9999 14.3773 20.7067 13.555 20.1573C12.7328 19.6079 12.0919 18.827 11.7135 17.9133C11.335 16.9997 11.236 15.9944 11.4289 15.0245C11.6219 14.0546 12.0981 13.1637 12.7973 12.4644C13.4966 11.7651 14.3875 11.2889 15.3574 11.096C16.3273 10.9031 17.3327 11.0021 18.2463 11.3805C19.1599 11.759 19.9408 12.3998 20.4902 13.2221C21.0396 14.0443 21.3329 15.011 21.3329 15.9999C21.3329 17.326 20.8061 18.5978 19.8684 19.5355C18.9307 20.4731 17.659 20.9999 16.3329 20.9999Z" fill="#B2B9B5"/>
<path d="M16.3331 10.0001C15.1464 10.0001 13.9863 10.352 12.9996 11.0112C12.0129 11.6705 11.2439 12.6076 10.7898 13.704C10.3357 14.8003 10.2168 16.0067 10.4484 17.1706C10.6799 18.3345 11.2513 19.4036 12.0904 20.2427C12.9295 21.0818 13.9986 21.6533 15.1625 21.8848C16.3264 22.1163 17.5328 21.9975 18.6292 21.5433C19.7255 21.0892 20.6626 20.3202 21.3219 19.3335C21.9812 18.3468 22.3331 17.1867 22.3331 16.0001C22.3314 14.4093 21.6987 12.8841 20.5739 11.7592C19.449 10.6344 17.9239 10.0017 16.3331 10.0001ZM16.3331 20.0001C15.5419 20.0001 14.7686 19.7655 14.1108 19.3259C13.453 18.8864 12.9403 18.2617 12.6375 17.5308C12.3348 16.7999 12.2556 15.9956 12.4099 15.2197C12.5643 14.4438 12.9452 13.731 13.5046 13.1716C14.064 12.6122 14.7768 12.2313 15.5527 12.0769C16.3286 11.9226 17.1329 12.0018 17.8638 12.3045C18.5947 12.6073 19.2194 13.12 19.6589 13.7778C20.0985 14.4356 20.3331 15.2089 20.3331 16.0001C20.3331 17.0609 19.9116 18.0783 19.1615 18.8285C18.4113 19.5786 17.3939 20.0001 16.3331 20.0001ZM27.3331 16.2701C27.3381 16.0901 27.3381 15.9101 27.3331 15.7301L29.1981 13.4001C29.2959 13.2777 29.3635 13.1341 29.3957 12.9808C29.4278 12.8276 29.4235 12.6689 29.3831 12.5176C29.0768 11.3685 28.6195 10.2651 28.0231 9.23631C27.9449 9.1017 27.8364 8.9872 27.7062 8.90192C27.576 8.81664 27.4277 8.76292 27.2731 8.74506L24.3081 8.41506C24.1847 8.28506 24.0597 8.16006 23.9331 8.04006L23.5831 5.06756C23.5651 4.91282 23.5112 4.76443 23.4257 4.63422C23.3401 4.50401 23.2254 4.39557 23.0906 4.31756C22.0618 3.72162 20.9584 3.26512 19.8093 2.96006C19.658 2.91963 19.4993 2.91531 19.346 2.94745C19.1927 2.97958 19.0492 3.04727 18.9268 3.14506L16.6031 5.00006C16.4231 5.00006 16.2431 5.00006 16.0631 5.00006L13.7331 3.13881C13.6107 3.04102 13.4671 2.97333 13.3138 2.9412C13.1606 2.90906 13.0019 2.91338 12.8506 2.95381C11.7015 3.26009 10.5981 3.71741 9.56931 4.31381C9.43471 4.39196 9.32021 4.50046 9.23493 4.63067C9.14964 4.76087 9.09593 4.90919 9.07806 5.06381L8.74806 8.03381C8.61806 8.15797 8.49306 8.28297 8.37306 8.40881L5.40056 8.75006C5.24583 8.76806 5.09744 8.82196 4.96723 8.90747C4.83701 8.99298 4.72858 9.10772 4.65057 9.24256C4.05475 10.2715 3.59786 11.3749 3.29181 12.5238C3.25156 12.6752 3.24744 12.834 3.2798 12.9872C3.31215 13.1405 3.38006 13.2841 3.47806 13.4063L5.33306 15.7301C5.33306 15.9101 5.33306 16.0901 5.33306 16.2701L3.47181 18.6001C3.37403 18.7224 3.30634 18.866 3.2742 19.0193C3.24207 19.1726 3.24639 19.3312 3.28681 19.4826C3.5931 20.6316 4.05042 21.735 4.64681 22.7638C4.72497 22.8984 4.83347 23.0129 4.96368 23.0982C5.09388 23.1835 5.24219 23.2372 5.39681 23.2551L8.36182 23.5851C8.48598 23.7151 8.61098 23.8401 8.73682 23.9601L9.08307 26.9326C9.10107 27.0873 9.15497 27.2357 9.24048 27.3659C9.32598 27.4961 9.44073 27.6045 9.57557 27.6826C10.6045 28.2784 11.7079 28.7353 12.8568 29.0413C13.0082 29.0816 13.167 29.0857 13.3203 29.0533C13.4735 29.021 13.6171 28.9531 13.7393 28.8551L16.0631 27.0001C16.2431 27.0051 16.4231 27.0051 16.6031 27.0001L18.9331 28.8651C19.0554 28.9628 19.199 29.0305 19.3523 29.0627C19.5056 29.0948 19.6643 29.0905 19.8156 29.0501C20.9648 28.7443 22.0683 28.287 23.0968 27.6901C23.2314 27.6119 23.3459 27.5034 23.4312 27.3732C23.5165 27.243 23.5702 27.0947 23.5881 26.9401L23.9181 23.9751C24.0481 23.8517 24.1731 23.7267 24.2931 23.6001L27.2656 23.2501C27.4203 23.2321 27.5687 23.1782 27.6989 23.0926C27.8291 23.0071 27.9376 22.8924 28.0156 22.7576C28.6114 21.7286 29.0683 20.6253 29.3743 19.4763C29.4146 19.3249 29.4187 19.1662 29.3863 19.0129C29.354 18.8596 29.2861 18.716 29.1881 18.5938L27.3331 16.2701ZM25.3206 15.4576C25.3418 15.8189 25.3418 16.1812 25.3206 16.5426C25.3057 16.79 25.3832 17.0341 25.5381 17.2276L27.3118 19.4438C27.1083 20.0906 26.8477 20.7181 26.5331 21.3188L23.7081 21.6388C23.462 21.6661 23.2349 21.7837 23.0706 21.9688C22.83 22.2394 22.5737 22.4957 22.3031 22.7363C22.118 22.9006 22.0004 23.1278 21.9731 23.3738L21.6593 26.1963C21.0587 26.5111 20.4312 26.7717 19.7843 26.9751L17.5668 25.2013C17.3894 25.0595 17.1689 24.9824 16.9418 24.9826H16.8818C16.5205 25.0038 16.1582 25.0038 15.7968 24.9826C15.5495 24.9684 15.3056 25.0458 15.1118 25.2001L12.8893 26.9751C12.2425 26.7715 11.615 26.5109 11.0143 26.1963L10.6943 23.3751C10.667 23.129 10.5494 22.9019 10.3643 22.7376C10.0937 22.4969 9.83743 22.2407 9.59682 21.9701C9.43248 21.7849 9.20533 21.6674 8.95932 21.6401L6.13681 21.3251C5.82205 20.7244 5.56144 20.0969 5.35806 19.4501L7.13181 17.2326C7.2867 17.0391 7.36421 16.795 7.34932 16.5476C7.32807 16.1862 7.32807 15.8239 7.34932 15.4626C7.36421 15.2152 7.2867 14.971 7.13181 14.7776L5.35806 12.5563C5.5616 11.9095 5.8222 11.282 6.13681 10.6813L8.95807 10.3613C9.20408 10.334 9.43123 10.2164 9.59556 10.0313C9.83618 9.76069 10.0925 9.50442 10.3631 9.26381C10.5489 9.09937 10.667 8.8717 10.6943 8.62506L11.0081 5.80381C11.6087 5.48905 12.2362 5.22843 12.8831 5.02506L15.1006 6.79881C15.2941 6.95369 15.5382 7.0312 15.7856 7.01631C16.1469 6.99506 16.5092 6.99506 16.8706 7.01631C17.1179 7.03048 17.3617 6.95305 17.5556 6.79881L19.7768 5.02506C20.4236 5.22859 21.0511 5.4892 21.6518 5.80381L21.9718 8.62506C21.9991 8.87108 22.1167 9.09822 22.3018 9.26256C22.5724 9.50317 22.8287 9.75944 23.0693 10.0301C23.2336 10.2152 23.4608 10.3327 23.7068 10.3601L26.5293 10.6738C26.8441 11.2744 27.1047 11.9019 27.3081 12.5488L25.5343 14.7663C25.3779 14.9614 25.3003 15.2081 25.3168 15.4576H25.3206Z" fill="#B2B9B5"/>
</svg>
