<svg width="33" height="32" viewBox="0 0 33 32" fill="none" xmlns="http://www.w3.org/2000/svg">
<path opacity="0.2" d="M28.333 7V25C28.333 25.2652 28.2277 25.5196 28.0401 25.7071C27.8526 25.8946 27.5982 26 27.333 26H5.33301C5.06779 26 4.81344 25.8946 4.6259 25.7071C4.43836 25.5196 4.33301 25.2652 4.33301 25V7C4.33301 6.73478 4.43836 6.48043 4.6259 6.29289C4.81344 6.10536 5.06779 6 5.33301 6H27.333C27.5982 6 27.8526 6.10536 28.0401 6.29289C28.2277 6.48043 28.333 6.73478 28.333 7Z" fill="#B2B9B5"/>
<path d="M27.333 5H5.33301C4.80257 5 4.29387 5.21071 3.91879 5.58579C3.54372 5.96086 3.33301 6.46957 3.33301 7V25C3.33301 25.5304 3.54372 26.0391 3.91879 26.4142C4.29387 26.7893 4.80257 27 5.33301 27H27.333C27.8634 27 28.3721 26.7893 28.7472 26.4142C29.1223 26.0391 29.333 25.5304 29.333 25V7C29.333 6.46957 29.1223 5.96086 28.7472 5.58579C28.3721 5.21071 27.8634 5 27.333 5ZM27.333 25H5.33301V7H27.333V25ZM22.333 11C22.333 12.5913 21.7009 14.1174 20.5756 15.2426C19.4504 16.3679 17.9243 17 16.333 17C14.7417 17 13.2156 16.3679 12.0904 15.2426C10.9651 14.1174 10.333 12.5913 10.333 11C10.333 10.7348 10.4384 10.4804 10.6259 10.2929C10.8134 10.1054 11.0678 10 11.333 10C11.5982 10 11.8526 10.1054 12.0401 10.2929C12.2277 10.4804 12.333 10.7348 12.333 11C12.333 12.0609 12.7544 13.0783 13.5046 13.8284C14.2547 14.5786 15.2721 15 16.333 15C17.3939 15 18.4113 14.5786 19.1614 13.8284C19.9116 13.0783 20.333 12.0609 20.333 11C20.333 10.7348 20.4384 10.4804 20.6259 10.2929C20.8134 10.1054 21.0678 10 21.333 10C21.5982 10 21.8526 10.1054 22.0401 10.2929C22.2277 10.4804 22.333 10.7348 22.333 11Z" fill="#B2B9B5"/>
</svg>
