<svg width="33" height="32" viewBox="0 0 33 32" fill="none" xmlns="http://www.w3.org/2000/svg">
<path opacity="0.2" d="M28.333 16C28.333 18.3734 27.6292 20.6935 26.3106 22.6668C24.9921 24.6402 23.1179 26.1783 20.9252 27.0866C18.7325 27.9948 16.3197 28.2324 13.9919 27.7694C11.6642 27.3064 9.52596 26.1635 7.84773 24.4853C6.1695 22.8071 5.02661 20.6689 4.56359 18.3411C4.10057 16.0133 4.33821 13.6005 5.24646 11.4078C6.15471 9.21509 7.69278 7.34094 9.66617 6.02236C11.6396 4.70379 13.9596 4 16.333 4C19.5156 4 22.5679 5.26428 24.8183 7.51472C27.0687 9.76515 28.333 12.8174 28.333 16Z" fill="#B2B9B5"/>
<path d="M16.333 3C13.7619 3 11.2484 3.76244 9.1106 5.1909C6.97276 6.61935 5.30652 8.64968 4.32258 11.0251C3.33864 13.4006 3.0812 16.0144 3.58281 18.5362C4.08441 21.0579 5.32254 23.3743 7.14063 25.1924C8.95871 27.0105 11.2751 28.2486 13.7968 28.7502C16.3186 29.2518 18.9325 28.9944 21.3079 28.0104C23.6833 27.0265 25.7137 25.3603 27.1421 23.2224C28.5706 21.0846 29.333 18.5712 29.333 16C29.3294 12.5533 27.9586 9.24882 25.5214 6.81163C23.0842 4.37445 19.7797 3.00364 16.333 3ZM16.333 27C14.1574 27 12.0307 26.3549 10.2217 25.1462C8.4128 23.9375 7.0029 22.2195 6.17034 20.2095C5.33777 18.1995 5.11994 15.9878 5.54438 13.854C5.96881 11.7202 7.01646 9.7602 8.55484 8.22183C10.0932 6.68345 12.0532 5.6358 14.187 5.21136C16.3208 4.78692 18.5325 5.00476 20.5425 5.83733C22.5525 6.66989 24.2705 8.07979 25.4792 9.88873C26.6879 11.6977 27.333 13.8244 27.333 16C27.3297 18.9164 26.1697 21.7123 24.1075 23.7745C22.0454 25.8367 19.2494 26.9967 16.333 27ZM23.333 16C23.333 16.2967 23.245 16.5867 23.0802 16.8334C22.9154 17.08 22.6811 17.2723 22.407 17.3858C22.1329 17.4993 21.8314 17.5291 21.5404 17.4712C21.2494 17.4133 20.9821 17.2704 20.7724 17.0607C20.5626 16.8509 20.4197 16.5836 20.3618 16.2926C20.304 16.0017 20.3337 15.7001 20.4472 15.426C20.5607 15.1519 20.753 14.9176 20.9997 14.7528C21.2463 14.588 21.5363 14.5 21.833 14.5C22.2308 14.5 22.6124 14.658 22.8937 14.9393C23.175 15.2206 23.333 15.6022 23.333 16ZM17.833 16C17.833 16.2967 17.745 16.5867 17.5802 16.8334C17.4154 17.08 17.1811 17.2723 16.907 17.3858C16.6329 17.4993 16.3313 17.5291 16.0404 17.4712C15.7494 17.4133 15.4821 17.2704 15.2724 17.0607C15.0626 16.8509 14.9197 16.5836 14.8618 16.2926C14.804 16.0017 14.8337 15.7001 14.9472 15.426C15.0607 15.1519 15.253 14.9176 15.4997 14.7528C15.7463 14.588 16.0363 14.5 16.333 14.5C16.7308 14.5 17.1124 14.658 17.3937 14.9393C17.675 15.2206 17.833 15.6022 17.833 16ZM12.333 16C12.333 16.2967 12.245 16.5867 12.0802 16.8334C11.9154 17.08 11.6811 17.2723 11.407 17.3858C11.1329 17.4993 10.8313 17.5291 10.5404 17.4712C10.2494 17.4133 9.98213 17.2704 9.77235 17.0607C9.56257 16.8509 9.41971 16.5836 9.36184 16.2926C9.30396 16.0017 9.33366 15.7001 9.44719 15.426C9.56073 15.1519 9.75299 14.9176 9.99966 14.7528C10.2463 14.588 10.5363 14.5 10.833 14.5C11.2308 14.5 11.6124 14.658 11.8937 14.9393C12.175 15.2206 12.333 15.6022 12.333 16Z" fill="#B2B9B5"/>
</svg>
