<svg width="33" height="32" viewBox="0 0 33 32" fill="none" xmlns="http://www.w3.org/2000/svg">
<path opacity="0.2" d="M27.6665 9V26C27.6665 26.2652 27.5611 26.5196 27.3736 26.7071C27.1861 26.8946 26.9317 27 26.6665 27H6.6665C6.40129 27 6.14693 26.8946 5.9594 26.7071C5.77186 26.5196 5.6665 26.2652 5.6665 26V9H27.6665Z" fill="#B2B9B5"/>
<path d="M28.5615 8.5525L26.5615 4.5525C26.4784 4.38636 26.3506 4.24667 26.1925 4.14908C26.0344 4.05149 25.8523 3.99987 25.6665 4H7.6665C7.48072 3.99987 7.29858 4.05149 7.1405 4.14908C6.98241 4.24667 6.85464 4.38636 6.7715 4.5525L4.7715 8.5525C4.70257 8.69161 4.66664 8.84475 4.6665 9V26C4.6665 26.5304 4.87722 27.0391 5.25229 27.4142C5.62736 27.7893 6.13607 28 6.6665 28H26.6665C27.1969 28 27.7056 27.7893 28.0807 27.4142C28.4558 27.0391 28.6665 26.5304 28.6665 26V9C28.6664 8.84475 28.6304 8.69161 28.5615 8.5525ZM8.284 6H25.049L26.049 8H7.284L8.284 6ZM26.6665 26H6.6665V10H26.6665V26ZM21.374 16.2925C21.4669 16.3854 21.5406 16.4957 21.5909 16.6171C21.6412 16.7385 21.6671 16.8686 21.6671 17C21.6671 17.1314 21.6412 17.2615 21.5909 17.3829C21.5406 17.5043 21.4669 17.6146 21.374 17.7075C21.2811 17.8004 21.1708 17.8741 21.0494 17.9244C20.928 17.9747 20.7979 18.0006 20.6665 18.0006C20.5351 18.0006 20.405 17.9747 20.2836 17.9244C20.1622 17.8741 20.0519 17.8004 19.959 17.7075L17.6665 15.4137V23C17.6665 23.2652 17.5611 23.5196 17.3736 23.7071C17.1861 23.8946 16.9317 24 16.6665 24C16.4013 24 16.1469 23.8946 15.9594 23.7071C15.7719 23.5196 15.6665 23.2652 15.6665 23V15.4137L13.374 17.7075C13.2811 17.8004 13.1708 17.8741 13.0494 17.9244C12.928 17.9747 12.7979 18.0006 12.6665 18.0006C12.5351 18.0006 12.405 17.9747 12.2836 17.9244C12.1622 17.8741 12.0519 17.8004 11.959 17.7075C11.8661 17.6146 11.7924 17.5043 11.7421 17.3829C11.6918 17.2615 11.6659 17.1314 11.6659 17C11.6659 16.8686 11.6918 16.7385 11.7421 16.6171C11.7924 16.4957 11.8661 16.3854 11.959 16.2925L15.959 12.2925C16.0519 12.1995 16.1622 12.1258 16.2836 12.0754C16.405 12.0251 16.5351 11.9992 16.6665 11.9992C16.7979 11.9992 16.928 12.0251 17.0494 12.0754C17.1708 12.1258 17.2811 12.1995 17.374 12.2925L21.374 16.2925Z" fill="#B2B9B5"/>
</svg>
