<svg width="18" height="18" viewBox="0 0 18 18" fill="none" xmlns="http://www.w3.org/2000/svg">
<path d="M16.475 4.16798L9.6 0.406264C9.41631 0.304766 9.20987 0.251526 9 0.251526C8.79013 0.251526 8.58369 0.304766 8.4 0.406264L1.525 4.16954C1.32866 4.27697 1.16477 4.43514 1.05043 4.62753C0.936094 4.81993 0.875508 5.03949 0.875 5.26329V12.7352C0.875508 12.959 0.936094 13.1785 1.05043 13.3709C1.16477 13.5633 1.32866 13.7215 1.525 13.8289L8.4 17.5922C8.58369 17.6937 8.79013 17.7469 9 17.7469C9.20987 17.7469 9.41631 17.6937 9.6 17.5922L16.475 13.8289C16.6713 13.7215 16.8352 13.5633 16.9496 13.3709C17.0639 13.1785 17.1245 12.959 17.125 12.7352V5.26408C17.1249 5.03987 17.0645 4.81982 16.9502 4.62698C16.8358 4.43414 16.6717 4.2756 16.475 4.16798ZM9 1.50001L15.2766 4.93751L12.9508 6.21095L6.67344 2.77345L9 1.50001ZM9 8.37501L2.72344 4.93751L5.37187 3.48751L11.6484 6.92501L9 8.37501ZM2.125 6.03126L8.375 9.45158V16.1539L2.125 12.736V6.03126ZM15.875 12.7328L9.625 16.1539V9.4547L12.125 8.08673V10.875C12.125 11.0408 12.1908 11.1997 12.3081 11.317C12.4253 11.4342 12.5842 11.5 12.75 11.5C12.9158 11.5 13.0747 11.4342 13.1919 11.317C13.3092 11.1997 13.375 11.0408 13.375 10.875V7.40236L15.875 6.03126V12.732V12.7328Z" fill="#212529"/>
</svg>
