<svg width="20" height="21" viewBox="0 0 20 21" fill="none" xmlns="http://www.w3.org/2000/svg">
<path d="M16.875 11.3569H15.625V10.1069H16.875C17.0408 10.1069 17.1997 10.041 17.3169 9.92381C17.4342 9.8066 17.5 9.64763 17.5 9.48187C17.5 9.31611 17.4342 9.15714 17.3169 9.03993C17.1997 8.92272 17.0408 8.85687 16.875 8.85687H15.625V4.32562C15.625 4.15986 15.5592 4.00089 15.4419 3.88368C15.3247 3.76647 15.1658 3.70062 15 3.70062C14.8342 3.70062 14.6753 3.76647 14.5581 3.88368C14.4408 4.00089 14.375 4.15986 14.375 4.32562V8.85687H9.32969L5.49297 3.94124C5.41293 3.83855 5.30282 3.76341 5.17801 3.72632C5.0532 3.68924 4.91992 3.69206 4.79679 3.7344C4.67366 3.77673 4.56683 3.85646 4.49121 3.96246C4.41559 4.06845 4.37496 4.19541 4.375 4.32562V8.85687H3.125C2.95924 8.85687 2.80027 8.92272 2.68306 9.03993C2.56585 9.15714 2.5 9.31611 2.5 9.48187C2.5 9.64763 2.56585 9.8066 2.68306 9.92381C2.80027 10.041 2.95924 10.1069 3.125 10.1069H4.375V11.3569H3.125C2.95924 11.3569 2.80027 11.4227 2.68306 11.5399C2.56585 11.6571 2.5 11.8161 2.5 11.9819C2.5 12.1476 2.56585 12.3066 2.68306 12.4238C2.80027 12.541 2.95924 12.6069 3.125 12.6069H4.375V17.1381C4.375 17.3039 4.44085 17.4629 4.55806 17.5801C4.67527 17.6973 4.83424 17.7631 5 17.7631C5.16576 17.7631 5.32473 17.6973 5.44194 17.5801C5.55915 17.4629 5.625 17.3039 5.625 17.1381V12.6069H10.6703L14.507 17.5225C14.5655 17.5974 14.6403 17.6581 14.7257 17.6998C14.8111 17.7415 14.9049 17.7631 15 17.7631C15.0692 17.7633 15.1379 17.7516 15.2031 17.7287C15.3262 17.6865 15.433 17.6068 15.5086 17.5009C15.5842 17.3951 15.6249 17.2682 15.625 17.1381V12.6069H16.875C17.0408 12.6069 17.1997 12.541 17.3169 12.4238C17.4342 12.3066 17.5 12.1476 17.5 11.9819C17.5 11.8161 17.4342 11.6571 17.3169 11.5399C17.1997 11.4227 17.0408 11.3569 16.875 11.3569ZM14.375 10.1069V11.3569H11.2805L10.3047 10.1069H14.375ZM5.625 6.14202L7.74375 8.85687H5.625V6.14202ZM5.625 11.3569V10.1069H8.71953L9.69531 11.3569H5.625ZM14.375 15.3217L12.2563 12.6069H14.375V15.3217Z" fill="#5D716C"/>
</svg>
