<svg width="20" height="21" viewBox="0 0 20 21" fill="none" xmlns="http://www.w3.org/2000/svg">
<path d="M5.625 8.85693C5.625 8.69117 5.69085 8.5322 5.80806 8.41499C5.92527 8.29778 6.08424 8.23193 6.25 8.23193H13.75C13.9158 8.23193 14.0747 8.29778 14.1919 8.41499C14.3092 8.5322 14.375 8.69117 14.375 8.85693C14.375 9.02269 14.3092 9.18166 14.1919 9.29888C14.0747 9.41609 13.9158 9.48193 13.75 9.48193H6.25C6.08424 9.48193 5.92527 9.41609 5.80806 9.29888C5.69085 9.18166 5.625 9.02269 5.625 8.85693ZM6.25 11.9819H13.75C13.9158 11.9819 14.0747 11.9161 14.1919 11.7989C14.3092 11.6817 14.375 11.5227 14.375 11.3569C14.375 11.1912 14.3092 11.0322 14.1919 10.915C14.0747 10.7978 13.9158 10.7319 13.75 10.7319H6.25C6.08424 10.7319 5.92527 10.7978 5.80806 10.915C5.69085 11.0322 5.625 11.1912 5.625 11.3569C5.625 11.5227 5.69085 11.6817 5.80806 11.7989C5.92527 11.9161 6.08424 11.9819 6.25 11.9819ZM18.125 5.10693V16.9819C18.1249 17.0885 18.0977 17.1932 18.0457 17.2862C17.9938 17.3792 17.919 17.4574 17.8284 17.5134C17.7377 17.5694 17.6343 17.6012 17.5279 17.606C17.4214 17.6107 17.3156 17.5882 17.2203 17.5405L15 16.4304L12.7797 17.5405C12.6929 17.584 12.5971 17.6066 12.5 17.6066C12.4029 17.6066 12.3071 17.584 12.2203 17.5405L10 16.4304L7.77969 17.5405C7.69286 17.584 7.5971 17.6066 7.5 17.6066C7.4029 17.6066 7.30714 17.584 7.22031 17.5405L5 16.4304L2.77969 17.5405C2.68442 17.5882 2.57856 17.6107 2.47214 17.606C2.36572 17.6012 2.26228 17.5694 2.17165 17.5134C2.08101 17.4574 2.00618 17.3792 1.95426 17.2862C1.90234 17.1932 1.87506 17.0885 1.875 16.9819V5.10693C1.875 4.77541 2.0067 4.45747 2.24112 4.22305C2.47554 3.98863 2.79348 3.85693 3.125 3.85693H16.875C17.2065 3.85693 17.5245 3.98863 17.7589 4.22305C17.9933 4.45747 18.125 4.77541 18.125 5.10693ZM16.875 5.10693H3.125V15.971L4.72031 15.1726C4.80714 15.1291 4.9029 15.1065 5 15.1065C5.0971 15.1065 5.19286 15.1291 5.27969 15.1726L7.5 16.2835L9.72031 15.1726C9.80714 15.1291 9.9029 15.1065 10 15.1065C10.0971 15.1065 10.1929 15.1291 10.2797 15.1726L12.5 16.2835L14.7203 15.1726C14.8071 15.1291 14.9029 15.1065 15 15.1065C15.0971 15.1065 15.1929 15.1291 15.2797 15.1726L16.875 15.971V5.10693Z" fill="#5D716C"/>
</svg>
