<svg width="20" height="21" viewBox="0 0 20 21" fill="none" xmlns="http://www.w3.org/2000/svg">
<path d="M5.59301 5.53428C5.55155 5.4098 5.47197 5.30153 5.36554 5.22481C5.25912 5.14808 5.13125 5.1068 5.00005 5.1068C4.86885 5.1068 4.74098 5.14808 4.63455 5.22481C4.52812 5.30153 4.44854 5.4098 4.40708 5.53428L1.28208 14.9093C1.25076 15.0032 1.24221 15.1033 1.25715 15.2012C1.27208 15.2991 1.31007 15.3921 1.36798 15.4724C1.42589 15.5527 1.50207 15.6182 1.59023 15.6633C1.67839 15.7084 1.77601 15.7319 1.87505 15.7319H8.12505C8.22408 15.7319 8.32171 15.7084 8.40987 15.6633C8.49803 15.6182 8.5742 15.5527 8.63211 15.4724C8.69002 15.3921 8.72801 15.2991 8.74294 15.2012C8.75788 15.1033 8.74934 15.0032 8.71801 14.9093L5.59301 5.53428ZM2.74223 14.4819L5.00005 7.7085L7.25786 14.4819H2.74223ZM16.25 6.66944C16.25 5.86595 16.0118 5.08051 15.5654 4.41243C15.119 3.74436 14.4845 3.22366 13.7422 2.91617C12.9999 2.60869 12.183 2.52824 11.395 2.685C10.6069 2.84175 9.88308 3.22866 9.31493 3.79681C8.74677 4.36496 8.35986 5.08883 8.20311 5.87688C8.04635 6.66493 8.12681 7.48176 8.43429 8.22409C8.74177 8.96641 9.26247 9.60089 9.93054 10.0473C10.5986 10.4937 11.3841 10.7319 12.1875 10.7319C13.2646 10.7307 14.2972 10.3023 15.0588 9.54069C15.8204 8.77909 16.2488 7.7465 16.25 6.66944ZM9.37505 6.66944C9.37505 6.11318 9.54 5.56941 9.84904 5.10689C10.1581 4.64438 10.5973 4.2839 11.1112 4.07102C11.6252 3.85815 12.1907 3.80246 12.7362 3.91098C13.2818 4.0195 13.7829 4.28736 14.1763 4.6807C14.5696 5.07403 14.8375 5.57517 14.946 6.12074C15.0545 6.66632 14.9988 7.23182 14.786 7.74573C14.5731 8.25965 14.2126 8.6989 13.7501 9.00794C13.2876 9.31699 12.7438 9.48194 12.1875 9.48194C11.4416 9.48194 10.7263 9.18562 10.1988 8.65817C9.67136 8.13073 9.37505 7.41536 9.37505 6.66944ZM17.5 11.9819H10.625C10.4593 11.9819 10.3003 12.0478 10.1831 12.165C10.0659 12.2822 10 12.4412 10 12.6069V16.9819C10 17.1477 10.0659 17.3067 10.1831 17.4239C10.3003 17.5411 10.4593 17.6069 10.625 17.6069H17.5C17.6658 17.6069 17.8248 17.5411 17.942 17.4239C18.0592 17.3067 18.125 17.1477 18.125 16.9819V12.6069C18.125 12.4412 18.0592 12.2822 17.942 12.165C17.8248 12.0478 17.6658 11.9819 17.5 11.9819ZM16.875 16.3569H11.25V13.2319H16.875V16.3569Z" fill="#5D716C"/>
</svg>
