<svg width="20" height="21" viewBox="0 0 20 21" fill="none" xmlns="http://www.w3.org/2000/svg">
<path d="M16.25 3.23193H14.375V2.60693C14.375 2.44117 14.3092 2.2822 14.1919 2.16499C14.0747 2.04778 13.9158 1.98193 13.75 1.98193C13.5842 1.98193 13.4253 2.04778 13.3081 2.16499C13.1908 2.2822 13.125 2.44117 13.125 2.60693V3.23193H6.875V2.60693C6.875 2.44117 6.80915 2.2822 6.69194 2.16499C6.57473 2.04778 6.41576 1.98193 6.25 1.98193C6.08424 1.98193 5.92527 2.04778 5.80806 2.16499C5.69085 2.2822 5.625 2.44117 5.625 2.60693V3.23193H3.75C3.41848 3.23193 3.10054 3.36363 2.86612 3.59805C2.6317 3.83247 2.5 4.15041 2.5 4.48193V16.9819C2.5 17.3135 2.6317 17.6314 2.86612 17.8658C3.10054 18.1002 3.41848 18.2319 3.75 18.2319H16.25C16.5815 18.2319 16.8995 18.1002 17.1339 17.8658C17.3683 17.6314 17.5 17.3135 17.5 16.9819V4.48193C17.5 4.15041 17.3683 3.83247 17.1339 3.59805C16.8995 3.36363 16.5815 3.23193 16.25 3.23193ZM5.625 4.48193V5.10693C5.625 5.27269 5.69085 5.43166 5.80806 5.54888C5.92527 5.66609 6.08424 5.73193 6.25 5.73193C6.41576 5.73193 6.57473 5.66609 6.69194 5.54888C6.80915 5.43166 6.875 5.27269 6.875 5.10693V4.48193H13.125V5.10693C13.125 5.27269 13.1908 5.43166 13.3081 5.54888C13.4253 5.66609 13.5842 5.73193 13.75 5.73193C13.9158 5.73193 14.0747 5.66609 14.1919 5.54888C14.3092 5.43166 14.375 5.27269 14.375 5.10693V4.48193H16.25V6.98193H3.75V4.48193H5.625ZM16.25 16.9819H3.75V8.23193H16.25V16.9819ZM10.9375 11.0444C10.9375 11.2299 10.8825 11.4111 10.7795 11.5653C10.6765 11.7195 10.5301 11.8396 10.3588 11.9106C10.1875 11.9815 9.99896 12.0001 9.8171 11.9639C9.63525 11.9277 9.4682 11.8385 9.33709 11.7073C9.20598 11.5762 9.11669 11.4092 9.08051 11.2273C9.04434 11.0455 9.06291 10.857 9.13386 10.6857C9.20482 10.5144 9.32498 10.3679 9.47915 10.2649C9.63332 10.1619 9.81458 10.1069 10 10.1069C10.2486 10.1069 10.4871 10.2057 10.6629 10.3815C10.8387 10.5573 10.9375 10.7958 10.9375 11.0444ZM14.375 11.0444C14.375 11.2299 14.32 11.4111 14.217 11.5653C14.114 11.7195 13.9676 11.8396 13.7963 11.9106C13.625 11.9815 13.4365 12.0001 13.2546 11.9639C13.0727 11.9277 12.9057 11.8385 12.7746 11.7073C12.6435 11.5762 12.5542 11.4092 12.518 11.2273C12.4818 11.0455 12.5004 10.857 12.5714 10.6857C12.6423 10.5144 12.7625 10.3679 12.9167 10.2649C13.0708 10.1619 13.2521 10.1069 13.4375 10.1069C13.6861 10.1069 13.9246 10.2057 14.1004 10.3815C14.2762 10.5573 14.375 10.7958 14.375 11.0444ZM7.5 14.1694C7.5 14.3549 7.44502 14.5361 7.342 14.6903C7.23899 14.8445 7.09257 14.9646 6.92127 15.0356C6.74996 15.1065 6.56146 15.1251 6.3796 15.0889C6.19775 15.0527 6.0307 14.9635 5.89959 14.8323C5.76848 14.7012 5.67919 14.5342 5.64301 14.3523C5.60684 14.1705 5.62541 13.982 5.69636 13.8107C5.76732 13.6394 5.88748 13.4929 6.04165 13.3899C6.19582 13.2869 6.37708 13.2319 6.5625 13.2319C6.81114 13.2319 7.0496 13.3307 7.22541 13.5065C7.40123 13.6823 7.5 13.9208 7.5 14.1694ZM10.9375 14.1694C10.9375 14.3549 10.8825 14.5361 10.7795 14.6903C10.6765 14.8445 10.5301 14.9646 10.3588 15.0356C10.1875 15.1065 9.99896 15.1251 9.8171 15.0889C9.63525 15.0527 9.4682 14.9635 9.33709 14.8323C9.20598 14.7012 9.11669 14.5342 9.08051 14.3523C9.04434 14.1705 9.06291 13.982 9.13386 13.8107C9.20482 13.6394 9.32498 13.4929 9.47915 13.3899C9.63332 13.2869 9.81458 13.2319 10 13.2319C10.2486 13.2319 10.4871 13.3307 10.6629 13.5065C10.8387 13.6823 10.9375 13.9208 10.9375 14.1694ZM14.375 14.1694C14.375 14.3549 14.32 14.5361 14.217 14.6903C14.114 14.8445 13.9676 14.9646 13.7963 15.0356C13.625 15.1065 13.4365 15.1251 13.2546 15.0889C13.0727 15.0527 12.9057 14.9635 12.7746 14.8323C12.6435 14.7012 12.5542 14.5342 12.518 14.3523C12.4818 14.1705 12.5004 13.982 12.5714 13.8107C12.6423 13.6394 12.7625 13.4929 12.9167 13.3899C13.0708 13.2869 13.2521 13.2319 13.4375 13.2319C13.6861 13.2319 13.9246 13.3307 14.1004 13.5065C14.2762 13.6823 14.375 13.9208 14.375 14.1694Z" fill="#5D716C"/>
</svg>
