<svg width="20" height="21" viewBox="0 0 20 21" fill="none" xmlns="http://www.w3.org/2000/svg">
<path d="M16.875 5.73193H4.375C4.20924 5.73193 4.05027 5.66609 3.93306 5.54888C3.81585 5.43166 3.75 5.27269 3.75 5.10693C3.75 4.94117 3.81585 4.7822 3.93306 4.66499C4.05027 4.54778 4.20924 4.48193 4.375 4.48193H15C15.1658 4.48193 15.3247 4.41609 15.4419 4.29888C15.5592 4.18167 15.625 4.02269 15.625 3.85693C15.625 3.69117 15.5592 3.5322 15.4419 3.41499C15.3247 3.29778 15.1658 3.23193 15 3.23193H4.375C3.87772 3.23193 3.40081 3.42948 3.04917 3.78111C2.69754 4.13274 2.5 4.60965 2.5 5.10693V15.1069C2.5 15.6042 2.69754 16.0811 3.04917 16.4328C3.40081 16.7844 3.87772 16.9819 4.375 16.9819H16.875C17.2065 16.9819 17.5245 16.8502 17.7589 16.6158C17.9933 16.3814 18.125 16.0635 18.125 15.7319V6.98193C18.125 6.65041 17.9933 6.33247 17.7589 6.09805C17.5245 5.86363 17.2065 5.73193 16.875 5.73193ZM16.875 15.7319H4.375C4.20924 15.7319 4.05027 15.6661 3.93306 15.5489C3.81585 15.4317 3.75 15.2727 3.75 15.1069V6.8749C3.95068 6.94604 4.16208 6.98224 4.375 6.98193H16.875V15.7319ZM13.125 11.0444C13.125 10.859 13.18 10.6778 13.283 10.5236C13.386 10.3694 13.5324 10.2493 13.7037 10.1783C13.875 10.1073 14.0635 10.0888 14.2454 10.1249C14.4273 10.1611 14.5943 10.2504 14.7254 10.3815C14.8565 10.5126 14.9458 10.6797 14.982 10.8615C15.0182 11.0434 14.9996 11.2319 14.9286 11.4032C14.8577 11.5745 14.7375 11.7209 14.5833 11.8239C14.4292 11.9269 14.2479 11.9819 14.0625 11.9819C13.8139 11.9819 13.5754 11.8832 13.3996 11.7073C13.2238 11.5315 13.125 11.2931 13.125 11.0444Z" fill="#5D716C"/>
</svg>
