<svg width="16" height="16" viewBox="0 0 16 16" fill="none" xmlns="http://www.w3.org/2000/svg">
<path d="M14.25 0.5H1.75C1.41848 0.5 1.10054 0.631696 0.866116 0.866116C0.631696 1.10054 0.5 1.41848 0.5 1.75V14.25C0.5 14.5815 0.631696 14.8995 0.866116 15.1339C1.10054 15.3683 1.41848 15.5 1.75 15.5H14.25C14.5815 15.5 14.8995 15.3683 15.1339 15.1339C15.3683 14.8995 15.5 14.5815 15.5 14.25V1.75C15.5 1.41848 15.3683 1.10054 15.1339 0.866116C14.8995 0.631696 14.5815 0.5 14.25 0.5ZM14.25 14.25H1.75V1.75H14.25V14.25ZM3.625 3.9375C3.625 3.75208 3.67998 3.57082 3.783 3.41665C3.88601 3.26248 4.03243 3.14232 4.20373 3.07136C4.37504 3.00041 4.56354 2.98184 4.7454 3.01801C4.92725 3.05419 5.0943 3.14348 5.22541 3.27459C5.35652 3.4057 5.44581 3.57275 5.48199 3.7546C5.51816 3.93646 5.49959 4.12496 5.42864 4.29627C5.35768 4.46757 5.23752 4.61399 5.08335 4.717C4.92918 4.82002 4.74792 4.875 4.5625 4.875C4.31386 4.875 4.0754 4.77623 3.89959 4.60041C3.72377 4.4246 3.625 4.18614 3.625 3.9375ZM7.0625 3.9375C7.0625 3.75208 7.11748 3.57082 7.2205 3.41665C7.32351 3.26248 7.46993 3.14232 7.64123 3.07136C7.81254 3.00041 8.00104 2.98184 8.1829 3.01801C8.36475 3.05419 8.5318 3.14348 8.66291 3.27459C8.79402 3.4057 8.88331 3.57275 8.91949 3.7546C8.95566 3.93646 8.93709 4.12496 8.86614 4.29627C8.79518 4.46757 8.67502 4.61399 8.52085 4.717C8.36668 4.82002 8.18542 4.875 8 4.875C7.75136 4.875 7.5129 4.77623 7.33709 4.60041C7.16127 4.4246 7.0625 4.18614 7.0625 3.9375ZM10.5 3.9375C10.5 3.75208 10.555 3.57082 10.658 3.41665C10.761 3.26248 10.9074 3.14232 11.0787 3.07136C11.25 3.00041 11.4385 2.98184 11.6204 3.01801C11.8023 3.05419 11.9693 3.14348 12.1004 3.27459C12.2315 3.4057 12.3208 3.57275 12.357 3.7546C12.3932 3.93646 12.3746 4.12496 12.3036 4.29627C12.2327 4.46757 12.1125 4.61399 11.9583 4.717C11.8042 4.82002 11.6229 4.875 11.4375 4.875C11.1889 4.875 10.9504 4.77623 10.7746 4.60041C10.5988 4.4246 10.5 4.18614 10.5 3.9375ZM12.375 6.125H3.625C3.45924 6.125 3.30027 6.19085 3.18306 6.30806C3.06585 6.42527 3 6.58424 3 6.75V12.375C3 12.5408 3.06585 12.6997 3.18306 12.8169C3.30027 12.9342 3.45924 13 3.625 13H12.375C12.5408 13 12.6997 12.9342 12.8169 12.8169C12.9342 12.6997 13 12.5408 13 12.375V6.75C13 6.58424 12.9342 6.42527 12.8169 6.30806C12.6997 6.19085 12.5408 6.125 12.375 6.125ZM11.75 11.75H4.25V7.375H11.75V11.75Z" fill="#212529"/>
</svg>
