<svg width="14" height="14" viewBox="0 0 14 14" fill="none" xmlns="http://www.w3.org/2000/svg">
<path d="M7.00084 0.5C6.86824 0.5 6.74106 0.552678 6.64729 0.646447C6.55352 0.740215 6.50084 0.867392 6.50084 1V4.5C6.50084 4.63261 6.55352 4.75979 6.64729 4.85355C6.74106 4.94732 6.86824 5 7.00084 5C7.44109 5.0001 7.86901 5.14546 8.21823 5.41353C8.56745 5.68161 8.81846 6.05742 8.93233 6.48269C9.04621 6.90795 9.01658 7.35891 8.84805 7.76563C8.67951 8.17234 8.38149 8.51208 8.0002 8.73216C7.61891 8.95225 7.17565 9.04037 6.73918 8.98287C6.3027 8.92537 5.89739 8.72545 5.5861 8.41413C5.27482 8.10281 5.07495 7.69748 5.0175 7.261C4.96005 6.82451 5.04822 6.38127 5.26834 6C5.30119 5.94312 5.3225 5.88034 5.33108 5.81522C5.33965 5.7501 5.33531 5.68394 5.3183 5.6205C5.30129 5.55706 5.27196 5.4976 5.23196 5.4455C5.19197 5.3934 5.14211 5.3497 5.08522 5.31687L2.05397 3.56687C1.99709 3.53403 1.9343 3.51272 1.86919 3.50414C1.80407 3.49557 1.73791 3.49991 1.67447 3.51692C1.61103 3.53392 1.55157 3.56326 1.49947 3.60325C1.44737 3.64325 1.40367 3.69311 1.37084 3.75C0.655426 4.98914 0.368865 6.42972 0.555604 7.84832C0.742343 9.26692 1.39195 10.5843 2.40367 11.596C3.41539 12.6078 4.73269 13.2575 6.15128 13.4444C7.56987 13.6312 9.01046 13.3447 10.2496 12.6294C11.4888 11.914 12.4574 10.8098 13.005 9.48792C13.5527 8.16605 13.6489 6.7004 13.2787 5.31828C12.9085 3.93616 12.0926 2.71481 10.9575 1.84365C9.82248 0.972482 8.43168 0.500184 7.00084 0.5ZM2.00647 4.69375L4.18834 5.95375C4.06418 6.28859 4.00069 6.64288 4.00084 7C4.00084 7.09562 4.00584 7.1875 4.01459 7.2825L1.58084 7.9375C1.39105 6.83809 1.53947 5.70697 2.00647 4.69375ZM1.83959 8.90063L4.27709 8.24813C4.48089 8.69235 4.78991 9.08019 5.1774 9.37805C5.56489 9.67591 6.01915 9.8748 6.50084 9.9575V12.4769C5.46574 12.3809 4.47885 11.9943 3.65409 11.3615C2.82932 10.7287 2.20029 9.87559 1.83959 8.90063ZM7.50084 12.4769V9.9575C8.1996 9.83906 8.83387 9.47706 9.29123 8.93566C9.74859 8.39426 9.9995 7.70841 9.9995 6.99969C9.9995 6.29096 9.74859 5.60512 9.29123 5.06372C8.83387 4.52231 8.1996 4.16031 7.50084 4.04187V1.5225C8.86721 1.64734 10.1376 2.27837 11.0626 3.29174C11.9876 4.30511 12.5004 5.62763 12.5004 6.99969C12.5004 8.37175 11.9876 9.69426 11.0626 10.7076C10.1376 11.721 8.86721 12.352 7.50084 12.4769Z" fill="#212529"/>
</svg>
