<svg width="32" height="32" viewBox="0 0 32 32" fill="none" xmlns="http://www.w3.org/2000/svg">
<g clip-path="url(#clip0_321_11060)">
<path d="M22.958 7.92041H7.91801C7.43801 7.92041 6.99801 8.32041 6.99801 8.84041V10.5204C6.99801 11.0404 7.43801 11.4804 7.91801 11.4804H22.958C23.478 11.4804 23.878 11.0404 23.918 10.5204V8.88041C23.918 8.32041 23.478 7.92041 22.958 7.92041ZM22.958 17.3604H7.91801C7.67801 17.3604 7.43801 17.4804 7.23801 17.6404C7.07801 17.8004 6.95801 18.0404 6.95801 18.3204V20.0004C6.95801 20.5204 7.39801 20.9604 7.87801 20.9604H22.918C23.438 20.9604 23.838 20.5604 23.878 20.0004V18.3204C23.918 17.7604 23.478 17.3604 22.958 17.3604ZM16.398 22.0404H7.91801C7.67801 22.0404 7.43801 22.1204 7.27801 22.3204C7.11801 22.4804 6.99801 22.7204 6.99801 23.0004V24.6804C6.99801 25.2004 7.43801 25.6404 7.91801 25.6404H16.358C16.878 25.6404 17.278 25.2004 17.278 24.6804V22.9604C17.318 22.4804 16.918 22.0404 16.398 22.0404ZM23.918 12.6404H7.91801C7.67801 12.6404 7.43801 12.7204 7.27801 12.9204C7.11801 13.0804 6.99801 13.3204 6.99801 13.6004V15.2804C6.99801 15.8004 7.43801 16.2404 7.91801 16.2404H23.878C24.398 16.2404 24.798 15.8004 24.798 15.2804V13.6004C24.838 13.0404 24.438 12.6404 23.918 12.6404Z" fill="#00C3F7"/>
</g>
<defs>
<clipPath id="clip0_321_11060">
<rect width="20" height="20" fill="white" transform="translate(7 6)"/>
</clipPath>
</defs>
</svg>
