<svg width="20" height="24" viewBox="0 0 20 24" fill="none" xmlns="http://www.w3.org/2000/svg">
<path d="M17.3727 14.3797L13.6922 12.7304L13.682 12.7257C13.491 12.644 13.2825 12.6112 13.0756 12.6303C12.8687 12.6494 12.6698 12.7198 12.4969 12.8351C12.4765 12.8486 12.457 12.8632 12.4383 12.8789L10.5367 14.5C9.33204 13.9148 8.08829 12.6804 7.50313 11.4914L9.12657 9.5609C9.14219 9.54137 9.15704 9.52184 9.1711 9.50075C9.28394 9.32833 9.35239 9.13068 9.37039 8.92541C9.38838 8.72014 9.35534 8.5136 9.27423 8.32418V8.31481L7.62032 4.62809C7.51309 4.38064 7.3287 4.17451 7.09468 4.04046C6.86067 3.90642 6.58958 3.85165 6.32188 3.88434C5.26326 4.02364 4.29155 4.54353 3.58824 5.34691C2.88492 6.15029 2.49809 7.18222 2.50001 8.24996C2.50001 14.4531 7.54688 19.5 13.75 19.5C14.8177 19.5019 15.8497 19.1151 16.6531 18.4117C17.4564 17.7084 17.9763 16.7367 18.1156 15.6781C18.1484 15.4105 18.0937 15.1395 17.9598 14.9055C17.8259 14.6715 17.62 14.487 17.3727 14.3797ZM13.75 18.25C11.0987 18.2471 8.55687 17.1926 6.68214 15.3178C4.8074 13.4431 3.7529 10.9012 3.75001 8.24996C3.74707 7.48706 4.02192 6.74918 4.52324 6.17411C5.02456 5.59904 5.71806 5.22611 6.47423 5.12496C6.47392 5.12808 6.47392 5.13122 6.47423 5.13434L8.11485 8.80621L6.50001 10.739C6.48362 10.7579 6.46873 10.778 6.45548 10.7992C6.33791 10.9796 6.26894 11.1873 6.25525 11.4022C6.24157 11.6171 6.28362 11.8319 6.37735 12.0257C7.08516 13.4734 8.54376 14.9211 10.007 15.6281C10.2023 15.7209 10.4184 15.7615 10.634 15.7459C10.8497 15.7303 11.0576 15.659 11.2375 15.539C11.2576 15.5255 11.2769 15.5109 11.2953 15.4953L13.1945 13.875L16.8664 15.5195C16.8664 15.5195 16.8727 15.5195 16.875 15.5195C16.7751 16.2767 16.4027 16.9716 15.8275 17.4742C15.2524 17.9767 14.5138 18.2525 13.75 18.25Z" fill="#889491"/>
</svg>
