<svg width="18" height="16" viewBox="0 0 18 16" fill="none" xmlns="http://www.w3.org/2000/svg">
<path d="M15.875 4.62499H13.1344C13.1648 4.59921 13.1961 4.57421 13.2258 4.54687C13.4631 4.33607 13.6543 4.07858 13.7875 3.7905C13.9207 3.50243 13.9931 3.18996 14 2.87265C14.0103 2.52552 13.9495 2.17995 13.8213 1.85717C13.6932 1.53438 13.5005 1.24119 13.255 0.99559C13.0094 0.749988 12.7163 0.557161 12.3936 0.428946C12.0708 0.30073 11.7253 0.239833 11.3781 0.249992C11.0607 0.256829 10.7481 0.329121 10.4598 0.462341C10.1716 0.595562 9.91401 0.786843 9.70312 1.02421C9.41131 1.36241 9.17408 1.74409 9 2.15546C8.82592 1.74409 8.58869 1.36241 8.29688 1.02421C8.08599 0.786843 7.82837 0.595562 7.54015 0.462341C7.25193 0.329121 6.93932 0.256829 6.62187 0.249992C6.27474 0.239833 5.9292 0.30073 5.60645 0.428946C5.2837 0.557161 4.99057 0.749988 4.74504 0.99559C4.49951 1.24119 4.30677 1.53438 4.17865 1.85717C4.05053 2.17995 3.98974 2.52552 4 2.87265C4.00694 3.18996 4.07929 3.50243 4.2125 3.7905C4.34572 4.07858 4.53695 4.33607 4.77422 4.54687C4.80391 4.57265 4.83516 4.59765 4.86563 4.62499H2.125C1.79348 4.62499 1.47554 4.75669 1.24112 4.99111C1.0067 5.22553 0.875 5.54347 0.875 5.87499V8.37499C0.875 8.70651 1.0067 9.02446 1.24112 9.25887C1.47554 9.4933 1.79348 9.62499 2.125 9.62499V14.625C2.125 14.9565 2.2567 15.2745 2.49112 15.5089C2.72554 15.7433 3.04348 15.875 3.375 15.875H14.625C14.9565 15.875 15.2745 15.7433 15.5089 15.5089C15.7433 15.2745 15.875 14.9565 15.875 14.625V9.62499C16.2065 9.62499 16.5245 9.4933 16.7589 9.25887C16.9933 9.02446 17.125 8.70651 17.125 8.37499V5.87499C17.125 5.54347 16.9933 5.22553 16.7589 4.99111C16.5245 4.75669 16.2065 4.62499 15.875 4.62499ZM10.6406 1.85234C10.7396 1.74305 10.8601 1.65541 10.9945 1.59491C11.129 1.53441 11.2745 1.50236 11.4219 1.50077H11.4602C11.6329 1.50185 11.8038 1.53741 11.9626 1.60536C12.1215 1.67331 12.2652 1.77229 12.3854 1.89649C12.5055 2.02069 12.5996 2.16762 12.6622 2.32867C12.7248 2.48971 12.7547 2.66164 12.75 2.83437C12.7484 2.98179 12.7164 3.12729 12.6559 3.26173C12.5954 3.39617 12.5077 3.51666 12.3984 3.61562C11.657 4.27187 10.4266 4.50312 9.66406 4.58437C9.75781 3.75702 10.0156 2.55468 10.6406 1.85234ZM5.63359 1.88046C5.87574 1.63834 6.20367 1.50161 6.54609 1.49999H6.58438C6.7318 1.50158 6.87729 1.53363 7.01174 1.59413C7.14618 1.65463 7.26667 1.74227 7.36563 1.85155C8.02109 2.59218 8.25234 3.8203 8.33359 4.57968C7.57422 4.50155 6.34609 4.26718 5.60547 3.61171C5.49619 3.51275 5.40855 3.39227 5.34805 3.25782C5.28755 3.12338 5.2555 2.97788 5.25391 2.83046C5.24906 2.65486 5.27994 2.48011 5.34467 2.31681C5.4094 2.1535 5.50663 2.00505 5.63047 1.88046H5.63359ZM2.125 5.87499H8.375V8.37499H2.125V5.87499ZM3.375 9.62499H8.375V14.625H3.375V9.62499ZM14.625 14.625H9.625V9.62499H14.625V14.625ZM15.875 8.37499H9.625V5.87499H15.875V8.37499Z" fill="#212529"/>
</svg>
