<svg width="17" height="17" viewBox="0 0 17 17" fill="none" xmlns="http://www.w3.org/2000/svg">
<path d="M16.5172 15.5625C15.3274 13.5055 13.4938 12.0305 11.3539 11.3312C12.4124 10.7011 13.2348 9.74099 13.6947 8.59827C14.1547 7.45554 14.2268 6.19343 13.9001 5.00574C13.5733 3.81805 12.8657 2.77045 11.8859 2.02384C10.9062 1.27722 9.70841 0.872864 8.47659 0.872864C7.24477 0.872864 6.047 1.27722 5.06724 2.02384C4.08747 2.77045 3.37987 3.81805 3.05311 5.00574C2.72635 6.19343 2.79849 7.45554 3.25846 8.59827C3.71842 9.74099 4.54078 10.7011 5.59925 11.3312C3.4594 12.0297 1.62581 13.5047 0.435966 15.5625C0.392332 15.6336 0.36339 15.7128 0.350848 15.7953C0.338305 15.8778 0.342416 15.962 0.362938 16.0429C0.38346 16.1238 0.419977 16.1998 0.470335 16.2663C0.520692 16.3329 0.58387 16.3887 0.656142 16.4304C0.728413 16.4722 0.808313 16.499 0.891128 16.5094C0.973943 16.5198 1.058 16.5134 1.13833 16.4908C1.21866 16.4682 1.29364 16.4296 1.35885 16.3776C1.42406 16.3255 1.47817 16.2608 1.518 16.1875C2.98987 13.6437 5.59143 12.125 8.47659 12.125C11.3617 12.125 13.9633 13.6437 15.4352 16.1875C15.475 16.2608 15.5291 16.3255 15.5943 16.3776C15.6595 16.4296 15.7345 16.4682 15.8149 16.4908C15.8952 16.5134 15.9792 16.5198 16.0621 16.5094C16.1449 16.499 16.2248 16.4722 16.297 16.4304C16.3693 16.3887 16.4325 16.3329 16.4828 16.2663C16.5332 16.1998 16.5697 16.1238 16.5902 16.0429C16.6108 15.962 16.6149 15.8778 16.6023 15.7953C16.5898 15.7128 16.5608 15.6336 16.5172 15.5625ZM4.10159 6.49999C4.10159 5.6347 4.35818 4.78883 4.83891 4.06937C5.31964 3.3499 6.00292 2.78915 6.80235 2.45802C7.60178 2.12688 8.48144 2.04024 9.33011 2.20905C10.1788 2.37786 10.9583 2.79454 11.5702 3.4064C12.182 4.01825 12.5987 4.7978 12.7675 5.64647C12.9363 6.49514 12.8497 7.3748 12.5186 8.17423C12.1874 8.97366 11.6267 9.65694 10.9072 10.1377C10.1877 10.6184 9.34188 10.875 8.47659 10.875C7.31665 10.8737 6.20457 10.4124 5.38437 9.59221C4.56417 8.77201 4.10283 7.65993 4.10159 6.49999Z" fill="#444648"/>
</svg>
