<svg width="16" height="16" viewBox="0 0 16 16" fill="none" xmlns="http://www.w3.org/2000/svg">
<path d="M13.7069 6.79242L8.70688 1.79242C8.51936 1.60502 8.26511 1.49976 8.00001 1.49976C7.7349 1.49976 7.48065 1.60502 7.29313 1.79242L2.29313 6.79242C2.19982 6.88503 2.12586 6.99528 2.07553 7.11674C2.02521 7.2382 1.99954 7.36845 2.00001 7.49992V13.4999C2.00001 13.6325 2.05268 13.7597 2.14645 13.8535C2.24022 13.9472 2.3674 13.9999 2.50001 13.9999H13.5C13.6326 13.9999 13.7598 13.9472 13.8536 13.8535C13.9473 13.7597 14 13.6325 14 13.4999V7.49992C14.0005 7.36845 13.9748 7.2382 13.9245 7.11674C13.8742 6.99528 13.8002 6.88503 13.7069 6.79242ZM13 12.9999H3.00001V7.49992L8.00001 2.49992L13 7.49992V12.9999Z" fill="#212529"/>
</svg>
