<svg width="24" height="24" viewBox="0 0 24 24" fill="none" xmlns="http://www.w3.org/2000/svg">
<rect width="24" height="24" rx="12" fill="#F2F2F2"/>
<path d="M16.125 9.37468H14.4806C14.4989 9.35921 14.5177 9.34421 14.5355 9.3278C14.6778 9.20132 14.7926 9.04683 14.8725 8.87398C14.9524 8.70114 14.9958 8.51366 15 8.32327C15.0062 8.11499 14.9697 7.90766 14.8928 7.71398C14.8159 7.52031 14.7003 7.3444 14.553 7.19704C14.4057 7.04968 14.2298 6.93398 14.0361 6.85705C13.8425 6.78012 13.6352 6.74358 13.4269 6.74968C13.2364 6.75378 13.0488 6.79716 12.8759 6.87709C12.703 6.95702 12.5484 7.07179 12.4219 7.21421C12.2468 7.41713 12.1044 7.64614 12 7.89296C11.8956 7.64614 11.7532 7.41713 11.5781 7.21421C11.4516 7.07179 11.297 6.95702 11.1241 6.87709C10.9512 6.79716 10.7636 6.75378 10.5731 6.74968C10.3648 6.74358 10.1575 6.78012 9.96387 6.85705C9.77022 6.93398 9.59434 7.04968 9.44702 7.19704C9.29971 7.3444 9.18406 7.52031 9.10719 7.71398C9.03032 7.90766 8.99384 8.11499 9 8.32327C9.00417 8.51366 9.04757 8.70114 9.1275 8.87398C9.20743 9.04683 9.32217 9.20132 9.46453 9.3278C9.48234 9.34327 9.50109 9.35827 9.51938 9.37468H7.875C7.67609 9.37468 7.48532 9.4537 7.34467 9.59435C7.20402 9.735 7.125 9.92577 7.125 10.1247V11.6247C7.125 11.8236 7.20402 12.0144 7.34467 12.155C7.48532 12.2957 7.67609 12.3747 7.875 12.3747V15.3747C7.875 15.5736 7.95402 15.7644 8.09467 15.905C8.23532 16.0457 8.42609 16.1247 8.625 16.1247H11.4375C11.4872 16.1247 11.5349 16.1049 11.5701 16.0698C11.6052 16.0346 11.625 15.9869 11.625 15.9372V11.6247H7.875V10.1247H11.625V11.6247H12.375V10.1247H16.125V11.6247H12.375V15.9372C12.375 15.9869 12.3948 16.0346 12.4299 16.0698C12.4651 16.1049 12.5128 16.1247 12.5625 16.1247H15.375C15.5739 16.1247 15.7647 16.0457 15.9053 15.905C16.046 15.7644 16.125 15.5736 16.125 15.3747V12.3747C16.3239 12.3747 16.5147 12.2957 16.6553 12.155C16.796 12.0144 16.875 11.8236 16.875 11.6247V10.1247C16.875 9.92577 16.796 9.735 16.6553 9.59435C16.5147 9.4537 16.3239 9.37468 16.125 9.37468ZM9.96141 8.7653C9.89584 8.70593 9.84325 8.63364 9.80695 8.55297C9.77065 8.4723 9.75142 8.385 9.75047 8.29655C9.7481 8.19291 9.76644 8.08984 9.80441 7.99338C9.84238 7.89692 9.89922 7.80901 9.9716 7.73479C10.044 7.66058 10.1304 7.60155 10.2259 7.56118C10.3214 7.52081 10.424 7.4999 10.5277 7.49968H10.5506C10.6391 7.50063 10.7264 7.51986 10.807 7.55616C10.8877 7.59246 10.96 7.64505 11.0194 7.71062C11.4127 8.15499 11.5514 8.89187 11.6002 9.34749C11.1427 9.29921 10.4062 9.16046 9.96141 8.7653ZM14.0395 8.7653C13.5947 9.15905 12.8564 9.2978 12.3989 9.34655C12.4547 8.8539 12.6094 8.13249 12.9844 7.71108C13.0438 7.64552 13.116 7.59293 13.1967 7.55663C13.2774 7.52033 13.3647 7.5011 13.4531 7.50015H13.4761C13.5798 7.50079 13.6823 7.52213 13.7776 7.5629C13.8729 7.60367 13.9591 7.66305 14.0312 7.73758C14.1033 7.8121 14.1598 7.90025 14.1973 7.99688C14.2349 8.09351 14.2528 8.19667 14.25 8.3003C14.2485 8.38815 14.2289 8.47476 14.1926 8.55474C14.1562 8.63473 14.1038 8.7064 14.0386 8.7653H14.0395Z" fill="#212529"/>
</svg>
