<svg width="24" height="24" viewBox="0 0 24 24" fill="none" xmlns="http://www.w3.org/2000/svg">
<rect width="24" height="24" rx="12" fill="#F2F2F2"/>
<path d="M16.125 10.875V13.125C16.125 14.219 15.6904 15.2682 14.9168 16.0418C14.1432 16.8154 13.094 17.25 12 17.25C10.906 17.25 9.85677 16.8154 9.08318 16.0418C8.3096 15.2682 7.875 14.219 7.875 13.125V9C7.875 8.80109 7.95402 8.61032 8.09467 8.46967C8.23532 8.32902 8.42609 8.25 8.625 8.25C8.82391 8.25 9.01468 8.32902 9.15533 8.46967C9.29598 8.61032 9.375 8.80109 9.375 9V11.625C9.375 11.7245 9.41451 11.8198 9.48484 11.8902C9.55516 11.9605 9.65054 12 9.75 12C9.84946 12 9.94484 11.9605 10.0152 11.8902C10.0855 11.8198 10.125 11.7245 10.125 11.625V7.5C10.125 7.30109 10.204 7.11032 10.3447 6.96967C10.4853 6.82902 10.6761 6.75 10.875 6.75C11.0739 6.75 11.2647 6.82902 11.4053 6.96967C11.546 7.11032 11.625 7.30109 11.625 7.5V11.25C11.625 11.3495 11.6645 11.4448 11.7348 11.5152C11.8052 11.5855 11.9005 11.625 12 11.625C12.0995 11.625 12.1948 11.5855 12.2652 11.5152C12.3355 11.4448 12.375 11.3495 12.375 11.25V8.25C12.375 8.05109 12.454 7.86032 12.5947 7.71967C12.7353 7.57902 12.9261 7.5 13.125 7.5C13.3239 7.5 13.5147 7.57902 13.6553 7.71967C13.796 7.86032 13.875 8.05109 13.875 8.25V12.0314C13.351 12.1207 12.8755 12.3924 12.5324 12.7983C12.1893 13.2043 12.0007 13.7185 12 14.25C12 14.3495 12.0395 14.4448 12.1098 14.5152C12.1802 14.5855 12.2755 14.625 12.375 14.625C12.4745 14.625 12.5698 14.5855 12.6402 14.5152C12.7105 14.4448 12.75 14.3495 12.75 14.25C12.75 13.8522 12.908 13.4706 13.1893 13.1893C13.4706 12.908 13.8522 12.75 14.25 12.75C14.3495 12.75 14.4448 12.7105 14.5152 12.6402C14.5855 12.5698 14.625 12.4745 14.625 12.375V10.875C14.625 10.6761 14.704 10.4853 14.8447 10.3447C14.9853 10.204 15.1761 10.125 15.375 10.125C15.5739 10.125 15.7647 10.204 15.9053 10.3447C16.046 10.4853 16.125 10.6761 16.125 10.875Z" fill="#212529"/>
</svg>
