<svg width="24" height="24" viewBox="0 0 24 24" fill="none" xmlns="http://www.w3.org/2000/svg">
<rect width="24" height="24" rx="12" fill="#F2F2F2"/>
<path d="M14.625 10.1986V9.9375C14.625 8.76188 12.8517 7.875 10.5 7.875C8.14828 7.875 6.375 8.76188 6.375 9.9375V11.8125C6.375 12.7917 7.60547 13.5698 9.375 13.8028V14.0625C9.375 15.2381 11.1483 16.125 13.5 16.125C15.8517 16.125 17.625 15.2381 17.625 14.0625V12.1875C17.625 11.2172 16.4334 10.4381 14.625 10.1986ZM8.625 12.8845C7.70672 12.6281 7.125 12.2058 7.125 11.8125V11.153C7.5075 11.4239 8.01984 11.6423 8.625 11.7891V12.8845ZM12.375 11.7891C12.9802 11.6423 13.4925 11.4239 13.875 11.153V11.8125C13.875 12.2058 13.2933 12.6281 12.375 12.8845V11.7891ZM11.625 15.1345C10.7067 14.8781 10.125 14.4558 10.125 14.0625V13.867C10.2483 13.8717 10.373 13.875 10.5 13.875C10.6819 13.875 10.8595 13.8689 11.0339 13.8586C11.2276 13.9279 11.4249 13.9868 11.625 14.0348V15.1345ZM11.625 13.043C11.2525 13.098 10.8765 13.1254 10.5 13.125C10.1235 13.1254 9.74747 13.098 9.375 13.043V11.9278C9.74802 11.9764 10.1238 12.0005 10.5 12C10.8762 12.0005 11.252 11.9764 11.625 11.9278V13.043ZM14.625 15.293C13.879 15.4023 13.121 15.4023 12.375 15.293V14.175C12.7479 14.2251 13.1237 14.2502 13.5 14.25C13.8762 14.2505 14.252 14.2264 14.625 14.1778V15.293ZM16.875 14.0625C16.875 14.4558 16.2933 14.8781 15.375 15.1345V14.0391C15.9802 13.8923 16.4925 13.6739 16.875 13.403V14.0625Z" fill="#212529"/>
</svg>
