<svg width="72" height="72" viewBox="0 0 72 72" fill="none" xmlns="http://www.w3.org/2000/svg">
<g filter="url(#filter0_i_321_14064)">
<rect width="72" height="72" rx="36" fill="white"/>
<rect x="0.6" y="0.6" width="70.8" height="70.8" rx="35.4" stroke="white" stroke-width="1.2"/>
<path d="M45 23H27C26.4696 23 25.9609 23.2107 25.5858 23.5858C25.2107 23.9609 25 24.4696 25 25V47C25 47.5304 25.2107 48.0391 25.5858 48.4142C25.9609 48.7893 26.4696 49 27 49H45C45.5304 49 46.0391 48.7893 46.4142 48.4142C46.7893 48.0391 47 47.5304 47 47V25C47 24.4696 46.7893 23.9609 46.4142 23.5858C46.0391 23.2107 45.5304 23 45 23ZM31 45C30.7033 45 30.4133 44.912 30.1666 44.7472C29.92 44.5824 29.7277 44.3481 29.6142 44.074C29.5006 43.7999 29.4709 43.4983 29.5288 43.2074C29.5867 42.9164 29.7296 42.6491 29.9393 42.4393C30.1491 42.2296 30.4164 42.0867 30.7074 42.0288C30.9983 41.9709 31.2999 42.0007 31.574 42.1142C31.8481 42.2277 32.0824 42.42 32.2472 42.6666C32.412 42.9133 32.5 43.2033 32.5 43.5C32.5 43.8978 32.342 44.2794 32.0607 44.5607C31.7794 44.842 31.3978 45 31 45ZM31 40C30.7033 40 30.4133 39.912 30.1666 39.7472C29.92 39.5824 29.7277 39.3481 29.6142 39.074C29.5006 38.7999 29.4709 38.4983 29.5288 38.2074C29.5867 37.9164 29.7296 37.6491 29.9393 37.4393C30.1491 37.2296 30.4164 37.0867 30.7074 37.0288C30.9983 36.9709 31.2999 37.0007 31.574 37.1142C31.8481 37.2277 32.0824 37.42 32.2472 37.6666C32.412 37.9133 32.5 38.2033 32.5 38.5C32.5 38.8978 32.342 39.2794 32.0607 39.5607C31.7794 39.842 31.3978 40 31 40ZM36 45C35.7033 45 35.4133 44.912 35.1666 44.7472C34.92 44.5824 34.7277 44.3481 34.6142 44.074C34.5006 43.7999 34.4709 43.4983 34.5288 43.2074C34.5867 42.9164 34.7296 42.6491 34.9393 42.4393C35.1491 42.2296 35.4164 42.0867 35.7074 42.0288C35.9983 41.9709 36.2999 42.0007 36.574 42.1142C36.8481 42.2277 37.0824 42.42 37.2472 42.6666C37.412 42.9133 37.5 43.2033 37.5 43.5C37.5 43.8978 37.342 44.2794 37.0607 44.5607C36.7794 44.842 36.3978 45 36 45ZM36 40C35.7033 40 35.4133 39.912 35.1666 39.7472C34.92 39.5824 34.7277 39.3481 34.6142 39.074C34.5006 38.7999 34.4709 38.4983 34.5288 38.2074C34.5867 37.9164 34.7296 37.6491 34.9393 37.4393C35.1491 37.2296 35.4164 37.0867 35.7074 37.0288C35.9983 36.9709 36.2999 37.0007 36.574 37.1142C36.8481 37.2277 37.0824 37.42 37.2472 37.6666C37.412 37.9133 37.5 38.2033 37.5 38.5C37.5 38.8978 37.342 39.2794 37.0607 39.5607C36.7794 39.842 36.3978 40 36 40ZM41 45C40.7033 45 40.4133 44.912 40.1666 44.7472C39.92 44.5824 39.7277 44.3481 39.6142 44.074C39.5007 43.7999 39.4709 43.4983 39.5288 43.2074C39.5867 42.9164 39.7296 42.6491 39.9393 42.4393C40.1491 42.2296 40.4164 42.0867 40.7074 42.0288C40.9983 41.9709 41.2999 42.0007 41.574 42.1142C41.8481 42.2277 42.0824 42.42 42.2472 42.6666C42.412 42.9133 42.5 43.2033 42.5 43.5C42.5 43.8978 42.342 44.2794 42.0607 44.5607C41.7794 44.842 41.3978 45 41 45ZM41 40C40.7033 40 40.4133 39.912 40.1666 39.7472C39.92 39.5824 39.7277 39.3481 39.6142 39.074C39.5007 38.7999 39.4709 38.4983 39.5288 38.2074C39.5867 37.9164 39.7296 37.6491 39.9393 37.4393C40.1491 37.2296 40.4164 37.0867 40.7074 37.0288C40.9983 36.9709 41.2999 37.0007 41.574 37.1142C41.8481 37.2277 42.0824 37.42 42.2472 37.6666C42.412 37.9133 42.5 38.2033 42.5 38.5C42.5 38.8978 42.342 39.2794 42.0607 39.5607C41.7794 39.842 41.3978 40 41 40ZM43 33C43 33.2652 42.8946 33.5196 42.7071 33.7071C42.5196 33.8946 42.2652 34 42 34H30C29.7348 34 29.4804 33.8946 29.2929 33.7071C29.1054 33.5196 29 33.2652 29 33V28C29 27.7348 29.1054 27.4804 29.2929 27.2929C29.4804 27.1054 29.7348 27 30 27H42C42.2652 27 42.5196 27.1054 42.7071 27.2929C42.8946 27.4804 43 27.7348 43 28V33Z" fill="#5DAE2E"/>
</g>
<defs>
<filter id="filter0_i_321_14064" x="0" y="0" width="72" height="76" filterUnits="userSpaceOnUse" color-interpolation-filters="sRGB">
<feFlood flood-opacity="0" result="BackgroundImageFix"/>
<feBlend mode="normal" in="SourceGraphic" in2="BackgroundImageFix" result="shape"/>
<feColorMatrix in="SourceAlpha" type="matrix" values="0 0 0 0 0 0 0 0 0 0 0 0 0 0 0 0 0 0 127 0" result="hardAlpha"/>
<feMorphology radius="1" operator="erode" in="SourceAlpha" result="effect1_innerShadow_321_14064"/>
<feOffset dy="4"/>
<feGaussianBlur stdDeviation="3"/>
<feComposite in2="hardAlpha" operator="arithmetic" k2="-1" k3="1"/>
<feColorMatrix type="matrix" values="0 0 0 0 0.947063 0 0 0 0 1 0 0 0 0 0.900641 0 0 0 1 0"/>
<feBlend mode="normal" in2="shape" result="effect1_innerShadow_321_14064"/>
</filter>
</defs>
</svg>
