<svg width="20" height="20" viewBox="0 0 20 20" fill="none" xmlns="http://www.w3.org/2000/svg">
<path d="M6.29453 9.14062C6.3252 9.06431 6.37063 8.9948 6.42822 8.93608C6.4858 8.87736 6.55441 8.83059 6.63011 8.79844C6.70581 8.76628 6.78711 8.74939 6.86935 8.74872C6.9516 8.74805 7.03316 8.76362 7.10938 8.79453L9.375 9.70156V7.5C9.375 7.33424 9.44085 7.17527 9.55806 7.05806C9.67527 6.94085 9.83424 6.875 10 6.875C10.1658 6.875 10.3247 6.94085 10.4419 7.05806C10.5592 7.17527 10.625 7.33424 10.625 7.5V9.70156L12.8906 8.79453C12.9669 8.76375 13.0484 8.74829 13.1306 8.74902C13.2128 8.74976 13.2941 8.76668 13.3697 8.79882C13.4454 8.83096 13.514 8.87768 13.5716 8.93633C13.6292 8.99498 13.6747 9.0644 13.7055 9.14062C13.7362 9.21685 13.7517 9.2984 13.751 9.3806C13.7502 9.46281 13.7333 9.54406 13.7012 9.61972C13.669 9.69539 13.6223 9.76398 13.5637 9.82159C13.505 9.8792 13.4356 9.92469 13.3594 9.95547L10.9914 10.9023L12.375 12.75C12.4745 12.8826 12.5172 13.0493 12.4937 13.2134C12.4703 13.3775 12.3826 13.5255 12.25 13.625C12.1174 13.7245 11.9507 13.7672 11.7866 13.7437C11.6225 13.7203 11.4745 13.6326 11.375 13.5L10 11.6664L8.625 13.5C8.57575 13.5657 8.51406 13.621 8.44343 13.6628C8.37281 13.7046 8.29464 13.7321 8.21339 13.7437C8.13214 13.7553 8.0494 13.7508 7.96989 13.7304C7.89038 13.7101 7.81566 13.6742 7.75 13.625C7.68434 13.5758 7.62902 13.5141 7.5872 13.4434C7.54539 13.3728 7.51789 13.2946 7.50628 13.2134C7.49467 13.1321 7.49918 13.0494 7.51955 12.9699C7.53992 12.8904 7.57575 12.8157 7.625 12.75L9.01094 10.9023L6.64062 9.95547C6.56431 9.9248 6.4948 9.87937 6.43609 9.82178C6.37737 9.7642 6.33059 9.69559 6.29844 9.61989C6.26628 9.54419 6.24939 9.46289 6.24872 9.38065C6.24805 9.2984 6.26362 9.21684 6.29453 9.14062ZM17.5 4.375V8.75C17.5 12.8687 15.5063 15.3648 13.8336 16.7336C12.032 18.207 10.2398 18.7078 10.1617 18.7281C10.0543 18.7573 9.94102 18.7573 9.83359 18.7281C9.75547 18.7078 7.96563 18.207 6.16172 16.7336C4.49375 15.3648 2.5 12.8687 2.5 8.75V4.375C2.5 4.04348 2.6317 3.72554 2.86612 3.49112C3.10054 3.2567 3.41848 3.125 3.75 3.125H16.25C16.5815 3.125 16.8995 3.2567 17.1339 3.49112C17.3683 3.72554 17.5 4.04348 17.5 4.375ZM16.25 4.375H3.75V8.75C3.75 11.6641 4.82969 14.0242 6.95859 15.7664C7.86504 16.5077 8.89442 17.0844 10 17.4703C11.1202 17.0776 12.1625 16.4905 13.0789 15.7359C15.1828 13.9969 16.25 11.6461 16.25 8.75V4.375Z" fill="#212529"/>
</svg>
