<svg width="40" height="40" viewBox="0 0 40 40" fill="none" xmlns="http://www.w3.org/2000/svg">
<rect width="40" height="40" rx="20" fill="#EFF4ED"/>
<rect x="0.5" y="0.5" width="39" height="39" rx="19.5" stroke="#4F6642" stroke-opacity="0.1"/>
<path d="M20 20L29 11" stroke="#212529" stroke-width="1.5" stroke-linecap="round" stroke-linejoin="round"/>
<path d="M26.3636 13.636C24.7695 12.0456 22.6366 11.1115 20.3867 11.0184C18.1369 10.9253 15.9341 11.6801 14.214 13.1333C12.494 14.5865 11.382 16.6324 11.0981 18.8662C10.8142 21.1 11.3791 23.359 12.6809 25.1963C13.9828 27.0336 15.9268 28.3154 18.1284 28.788C20.33 29.2607 22.6288 28.8898 24.57 27.7487C26.5113 26.6077 27.9536 24.7796 28.6116 22.6261C29.2696 20.4726 29.0953 18.1506 28.1233 16.1194" stroke="#212529" stroke-width="1.5" stroke-linecap="round" stroke-linejoin="round"/>
<path d="M23.1819 16.818C22.4375 16.0745 21.4561 15.6154 20.4083 15.5204C19.3605 15.4253 18.3125 15.7004 17.4465 16.2979C16.5805 16.8953 15.9512 17.7773 15.6679 18.7906C15.3847 19.8039 15.4655 20.8843 15.8962 21.8442C16.3269 22.8041 17.0804 23.5828 18.0256 24.0448C18.9708 24.5068 20.0481 24.6231 21.0701 24.3733C22.0921 24.1236 22.9943 23.5236 23.6199 22.6777C24.2455 21.8318 24.5549 20.7934 24.4944 19.743" stroke="#212529" stroke-width="1.5" stroke-linecap="round" stroke-linejoin="round"/>
</svg>
