<svg width="13" height="15" viewBox="0 0 13 15" fill="none" xmlns="http://www.w3.org/2000/svg">
<path d="M10.0002 9.73194C9.66661 9.73183 9.33644 9.79865 9.02919 9.92844C8.72193 10.0582 8.44385 10.2484 8.2114 10.4876L5.33015 8.63569C5.55679 8.0545 5.55679 7.40937 5.33015 6.82819L8.2114 4.97631C8.64418 5.41964 9.22617 5.68647 9.84451 5.72508C10.4629 5.76369 11.0735 5.57132 11.5581 5.18528C12.0426 4.79923 12.3666 4.24701 12.4672 3.63568C12.5677 3.02435 12.4377 2.39745 12.1023 1.87654C11.7669 1.35563 11.25 0.977816 10.6519 0.816342C10.0537 0.654869 9.41696 0.721243 8.86499 1.0026C8.31301 1.28395 7.88516 1.76024 7.6644 2.33912C7.44364 2.918 7.44569 3.55823 7.67015 4.13569L4.7889 5.98756C4.44194 5.63136 3.99664 5.38671 3.50992 5.2849C3.02321 5.18309 2.51718 5.22873 2.05654 5.416C1.5959 5.60327 1.20157 5.92365 0.923949 6.33619C0.646333 6.74873 0.498047 7.23468 0.498047 7.73194C0.498047 8.22919 0.646333 8.71515 0.923949 9.12769C1.20157 9.54023 1.5959 9.86061 2.05654 10.0479C2.51718 10.2351 3.02321 10.2808 3.50992 10.179C3.99664 10.0772 4.44194 9.83251 4.7889 9.47631L7.67015 11.3282C7.47713 11.826 7.44857 12.3726 7.58865 12.8878C7.72872 13.403 8.03008 13.8599 8.44859 14.1915C8.8671 14.523 9.38077 14.7119 9.91439 14.7304C10.448 14.7489 10.9735 14.5961 11.414 14.2944C11.8545 13.9926 12.1868 13.5577 12.3623 13.0534C12.5377 12.5491 12.5471 12.0019 12.389 11.4919C12.231 10.9819 11.9138 10.5359 11.4839 10.2192C11.0541 9.90249 10.5341 9.73174 10.0002 9.73194ZM10.0002 1.73194C10.2968 1.73194 10.5868 1.81991 10.8335 1.98473C11.0802 2.14955 11.2724 2.38382 11.386 2.65791C11.4995 2.932 11.5292 3.2336 11.4713 3.52457C11.4135 3.81554 11.2706 4.08282 11.0608 4.2926C10.851 4.50238 10.5838 4.64524 10.2928 4.70311C10.0018 4.76099 9.70021 4.73129 9.42613 4.61776C9.15204 4.50422 8.91777 4.31197 8.75295 4.06529C8.58812 3.81862 8.50015 3.52861 8.50015 3.23194C8.50015 2.83411 8.65819 2.45258 8.93949 2.17128C9.22079 1.88997 9.60233 1.73194 10.0002 1.73194ZM3.00015 9.23194C2.70348 9.23194 2.41347 9.14396 2.16679 8.97914C1.92012 8.81432 1.72786 8.58005 1.61433 8.30596C1.5008 8.03187 1.47109 7.73027 1.52897 7.4393C1.58685 7.14833 1.72971 6.88106 1.93949 6.67128C2.14927 6.4615 2.41654 6.31864 2.70751 6.26076C2.99849 6.20288 3.30009 6.23259 3.57418 6.34612C3.84826 6.45965 4.08253 6.65191 4.24735 6.89858C4.41218 7.14526 4.50015 7.43526 4.50015 7.73194C4.50015 8.12976 4.34212 8.51129 4.06081 8.7926C3.77951 9.0739 3.39797 9.23194 3.00015 9.23194ZM10.0002 13.7319C9.70348 13.7319 9.41347 13.644 9.1668 13.4791C8.92012 13.3143 8.72786 13.0801 8.61433 12.806C8.5008 12.5319 8.47109 12.2303 8.52897 11.9393C8.58685 11.6483 8.72971 11.3811 8.93949 11.1713C9.14927 10.9615 9.41654 10.8186 9.70751 10.7608C9.99849 10.7029 10.3001 10.7326 10.5742 10.8461C10.8483 10.9596 11.0825 11.1519 11.2474 11.3986C11.4122 11.6453 11.5002 11.9353 11.5002 12.2319C11.5002 12.6298 11.3421 13.0113 11.0608 13.2926C10.7795 13.5739 10.398 13.7319 10.0002 13.7319Z" fill="#212529"/>
</svg>
