<svg width="20" height="17" viewBox="0 0 20 17" fill="none" xmlns="http://www.w3.org/2000/svg">
<path d="M19.3748 10.625C19.2091 10.625 19.0501 10.6908 18.9329 10.8081C18.8157 10.9253 18.7498 11.0842 18.7498 11.25V12.5H15.2584L13.828 11.0672L17.7608 7.13359C17.995 6.89919 18.1266 6.58137 18.1266 6.24999C18.1266 5.91861 17.995 5.6008 17.7608 5.3664L13.3858 0.9914C13.2697 0.875297 13.1319 0.783197 12.9802 0.720361C12.8285 0.657525 12.666 0.625183 12.5018 0.625183C12.3376 0.625183 12.175 0.657525 12.0234 0.720361C11.8717 0.783197 11.7339 0.875297 11.6178 0.9914L0.22796 12.4172C0.118955 12.5265 0.0447937 12.6657 0.0148416 12.8172C-0.0151104 12.9687 0.000489592 13.1256 0.0596718 13.2682C0.118854 13.4108 0.218964 13.5327 0.347362 13.6184C0.47576 13.7042 0.626686 13.75 0.781085 13.75H3.85687L6.61624 16.5086C6.85064 16.7428 7.16846 16.8744 7.49984 16.8744C7.83121 16.8744 8.14903 16.7428 8.38343 16.5086L12.942 11.9531L14.3748 13.3836C14.4905 13.5002 14.6282 13.5926 14.7798 13.6555C14.9315 13.7184 15.0942 13.7505 15.2584 13.75H18.7498V15C18.7498 15.1658 18.8157 15.3247 18.9329 15.4419C19.0501 15.5591 19.2091 15.625 19.3748 15.625C19.5406 15.625 19.6996 15.5591 19.8168 15.4419C19.934 15.3247 19.9998 15.1658 19.9998 15V11.25C19.9998 11.0842 19.934 10.9253 19.8168 10.8081C19.6996 10.6908 19.5406 10.625 19.3748 10.625ZM12.4998 1.87499L13.4912 2.8664L3.85687 12.5H1.91077L12.4998 1.87499ZM7.49984 15.625L4.99984 13.125L14.3748 3.74999L16.8748 6.24999L7.49984 15.625Z" fill="#212529"/>
</svg>
