<svg width="14" height="18" viewBox="0 0 14 18" fill="none" xmlns="http://www.w3.org/2000/svg">
<path d="M12 0.875H2C1.66848 0.875 1.35054 1.0067 1.11612 1.24112C0.881696 1.47554 0.75 1.79348 0.75 2.125V15.875C0.75 16.2065 0.881696 16.5245 1.11612 16.7589C1.35054 16.9933 1.66848 17.125 2 17.125H12C12.3315 17.125 12.6495 16.9933 12.8839 16.7589C13.1183 16.5245 13.25 16.2065 13.25 15.875V2.125C13.25 1.79348 13.1183 1.47554 12.8839 1.24112C12.6495 1.0067 12.3315 0.875 12 0.875ZM12 15.875H2V2.125H12V15.875ZM6.0625 4.9375C6.0625 4.75208 6.11748 4.57082 6.2205 4.41665C6.32351 4.26248 6.46993 4.14232 6.64123 4.07136C6.81254 4.00041 7.00104 3.98184 7.1829 4.01801C7.36475 4.05419 7.5318 4.14348 7.66291 4.27459C7.79402 4.4057 7.88331 4.57275 7.91949 4.7546C7.95566 4.93646 7.93709 5.12496 7.86614 5.29627C7.79518 5.46757 7.67502 5.61399 7.52085 5.717C7.36668 5.82002 7.18542 5.875 7 5.875C6.75136 5.875 6.5129 5.77623 6.33709 5.60041C6.16127 5.4246 6.0625 5.18614 6.0625 4.9375ZM7 14C7.61807 14 8.22225 13.8167 8.73616 13.4733C9.25006 13.13 9.6506 12.6419 9.88712 12.0709C10.1236 11.4999 10.1855 10.8715 10.065 10.2653C9.94438 9.65915 9.64675 9.10233 9.20971 8.66529C8.77267 8.22825 8.21585 7.93062 7.60966 7.81005C7.00347 7.68947 6.37513 7.75135 5.80411 7.98788C5.2331 8.2244 4.74504 8.62494 4.40166 9.13884C4.05828 9.65275 3.875 10.2569 3.875 10.875C3.875 11.2854 3.95583 11.6917 4.11288 12.0709C4.26992 12.45 4.50011 12.7945 4.79029 13.0847C5.37634 13.6708 6.1712 14 7 14ZM7 9C7.37084 9 7.73335 9.10997 8.04169 9.31599C8.35004 9.52202 8.59036 9.81486 8.73227 10.1575C8.87419 10.5001 8.91132 10.8771 8.83897 11.2408C8.76663 11.6045 8.58805 11.9386 8.32583 12.2008C8.0636 12.463 7.72951 12.6416 7.3658 12.714C7.00208 12.7863 6.62508 12.7492 6.28247 12.6073C5.93986 12.4654 5.64702 12.225 5.44099 11.9167C5.23497 11.6084 5.125 11.2458 5.125 10.875C5.125 10.3777 5.32254 9.90081 5.67417 9.54917C6.02581 9.19754 6.50272 9 7 9Z" fill="#212529"/>
</svg>
