<svg width="28" height="28" viewBox="0 0 28 28" fill="none" xmlns="http://www.w3.org/2000/svg">
<path d="M25.258 24.0625C25.1811 24.1956 25.0707 24.3061 24.9376 24.3829C24.8046 24.4597 24.6536 24.5001 24.5 24.5H3.49999C3.34647 24.4999 3.19569 24.4593 3.0628 24.3825C2.92991 24.3056 2.81958 24.1951 2.74289 24.0622C2.6662 23.9292 2.62585 23.7783 2.62589 23.6248C2.62592 23.4713 2.66635 23.3205 2.74311 23.1875C4.40889 20.3077 6.97593 18.2427 9.97171 17.2638C8.48986 16.3816 7.33855 15.0374 6.6946 13.4376C6.05064 11.8378 5.94964 10.0709 6.40711 8.40809C6.86458 6.74533 7.85521 5.27869 9.22689 4.23343C10.5986 3.18817 12.2754 2.62207 14 2.62207C15.7245 2.62207 17.4014 3.18817 18.7731 4.23343C20.1448 5.27869 21.1354 6.74533 21.5929 8.40809C22.0503 10.0709 21.9493 11.8378 21.3054 13.4376C20.6614 15.0374 19.5101 16.3816 18.0283 17.2638C21.0241 18.2427 23.5911 20.3077 25.2569 23.1875C25.3338 23.3205 25.3744 23.4713 25.3746 23.6249C25.3748 23.7785 25.3346 23.9294 25.258 24.0625Z" fill="white"/>
</svg>
