<svg width="22" height="22" viewBox="0 0 22 22" fill="none" xmlns="http://www.w3.org/2000/svg">
<path d="M15.4196 3.92893C15.5368 3.81172 15.6026 3.65274 15.6026 3.48698C15.6026 3.32122 15.5368 3.16225 15.4196 3.04504L13.6518 1.27728C13.4174 1.04286 13.0994 0.91116 12.7679 0.91116C12.4364 0.91116 12.1185 1.04286 11.884 1.27728L1.27744 11.8839C1.04302 12.1183 0.911322 12.4362 0.911322 12.7678C0.911322 13.0993 1.04302 13.4172 1.27744 13.6516L3.04521 15.4194C3.16242 15.5366 3.32139 15.6025 3.48715 15.6025C3.65291 15.6025 3.81188 15.5366 3.92909 15.4194C4.28072 15.0678 4.75763 14.8702 5.25491 14.8702C5.75219 14.8702 6.22911 15.0678 6.58074 15.4194C6.93237 15.771 7.12991 16.248 7.12991 16.7452C7.12991 17.2425 6.93237 17.7194 6.58074 18.0711C6.46353 18.1883 6.39768 18.3472 6.39768 18.513C6.39768 18.6788 6.46353 18.8377 6.58074 18.9549L8.34851 20.7227C8.58293 20.9571 8.90087 21.0888 9.23239 21.0888C9.56391 21.0888 9.88185 20.9571 10.1163 20.7227L20.7229 10.1161C20.9573 9.88169 21.089 9.56375 21.089 9.23223C21.089 8.90071 20.9573 8.58276 20.7229 8.34834L18.9551 6.58058C18.8379 6.46337 18.6789 6.39752 18.5132 6.39752C18.3474 6.39752 18.1884 6.46337 18.0712 6.58058C17.7196 6.93221 17.2427 7.12975 16.7454 7.12975C16.2481 7.12975 15.7712 6.93221 15.4196 6.58058C15.0679 6.22895 14.8704 5.75203 14.8704 5.25475C14.8704 4.75747 15.0679 4.28056 15.4196 3.92893ZM7.86237 18.4688C8.26046 17.8679 8.43855 17.1478 8.36646 16.4305C8.29438 15.7133 7.97655 15.043 7.46684 14.5333C6.95712 14.0236 6.28686 13.7058 5.56963 13.6337C4.8524 13.5616 4.13229 13.7397 3.53134 14.1378L2.16132 12.7678L5.25491 9.67417L12.326 16.7452L9.23239 19.8388L7.86237 18.4688ZM18.469 7.86221L19.839 9.23223L13.2099 15.8614L6.1388 8.79029L12.7679 2.16116L14.1379 3.53118C13.7399 4.13213 13.5618 4.85223 13.6338 5.56947C13.7059 6.2867 14.0238 6.95696 14.5335 7.46668C15.0432 7.97639 15.7135 8.29422 16.4307 8.3663C17.1479 8.43839 17.868 8.2603 18.469 7.86221Z" fill="#7BBC42"/>
</svg>
