<svg width="24" height="24" viewBox="0 0 24 24" fill="none" xmlns="http://www.w3.org/2000/svg">
<rect width="24" height="24" rx="12" fill="#F2FFE6"/>
<rect x="3.5" y="3.5" width="17" height="17" rx="8.5" fill="#7BBC42"/>
<path d="M13.875 11.25C13.875 11.7692 13.7211 12.2767 13.4326 12.7084C13.1442 13.1401 12.7342 13.4765 12.2546 13.6752C11.7749 13.8739 11.2471 13.9259 10.7379 13.8246C10.2287 13.7233 9.76097 13.4733 9.39386 13.1062C9.02675 12.7391 8.77674 12.2713 8.67545 11.7621C8.57417 11.2529 8.62615 10.7251 8.82483 10.2455C9.02351 9.76581 9.35996 9.35584 9.79164 9.0674C10.2233 8.77896 10.7308 8.62501 11.25 8.62501C11.9462 8.62501 12.6139 8.90157 13.1062 9.39385C13.5985 9.88614 13.875 10.5538 13.875 11.25ZM16.7653 16.7653C16.7305 16.8002 16.6891 16.8278 16.6436 16.8467C16.5981 16.8656 16.5493 16.8753 16.5 16.8753C16.4507 16.8753 16.4019 16.8656 16.3564 16.8467C16.3109 16.8278 16.2695 16.8002 16.2347 16.7653L13.8881 14.4183C13.0721 15.0972 12.0257 15.4354 10.9667 15.3625C9.90772 15.2896 8.91757 14.8112 8.20224 14.0269C7.48692 13.2426 7.10148 12.2127 7.12611 11.1515C7.15074 10.0903 7.58354 9.07937 8.33447 8.32909C9.08541 7.57881 10.0967 7.14691 11.1579 7.12322C12.2192 7.09953 13.2487 7.48588 14.0324 8.20189C14.8161 8.91791 15.2936 9.90848 15.3655 10.9676C15.4375 12.0266 15.0984 13.0727 14.4188 13.8881L16.7653 16.2347C16.8002 16.2695 16.8279 16.3109 16.8467 16.3564C16.8656 16.4019 16.8753 16.4507 16.8753 16.5C16.8753 16.5493 16.8656 16.5981 16.8467 16.6436C16.8279 16.6891 16.8002 16.7305 16.7653 16.7653ZM11.25 14.625C11.9175 14.625 12.57 14.4271 13.1251 14.0562C13.6801 13.6854 14.1127 13.1583 14.3681 12.5416C14.6236 11.9249 14.6904 11.2463 14.5602 10.5916C14.4299 9.93689 14.1085 9.33553 13.6365 8.86352C13.1645 8.39152 12.5631 8.07008 11.9084 7.93986C11.2538 7.80963 10.5752 7.87647 9.95846 8.13192C9.34176 8.38736 8.81465 8.81994 8.4438 9.37496C8.07295 9.92997 7.87501 10.5825 7.87501 11.25C7.87601 12.1448 8.23191 13.0027 8.86463 13.6354C9.49735 14.2681 10.3552 14.624 11.25 14.625Z" fill="white"/>
</svg>
