<svg width="24" height="24" viewBox="0 0 24 24" fill="none" xmlns="http://www.w3.org/2000/svg">
<rect width="24" height="24" rx="12" fill="#F2F2F2"/>
<rect x="3.5" y="3.5" width="17" height="17" rx="8.5" fill="#B2B9B5"/>
<path d="M12 7.125C11.0358 7.125 10.0933 7.41091 9.2916 7.94659C8.48991 8.48226 7.86507 9.24363 7.49609 10.1344C7.12711 11.0252 7.03057 12.0054 7.21867 12.9511C7.40678 13.8967 7.87108 14.7654 8.55286 15.4471C9.23464 16.1289 10.1033 16.5932 11.0489 16.7813C11.9946 16.9694 12.9748 16.8729 13.8656 16.5039C14.7564 16.1349 15.5177 15.5101 16.0534 14.7084C16.5891 13.9067 16.875 12.9642 16.875 12C16.8736 10.7075 16.3596 9.46831 15.4456 8.55436C14.5317 7.64042 13.2925 7.12636 12 7.125ZM14.1403 11.1403L11.5153 13.7653C11.4805 13.8002 11.4391 13.8278 11.3936 13.8467C11.3481 13.8656 11.2993 13.8753 11.25 13.8753C11.2007 13.8753 11.1519 13.8656 11.1064 13.8467C11.0609 13.8278 11.0195 13.8002 10.9847 13.7653L9.85969 12.6403C9.78932 12.5699 9.74979 12.4745 9.74979 12.375C9.74979 12.2755 9.78932 12.1801 9.85969 12.1097C9.93005 12.0393 10.0255 11.9998 10.125 11.9998C10.2245 11.9998 10.3199 12.0393 10.3903 12.1097L11.25 12.9698L13.6097 10.6097C13.6445 10.5748 13.6859 10.5472 13.7314 10.5284C13.7769 10.5095 13.8257 10.4998 13.875 10.4998C13.9243 10.4998 13.9731 10.5095 14.0186 10.5284C14.0641 10.5472 14.1055 10.5748 14.1403 10.6097C14.1752 10.6445 14.2028 10.6859 14.2216 10.7314C14.2405 10.7769 14.2502 10.8257 14.2502 10.875C14.2502 10.9243 14.2405 10.9731 14.2216 11.0186C14.2028 11.0641 14.1752 11.1055 14.1403 11.1403Z" fill="white"/>
</svg>
