<svg width="24" height="24" viewBox="0 0 24 24" fill="none" xmlns="http://www.w3.org/2000/svg">
<rect width="24" height="24" rx="12" fill="#F2FFE6"/>
<rect x="3.5" y="3.5" width="17" height="17" rx="8.5" fill="#7BBC42"/>
<path d="M16.0153 9.85969L13.3903 7.23469C13.3555 7.19987 13.3141 7.17227 13.2686 7.15345C13.223 7.13463 13.1743 7.12496 13.125 7.125H8.625C8.42609 7.125 8.23532 7.20402 8.09467 7.34467C7.95402 7.48532 7.875 7.67609 7.875 7.875V16.125C7.875 16.3239 7.95402 16.5147 8.09467 16.6553C8.23532 16.796 8.42609 16.875 8.625 16.875H15.375C15.5739 16.875 15.7647 16.796 15.9053 16.6553C16.046 16.5147 16.125 16.3239 16.125 16.125V10.125C16.125 10.0757 16.1154 10.027 16.0966 9.98143C16.0777 9.93591 16.0501 9.89454 16.0153 9.85969ZM13.5 14.25H10.5C10.4005 14.25 10.3052 14.2105 10.2348 14.1402C10.1645 14.0698 10.125 13.9745 10.125 13.875C10.125 13.7755 10.1645 13.6802 10.2348 13.6098C10.3052 13.5395 10.4005 13.5 10.5 13.5H13.5C13.5995 13.5 13.6948 13.5395 13.7652 13.6098C13.8355 13.6802 13.875 13.7755 13.875 13.875C13.875 13.9745 13.8355 14.0698 13.7652 14.1402C13.6948 14.2105 13.5995 14.25 13.5 14.25ZM13.5 12.75H10.5C10.4005 12.75 10.3052 12.7105 10.2348 12.6402C10.1645 12.5698 10.125 12.4745 10.125 12.375C10.125 12.2755 10.1645 12.1802 10.2348 12.1098C10.3052 12.0395 10.4005 12 10.5 12H13.5C13.5995 12 13.6948 12.0395 13.7652 12.1098C13.8355 12.1802 13.875 12.2755 13.875 12.375C13.875 12.4745 13.8355 12.5698 13.7652 12.6402C13.6948 12.7105 13.5995 12.75 13.5 12.75ZM13.125 10.125V8.0625L15.1875 10.125H13.125Z" fill="white"/>
</svg>
