<svg width="18" height="16" viewBox="0 0 18 16" fill="none" xmlns="http://www.w3.org/2000/svg">
<path d="M4.9375 7.375C4.9375 7.56042 4.88252 7.74168 4.7795 7.89585C4.67649 8.05002 4.53007 8.17018 4.35877 8.24114C4.18746 8.31209 3.99896 8.33066 3.8171 8.29449C3.63525 8.25831 3.4682 8.16902 3.33709 8.03791C3.20598 7.9068 3.11669 7.73975 3.08051 7.5579C3.04434 7.37604 3.06291 7.18754 3.13386 7.01623C3.20482 6.84493 3.32498 6.69851 3.47915 6.5955C3.63332 6.49248 3.81458 6.4375 4 6.4375C4.24864 6.4375 4.4871 6.53627 4.66291 6.71209C4.83873 6.8879 4.9375 7.12636 4.9375 7.375ZM17.75 7.375V14.25C17.75 14.5815 17.6183 14.8995 17.3839 15.1339C17.1495 15.3683 16.8315 15.5 16.5 15.5H7.75C7.41848 15.5 7.10054 15.3683 6.86612 15.1339C6.6317 14.8995 6.5 14.5815 6.5 14.25V12.5586C5.82578 13.6539 4.95156 14.25 4 14.25C2.91641 14.25 1.93281 13.4773 1.23125 12.0742C0.598437 10.8125 0.25 9.13984 0.25 7.375C0.25 5.61016 0.598437 3.94141 1.23125 2.67578C1.93281 1.27266 2.91641 0.5 4 0.5H14C15.0836 0.5 16.0672 1.27266 16.7687 2.67578C17.4016 3.94141 17.75 5.61016 17.75 7.375ZM6.5 7.375C6.5 4.06016 5.18281 1.75 4 1.75C2.81719 1.75 1.5 4.06016 1.5 7.375C1.5 10.6898 2.81719 13 4 13C5.18281 13 6.5 10.6898 6.5 7.375ZM16.5 14.25V8H15.25C15.0842 8 14.9253 7.93415 14.8081 7.81694C14.6908 7.69973 14.625 7.54076 14.625 7.375C14.625 7.20924 14.6908 7.05027 14.8081 6.93306C14.9253 6.81585 15.0842 6.75 15.25 6.75H16.4836C16.3312 3.77344 15.1062 1.75 14 1.75H6.19688C6.41634 2.03982 6.60782 2.3498 6.76875 2.67578C7.32656 3.79141 7.6625 5.21953 7.73516 6.75H9C9.16576 6.75 9.32473 6.81585 9.44194 6.93306C9.55915 7.05027 9.625 7.20924 9.625 7.375C9.625 7.54076 9.55915 7.69973 9.44194 7.81694C9.32473 7.93415 9.16576 8 9 8H7.75V14.25H16.5ZM12.75 6.75H11.5C11.3342 6.75 11.1753 6.81585 11.0581 6.93306C10.9408 7.05027 10.875 7.20924 10.875 7.375C10.875 7.54076 10.9408 7.69973 11.0581 7.81694C11.1753 7.93415 11.3342 8 11.5 8H12.75C12.9158 8 13.0747 7.93415 13.1919 7.81694C13.3092 7.69973 13.375 7.54076 13.375 7.375C13.375 7.20924 13.3092 7.05027 13.1919 6.93306C13.0747 6.81585 12.9158 6.75 12.75 6.75Z" fill="#212529"/>
</svg>
