<svg width="16" height="17" viewBox="0 0 16 17" fill="none" xmlns="http://www.w3.org/2000/svg">
<path d="M13.5 3.73193H2.5C2.36739 3.73193 2.24021 3.78461 2.14645 3.87838C2.05268 3.97215 2 4.09933 2 4.23193C2 4.36454 2.05268 4.49172 2.14645 4.58549C2.24021 4.67926 2.36739 4.73193 2.5 4.73193H3V13.7319C3 13.9972 3.10536 14.2515 3.29289 14.439C3.48043 14.6266 3.73478 14.7319 4 14.7319H12C12.2652 14.7319 12.5196 14.6266 12.7071 14.439C12.8946 14.2515 13 13.9972 13 13.7319V4.73193H13.5C13.6326 4.73193 13.7598 4.67926 13.8536 4.58549C13.9473 4.49172 14 4.36454 14 4.23193C14 4.09933 13.9473 3.97215 13.8536 3.87838C13.7598 3.78461 13.6326 3.73193 13.5 3.73193ZM12 13.7319H4V4.73193H12V13.7319ZM5 2.23193C5 2.09933 5.05268 1.97215 5.14645 1.87838C5.24021 1.78461 5.36739 1.73193 5.5 1.73193H10.5C10.6326 1.73193 10.7598 1.78461 10.8536 1.87838C10.9473 1.97215 11 2.09933 11 2.23193C11 2.36454 10.9473 2.49172 10.8536 2.58549C10.7598 2.67926 10.6326 2.73193 10.5 2.73193H5.5C5.36739 2.73193 5.24021 2.67926 5.14645 2.58549C5.05268 2.49172 5 2.36454 5 2.23193Z" fill="#4F6642"/>
</svg>
