<svg width="16" height="17" viewBox="0 0 16 17"
    fill="none" xmlns="http://www.w3.org/2000/svg">
<path d="M14.9531 0.718692C14.7857 0.603676 14.5926 0.531372 14.3908 0.508086C14.189 0.4848 13.9846 0.51124 13.7953 0.585098C12.6992 1.01166 10.4859 1.72729 8 1.72729C5.51406 1.72729 3.3 1.01166 2.20234 0.585098C2.01296 0.511581 1.8085 0.485332 1.60669 0.508624C1.40487 0.531916 1.21177 0.604046 1.04411 0.718771C0.876449 0.833495 0.739275 0.987356 0.644467 1.16703C0.549658 1.34671 0.500071 1.54679 0.5 1.74994V6.10697C0.5 8.90697 1.25391 11.5484 2.62344 13.5429C4.04219 15.6101 5.95156 16.746 8 16.746C10.0484 16.746 11.9578 15.6078 13.3766 13.5429C14.7461 11.5499 15.5 8.90854 15.5 6.10854V1.74994C15.4996 1.54653 15.4496 1.34627 15.3543 1.16656C15.259 0.986851 15.1213 0.833113 14.9531 0.718692ZM14.25 6.10932C14.25 8.65932 13.5734 11.0492 12.3461 12.8382C11.1672 14.5546 9.62422 15.4999 8 15.4999C6.37578 15.4999 4.83281 14.5546 3.65391 12.8374C2.42656 11.0468 1.75 8.65854 1.75 6.10854V1.74994C2.93047 2.20854 5.31094 2.97729 8 2.97729C10.6891 2.97729 13.0703 2.20854 14.25 1.74994V6.1101V6.10932ZM12.8438 7.58354C12.9542 7.70786 13.0107 7.87096 13.0009 8.03695C12.9911 8.20295 12.9157 8.35825 12.7914 8.46869C12.6671 8.57913 12.504 8.63566 12.338 8.62584C12.172 8.61603 12.0167 8.54067 11.9062 8.41635C11.6969 8.18197 11.2148 7.99994 10.8125 7.99994C10.4102 7.99994 9.925 8.18275 9.71875 8.41635C9.60821 8.54067 9.45281 8.61598 9.28674 8.62573C9.12066 8.63547 8.95752 8.57884 8.8332 8.4683C8.70888 8.35776 8.63357 8.20236 8.62382 8.03629C8.61408 7.87022 8.67071 7.70708 8.78125 7.58276C9.22734 7.08432 10.0422 6.74994 10.8125 6.74994C11.5828 6.74994 12.3945 7.08432 12.8438 7.58276V7.58354ZM5.1875 7.99994C4.78203 7.99994 4.3 8.18275 4.09375 8.41635C3.98321 8.54067 3.82781 8.61598 3.66174 8.62573C3.49566 8.63547 3.33252 8.57884 3.2082 8.4683C3.08388 8.35776 3.00857 8.20236 2.99882 8.03629C2.98908 7.87022 3.04571 7.70708 3.15625 7.58276C3.60547 7.08432 4.42031 6.74994 5.1875 6.74994C5.95469 6.74994 6.76953 7.08432 7.21875 7.58276C7.32929 7.70708 7.38592 7.87022 7.37618 8.03629C7.36643 8.20236 7.29112 8.35776 7.1668 8.4683C7.10524 8.52304 7.0335 8.56511 6.95569 8.59212C6.87787 8.61913 6.79549 8.63055 6.71326 8.62573C6.54719 8.61598 6.39179 8.54067 6.28125 8.41635C6.075 8.18275 5.59297 7.99994 5.1875 7.99994ZM11.1602 11.5304C10.7722 11.9907 10.2884 12.3607 9.74254 12.6145C9.19669 12.8683 8.60198 12.9999 8 12.9999C7.39802 12.9999 6.80331 12.8683 6.25746 12.6145C5.7116 12.3607 5.22779 11.9907 4.83984 11.5304C4.78655 11.468 4.74607 11.3957 4.72072 11.3176C4.69536 11.2395 4.68564 11.1572 4.6921 11.0754C4.69855 10.9936 4.72106 10.9138 4.75834 10.8407C4.79563 10.7675 4.84695 10.7025 4.90938 10.6492C4.9718 10.5959 5.04412 10.5554 5.12219 10.53C5.20027 10.5047 5.28257 10.495 5.3644 10.5014C5.44623 10.5079 5.52599 10.5304 5.59912 10.5677C5.67225 10.6049 5.73733 10.6563 5.79063 10.7187C6.06113 11.0416 6.39914 11.3014 6.78087 11.4796C7.16259 11.6578 7.57873 11.7501 8 11.7501C8.42127 11.7501 8.83741 11.6578 9.21914 11.4796C9.60086 11.3014 9.93887 11.0416 10.2094 10.7187C10.2627 10.6563 10.3277 10.6049 10.4009 10.5677C10.474 10.5304 10.5538 10.5079 10.6356 10.5014C10.7174 10.495 10.7997 10.5047 10.8778 10.53C10.9559 10.5554 11.0282 10.5959 11.0906 10.6492C11.1531 10.7025 11.2044 10.7675 11.2417 10.8407C11.2789 10.9138 11.3014 10.9936 11.3079 11.0754C11.3144 11.1572 11.3046 11.2395 11.2793 11.3176C11.2539 11.3957 11.2135 11.468 11.1602 11.5304Z" fill="#212529"/>
</svg>
