<svg width="86" height="86" viewBox="0 0 86 86" fill="none" xmlns="http://www.w3.org/2000/svg">
<g filter="url(#filter0_d_417_2724)">
<rect x="23" y="19" width="40" height="40" rx="20" fill="white"/>
<path d="M45.5001 45C45.5001 45.1326 45.4474 45.2598 45.3537 45.3536C45.2599 45.4473 45.1327 45.5 45.0001 45.5H41.0001C40.8675 45.5 40.7403 45.4473 40.6466 45.3536C40.5528 45.2598 40.5001 45.1326 40.5001 45C40.5001 44.8674 40.5528 44.7402 40.6466 44.6464C40.7403 44.5527 40.8675 44.5 41.0001 44.5H45.0001C45.1327 44.5 45.2599 44.5527 45.3537 44.6464C45.4474 44.7402 45.5001 44.8674 45.5001 45ZM48.8657 43C48.779 43.1528 48.653 43.2797 48.5009 43.3676C48.3487 43.4555 48.1758 43.5012 48.0001 43.5H38.0001C37.8243 43.4998 37.6517 43.4532 37.4997 43.365C37.3476 43.2768 37.2215 43.15 37.134 42.9975C37.0466 42.845 37.0008 42.6722 37.0015 42.4964C37.0021 42.3206 37.0491 42.1481 37.1376 41.9963C37.4845 41.3988 38.0001 39.7087 38.0001 37.5C38.0001 36.1739 38.5269 34.9021 39.4646 33.9645C40.4023 33.0268 41.674 32.5 43.0001 32.5C44.3262 32.5 45.598 33.0268 46.5357 33.9645C47.4733 34.9021 48.0001 36.1739 48.0001 37.5C48.0001 39.7081 48.5164 41.3988 48.8632 41.9963C48.9527 42.1483 49 42.3215 49.0003 42.4979C49.0007 42.6743 48.954 42.8476 48.8651 43H48.8657ZM48.0001 42.5C47.517 41.6706 47.0001 39.7531 47.0001 37.5C47.0001 36.4391 46.5787 35.4217 45.8285 34.6716C45.0784 33.9214 44.061 33.5 43.0001 33.5C41.9392 33.5 40.9218 33.9214 40.1717 34.6716C39.4215 35.4217 39.0001 36.4391 39.0001 37.5C39.0001 39.7537 38.4826 41.6713 38.0001 42.5H48.0001Z" fill="#212529"/>
</g>
<defs>
<filter id="filter0_d_417_2724" x="0" y="0" width="86" height="86" filterUnits="userSpaceOnUse" color-interpolation-filters="sRGB">
<feFlood flood-opacity="0" result="BackgroundImageFix"/>
<feColorMatrix in="SourceAlpha" type="matrix" values="0 0 0 0 0 0 0 0 0 0 0 0 0 0 0 0 0 0 127 0" result="hardAlpha"/>
<feMorphology radius="3" operator="dilate" in="SourceAlpha" result="effect1_dropShadow_417_2724"/>
<feOffset dy="4"/>
<feGaussianBlur stdDeviation="10"/>
<feComposite in2="hardAlpha" operator="out"/>
<feColorMatrix type="matrix" values="0 0 0 0 0.129412 0 0 0 0 0.145098 0 0 0 0 0.160784 0 0 0 0.04 0"/>
<feBlend mode="normal" in2="BackgroundImageFix" result="effect1_dropShadow_417_2724"/>
<feBlend mode="normal" in="SourceGraphic" in2="effect1_dropShadow_417_2724" result="shape"/>
</filter>
</defs>
</svg>
