<svg width="14" height="14" viewBox="0 0 14 14" fill="none" xmlns="http://www.w3.org/2000/svg">
<path d="M13.5677 11.0675L11.0677 13.5675C10.9504 13.6848 10.7913 13.7507 10.6255 13.7507C10.4596 13.7507 10.3006 13.6848 10.1833 13.5675C10.066 13.4503 10.0001 13.2912 10.0001 13.1253C10.0001 12.9595 10.066 12.8004 10.1833 12.6832L11.6169 11.2503H0.625492C0.459731 11.2503 0.30076 11.1845 0.18355 11.0673C0.0663399 10.9501 0.000491738 10.7911 0.000491738 10.6253C0.000491738 10.4596 0.0663399 10.3006 0.18355 10.1834C0.30076 10.0662 0.459731 10.0003 0.625492 10.0003H11.6169L10.1833 8.56754C10.066 8.45026 10.0001 8.2912 10.0001 8.12535C10.0001 7.9595 10.066 7.80044 10.1833 7.68316C10.3006 7.56588 10.4596 7.5 10.6255 7.5C10.7913 7.5 10.9504 7.56588 11.0677 7.68316L13.5677 10.1832C13.6258 10.2412 13.6719 10.3101 13.7033 10.386C13.7348 10.4619 13.751 10.5432 13.751 10.6253C13.751 10.7075 13.7348 10.7888 13.7033 10.8647C13.6719 10.9406 13.6258 11.0095 13.5677 11.0675ZM2.6833 6.06754C2.80058 6.18481 2.95964 6.25069 3.12549 6.25069C3.29134 6.25069 3.4504 6.18481 3.56768 6.06754C3.68495 5.95026 3.75084 5.7912 3.75084 5.62535C3.75084 5.4595 3.68495 5.30044 3.56768 5.18316L2.13409 3.75035H13.1255C13.2913 3.75035 13.4502 3.6845 13.5674 3.56729C13.6846 3.45008 13.7505 3.29111 13.7505 3.12535C13.7505 2.95959 13.6846 2.80062 13.5674 2.68341C13.4502 2.5662 13.2913 2.50035 13.1255 2.50035H2.13409L3.56768 1.06753C3.68495 0.95026 3.75084 0.7912 3.75084 0.625347C3.75084 0.459495 3.68495 0.300435 3.56768 0.18316C3.4504 0.0658846 3.29134 2.47139e-09 3.12549 0C2.95964 -2.47139e-09 2.80058 0.0658846 2.6833 0.18316L0.183304 2.68316C0.125194 2.74121 0.0790947 2.81014 0.047642 2.88601C0.0161893 2.96188 0 3.04321 0 3.12535C0 3.20748 0.0161893 3.28881 0.047642 3.36469C0.0790947 3.44056 0.125194 3.50949 0.183304 3.56754L2.6833 6.06754Z" fill="#1C1C1C"/>
</svg>
