<svg width="21" height="21" viewBox="0 0 21 21" fill="none" xmlns="http://www.w3.org/2000/svg">
<path d="M18.1946 14.4326C17.7393 13.6484 17.0625 11.4294 17.0625 8.53125C17.0625 6.79077 16.3711 5.12157 15.1404 3.89086C13.9097 2.66015 12.2405 1.96875 10.5 1.96875C8.75954 1.96875 7.09035 2.66015 5.85964 3.89086C4.62893 5.12157 3.93753 6.79077 3.93753 8.53125C3.93753 11.4302 3.25995 13.6484 2.80467 14.4326C2.68841 14.6319 2.62678 14.8585 2.62598 15.0892C2.62519 15.32 2.68527 15.547 2.80016 15.7471C2.91505 15.9473 3.08069 16.1136 3.28038 16.2293C3.48006 16.3451 3.70673 16.4061 3.93753 16.4062H7.28522C7.43663 17.1471 7.83928 17.813 8.42507 18.2911C9.01087 18.7693 9.74384 19.0305 10.5 19.0305C11.2562 19.0305 11.9892 18.7693 12.575 18.2911C13.1608 17.813 13.5634 17.1471 13.7148 16.4062H17.0625C17.2932 16.4059 17.5198 16.3448 17.7194 16.229C17.919 16.1132 18.0845 15.9469 18.1993 15.7468C18.3141 15.5466 18.3741 15.3198 18.3732 15.089C18.3724 14.8583 18.3108 14.6319 18.1946 14.4326ZM10.5 17.7187C10.093 17.7186 9.69602 17.5923 9.36373 17.3573C9.03143 17.1223 8.78015 16.79 8.64448 16.4062H12.3556C12.2199 16.79 11.9686 17.1223 11.6363 17.3573C11.304 17.5923 10.907 17.7186 10.5 17.7187Z" fill="white"/>
</svg>
