<svg width="30" height="24" viewBox="0 0 30 24" fill="none" xmlns="http://www.w3.org/2000/svg">
<path d="M29.9861 6.11392C29.9549 5.84845 29.8705 5.592 29.738 5.35985C29.6054 5.1277 29.4276 4.9246 29.2149 4.76266C25.1294 1.65479 20.1331 -0.019143 14.9999 0.000165178C9.8667 -0.019143 4.87038 1.65479 0.784892 4.76266C0.572223 4.9246 0.394335 5.1277 0.261831 5.35985C0.129328 5.592 0.0449207 5.84845 0.0136422 6.11392C-0.0177964 6.37873 0.00523949 6.64717 0.0813347 6.90276C0.15743 7.15834 0.284978 7.39567 0.456142 7.60017L13.4561 23.2789C13.6441 23.5059 13.88 23.6883 14.147 23.813C14.4139 23.9377 14.7052 24.0017 14.9999 24.0002C15.2937 24.0009 15.584 23.9366 15.8501 23.8119C16.1161 23.6872 16.3513 23.5052 16.5386 23.2789L29.5386 7.60017C29.7107 7.39607 29.8391 7.15892 29.9161 6.90332C29.9931 6.64772 30.0169 6.37907 29.9861 6.11392ZM14.9999 22.0002L2.01114 6.34266C5.74621 3.50777 10.3109 1.98169 14.9999 2.00017C19.6889 1.98169 24.2536 3.50777 27.9886 6.34266L14.9999 22.0002Z" fill="#1E88E5"/>
</svg>
