<svg width="18" height="18" viewBox="0 0 18 18" fill="none" xmlns="http://www.w3.org/2000/svg">
<path d="M15 0H3C2.20435 0 1.44129 0.31607 0.87868 0.87868C0.31607 1.44129 0 2.20435 0 3V15C0 15.7956 0.31607 16.5587 0.87868 17.1213C1.44129 17.6839 2.20435 18 3 18H15C15.7956 18 16.5587 17.6839 17.1213 17.1213C17.6839 16.5587 18 15.7956 18 15V3C18 2.20435 17.6839 1.44129 17.1213 0.87868C16.5587 0.31607 15.7956 0 15 0ZM16.5 15C16.5 15.3978 16.342 15.7794 16.0607 16.0607C15.7794 16.342 15.3978 16.5 15 16.5H3C2.60218 16.5 2.22064 16.342 1.93934 16.0607C1.65804 15.7794 1.5 15.3978 1.5 15V3C1.5 2.60218 1.65804 2.22064 1.93934 1.93934C2.22064 1.65804 2.60218 1.5 3 1.5H15C15.3978 1.5 15.7794 1.65804 16.0607 1.93934C16.342 2.22064 16.5 2.60218 16.5 3V15ZM6.75 5.625C6.75 5.8475 6.68402 6.06501 6.5604 6.25002C6.43679 6.43502 6.26109 6.57922 6.05552 6.66436C5.84995 6.74951 5.62375 6.77179 5.40552 6.72838C5.18729 6.68498 4.98684 6.57783 4.8295 6.4205C4.67217 6.26316 4.56502 6.06271 4.52162 5.84448C4.47821 5.62625 4.50049 5.40005 4.58564 5.19448C4.67078 4.98891 4.81498 4.81321 4.99998 4.6896C5.18499 4.56598 5.4025 4.5 5.625 4.5C5.92337 4.5 6.20952 4.61853 6.4205 4.8295C6.63147 5.04048 6.75 5.32663 6.75 5.625ZM13.5 5.625C13.5 5.8475 13.434 6.06501 13.3104 6.25002C13.1868 6.43502 13.0111 6.57922 12.8055 6.66436C12.6 6.74951 12.3738 6.77179 12.1555 6.72838C11.9373 6.68498 11.7368 6.57783 11.5795 6.4205C11.4222 6.26316 11.315 6.06271 11.2716 5.84448C11.2282 5.62625 11.2505 5.40005 11.3356 5.19448C11.4208 4.98891 11.565 4.81321 11.75 4.6896C11.935 4.56598 12.1525 4.5 12.375 4.5C12.6734 4.5 12.9595 4.61853 13.1705 4.8295C13.3815 5.04048 13.5 5.32663 13.5 5.625ZM6.75 12.375C6.75 12.5975 6.68402 12.815 6.5604 13C6.43679 13.185 6.26109 13.3292 6.05552 13.4144C5.84995 13.4995 5.62375 13.5218 5.40552 13.4784C5.18729 13.435 4.98684 13.3278 4.8295 13.1705C4.67217 13.0132 4.56502 12.8127 4.52162 12.5945C4.47821 12.3762 4.50049 12.15 4.58564 11.9445C4.67078 11.7389 4.81498 11.5632 4.99998 11.4396C5.18499 11.316 5.4025 11.25 5.625 11.25C5.92337 11.25 6.20952 11.3685 6.4205 11.5795C6.63147 11.7905 6.75 12.0766 6.75 12.375ZM10.125 9C10.125 9.2225 10.059 9.44001 9.9354 9.62502C9.81179 9.81002 9.63609 9.95422 9.43052 10.0394C9.22495 10.1245 8.99875 10.1468 8.78052 10.1034C8.56229 10.06 8.36184 9.95283 8.2045 9.79549C8.04717 9.63816 7.94002 9.4377 7.89662 9.21948C7.85321 9.00125 7.87549 8.77505 7.96064 8.56948C8.04578 8.36391 8.18998 8.18821 8.37498 8.0646C8.55999 7.94098 8.7775 7.875 9 7.875C9.29837 7.875 9.58452 7.99353 9.79549 8.2045C10.0065 8.41548 10.125 8.70163 10.125 9ZM13.5 12.375C13.5 12.5975 13.434 12.815 13.3104 13C13.1868 13.185 13.0111 13.3292 12.8055 13.4144C12.6 13.4995 12.3738 13.5218 12.1555 13.4784C11.9373 13.435 11.7368 13.3278 11.5795 13.1705C11.4222 13.0132 11.315 12.8127 11.2716 12.5945C11.2282 12.3762 11.2505 12.15 11.3356 11.9445C11.4208 11.7389 11.565 11.5632 11.75 11.4396C11.935 11.316 12.1525 11.25 12.375 11.25C12.6734 11.25 12.9595 11.3685 13.1705 11.5795C13.3815 11.7905 13.5 12.0766 13.5 12.375Z" fill="#111827"/>
</svg>
