<svg width="8" height="14" viewBox="0 0 8 14" fill="none" xmlns="http://www.w3.org/2000/svg">
<path d="M1.06753 0.182952L7.31753 6.43295C7.37565 6.491 7.42174 6.55993 7.4532 6.6358C7.48465 6.71168 7.50084 6.79301 7.50084 6.87514C7.50084 6.95728 7.48465 7.0386 7.4532 7.11448C7.42174 7.19035 7.37565 7.25928 7.31753 7.31733L1.06754 13.5673C0.95026 13.6846 0.7912 13.7505 0.625347 13.7505C0.459495 13.7505 0.300435 13.6846 0.18316 13.5673C0.0658843 13.4501 -2.00852e-08 13.291 -2.73348e-08 13.1251C-3.45844e-08 12.9593 0.0658843 12.8002 0.18316 12.683L5.99175 6.87514L0.183159 1.06733C0.12509 1.00926 0.0790276 0.940321 0.0476009 0.86445C0.0161742 0.78858 -5.70138e-07 0.707262 -5.73727e-07 0.62514C-5.77317e-07 0.543018 0.0161742 0.461701 0.0476009 0.38583C0.0790275 0.309959 0.12509 0.241021 0.183159 0.182952C0.241228 0.124884 0.310166 0.0788214 0.386037 0.0473947C0.461907 0.0159681 0.543225 -0.000207925 0.625347 -0.000207928C0.707469 -0.000207932 0.788787 0.0159681 0.864657 0.0473947C0.940528 0.0788214 1.00947 0.124883 1.06753 0.182952Z" fill="#1C1C1C"/>
</svg>
