<svg width="24" height="15" viewBox="0 0 24 15" fill="none" xmlns="http://www.w3.org/2000/svg">
<path d="M23.9353 13.9453L17.9353 0.445312C17.8764 0.312763 17.7803 0.200146 17.6586 0.121108C17.537 0.04207 17.3951 1.73634e-06 17.25 0H6.74999C6.60493 1.73634e-06 6.46299 0.04207 6.34135 0.121108C6.21971 0.200146 6.12361 0.312763 6.06468 0.445312V0.456562L0.0646787 13.9453C0.0139116 14.0595 -0.00751847 14.1846 0.00233557 14.3091C0.0121896 14.4337 0.0530154 14.5539 0.121104 14.6586C0.189192 14.7634 0.282384 14.8495 0.392213 14.9092C0.502042 14.9688 0.625026 15 0.749991 15H23.25C23.375 15 23.4979 14.9688 23.6078 14.9092C23.7176 14.8495 23.8108 14.7634 23.8789 14.6586C23.947 14.5539 23.9878 14.4337 23.9976 14.3091C24.0075 14.1846 23.9861 14.0595 23.9353 13.9453ZM5.99999 13.5H1.90405L5.99999 4.28437V13.5ZM7.49999 13.5V4.28437L11.5959 13.5H7.49999Z" fill="#1E88E5"/>
</svg>
