<svg width="107" height="92" viewBox="0 0 107 92" fill="none" xmlns="http://www.w3.org/2000/svg">
<path fill-rule="evenodd" clip-rule="evenodd" d="M33.551 75.8168C33.8801 73.6059 33.9193 71.0614 34.2014 68.8225C35.7362 56.6438 40.0272 38.9787 51.3957 33.5176C55.1559 31.7114 59.9231 31.1311 63.4416 33.3826C66.2905 35.2058 68.3643 39.2894 67.0575 44.0111C65.2828 50.4233 56.9117 54.9344 51.2184 58.1558C47.4575 60.2838 44.8614 61.6819 42.4452 64.5443C40.1268 67.2908 38.7321 71.4144 39.5915 76.044C40.9956 83.6084 48.1218 87.8855 55.9029 89.721C67.3935 92.4315 84.4006 90.8564 95.9816 87.4272C98.5085 86.6791 105.32 84.6674 107 83.3468L101.956 58.8429L93.6799 62.4707C90.9443 63.6158 88.0862 64.6653 85.1625 65.6264C82.2898 66.5708 79.1697 67.4116 75.9783 68.0861C74.4326 68.4127 66.7344 69.8523 65.6365 68.9885C65.0149 68.0617 67.5303 67.7835 68.2825 67.5519C71.8561 66.4517 74.292 65.5473 77.6009 63.8913C88.4112 58.4806 99.0316 47.5805 99.9983 33.8889C100.764 23.0437 96.1789 13.112 90.706 8.28126C83.2933 1.73843 74.4789 -0.442982 64.0937 0.0725059C54.0293 0.572044 44.7165 4.6379 38.0419 8.99801C20.3918 20.5279 9.87164 41.6359 3.47833 61.7208C2.86509 63.6475 -0.151893 74.0101 0.00597618 75.4405L33.551 75.8168Z" fill="white"/>
</svg>
