<svg width="20" height="15" viewBox="0 0 20 15" fill="none" xmlns="http://www.w3.org/2000/svg">
<path d="M17.25 0H2.25C1.65326 0 1.08097 0.237053 0.65901 0.65901C0.237053 1.08097 0 1.65326 0 2.25V12.75C0 13.3467 0.237053 13.919 0.65901 14.341C1.08097 14.7629 1.65326 15 2.25 15H17.25C17.8467 15 18.419 14.7629 18.841 14.341C19.2629 13.919 19.5 13.3467 19.5 12.75V2.25C19.5 1.65326 19.2629 1.08097 18.841 0.65901C18.419 0.237053 17.8467 0 17.25 0ZM1.5 4.5H18V6H13.4241C13.0783 6.00019 12.7432 6.11983 12.4755 6.33867C12.2078 6.55751 12.0239 6.86211 11.955 7.20094C11.8499 7.70757 11.5735 8.16251 11.1722 8.48912C10.7709 8.81573 10.2693 8.99406 9.75188 8.99406C9.23447 8.99406 8.73287 8.81573 8.33157 8.48912C7.93028 8.16251 7.65381 7.70757 7.54875 7.20094C7.47968 6.86148 7.29526 6.55639 7.02679 6.33748C6.75831 6.11857 6.42235 5.99932 6.07594 6H1.5V4.5ZM2.25 1.5H17.25C17.4489 1.5 17.6397 1.57902 17.7803 1.71967C17.921 1.86032 18 2.05109 18 2.25V3H1.5V2.25C1.5 2.05109 1.57902 1.86032 1.71967 1.71967C1.86032 1.57902 2.05109 1.5 2.25 1.5ZM17.25 13.5H2.25C2.05109 13.5 1.86032 13.421 1.71967 13.2803C1.57902 13.1397 1.5 12.9489 1.5 12.75V7.5H6.075C6.24759 8.34721 6.70763 9.10876 7.37725 9.65572C8.04687 10.2027 8.88492 10.5015 9.74953 10.5015C10.6141 10.5015 11.4522 10.2027 12.1218 9.65572C12.7914 9.10876 13.2515 8.34721 13.4241 7.5H18V12.75C18 12.9489 17.921 13.1397 17.7803 13.2803C17.6397 13.421 17.4489 13.5 17.25 13.5Z" fill="#111827"/>
</svg>
