<svg width="16" height="17" viewBox="0 0 16 17" fill="none" xmlns="http://www.w3.org/2000/svg">
<path d="M14.7266 1.5H12.8516V0.875C12.8516 0.70924 12.7857 0.550268 12.6685 0.433058C12.5513 0.315848 12.3923 0.25 12.2266 0.25C12.0608 0.25 11.9018 0.315848 11.7846 0.433058C11.6674 0.550268 11.6016 0.70924 11.6016 0.875V1.5H5.35156V0.875C5.35156 0.70924 5.28571 0.550268 5.1685 0.433058C5.05129 0.315848 4.89232 0.25 4.72656 0.25C4.5608 0.25 4.40183 0.315848 4.28462 0.433058C4.16741 0.550268 4.10156 0.70924 4.10156 0.875V1.5H2.22656C1.89504 1.5 1.5771 1.6317 1.34268 1.86612C1.10826 2.10054 0.976563 2.41848 0.976562 2.75V15.25C0.976563 15.5815 1.10826 15.8995 1.34268 16.1339C1.5771 16.3683 1.89504 16.5 2.22656 16.5H14.7266C15.0581 16.5 15.376 16.3683 15.6104 16.1339C15.8449 15.8995 15.9766 15.5815 15.9766 15.25V2.75C15.9766 2.41848 15.8449 2.10054 15.6104 1.86612C15.376 1.6317 15.0581 1.5 14.7266 1.5ZM4.10156 2.75V3.375C4.10156 3.54076 4.16741 3.69973 4.28462 3.81694C4.40183 3.93415 4.5608 4 4.72656 4C4.89232 4 5.05129 3.93415 5.1685 3.81694C5.28571 3.69973 5.35156 3.54076 5.35156 3.375V2.75H11.6016V3.375C11.6016 3.54076 11.6674 3.69973 11.7846 3.81694C11.9018 3.93415 12.0608 4 12.2266 4C12.3923 4 12.5513 3.93415 12.6685 3.81694C12.7857 3.69973 12.8516 3.54076 12.8516 3.375V2.75H14.7266V5.25H2.22656V2.75H4.10156ZM14.7266 15.25H2.22656V6.5H14.7266V15.25ZM7.22656 8.375V13.375C7.22656 13.5408 7.16071 13.6997 7.0435 13.8169C6.92629 13.9342 6.76732 14 6.60156 14C6.4358 14 6.27683 13.9342 6.15962 13.8169C6.04241 13.6997 5.97656 13.5408 5.97656 13.375V9.38594L5.63125 9.55938C5.48289 9.63355 5.31115 9.64576 5.15379 9.59331C4.99644 9.54086 4.86636 9.42804 4.79219 9.27969C4.71801 9.13133 4.7058 8.95959 4.75826 8.80223C4.81071 8.64488 4.92352 8.5148 5.07187 8.44062L6.32187 7.81562C6.4172 7.76793 6.52313 7.7454 6.62962 7.75018C6.7361 7.75497 6.83959 7.7869 6.93025 7.84296C7.02091 7.89902 7.09573 7.97733 7.14759 8.07045C7.19945 8.16357 7.22664 8.26841 7.22656 8.375ZM11.8484 10.7539L10.3516 12.75H11.6016C11.7673 12.75 11.9263 12.8158 12.0435 12.9331C12.1607 13.0503 12.2266 13.2092 12.2266 13.375C12.2266 13.5408 12.1607 13.6997 12.0435 13.8169C11.9263 13.9342 11.7673 14 11.6016 14H9.10156C8.98549 14 8.87172 13.9677 8.77298 13.9067C8.67424 13.8456 8.59445 13.7583 8.54255 13.6545C8.49064 13.5507 8.46866 13.4345 8.47909 13.3189C8.48951 13.2033 8.53192 13.0929 8.60156 13L10.85 10.0023C10.9011 9.93426 10.9378 9.85644 10.9578 9.77367C10.9778 9.69089 10.9807 9.60491 10.9662 9.52098C10.9518 9.43707 10.9203 9.35698 10.8738 9.28565C10.8273 9.21431 10.7667 9.15324 10.6958 9.10616C10.6248 9.05909 10.545 9.02701 10.4612 9.01189C10.3774 8.99678 10.2914 8.99895 10.2085 9.01828C10.1255 9.0376 10.0474 9.07366 9.97893 9.12426C9.91043 9.17485 9.853 9.23891 9.81016 9.3125C9.77033 9.38585 9.71621 9.45047 9.651 9.50256C9.5858 9.55466 9.51082 9.59316 9.43049 9.61581C9.35016 9.63845 9.2661 9.64478 9.18329 9.63441C9.10047 9.62405 9.02057 9.5972 8.9483 9.55545C8.87603 9.51371 8.81285 9.45791 8.76249 9.39135C8.71214 9.3248 8.67562 9.24883 8.6551 9.16793C8.63458 9.08703 8.63046 9.00284 8.64301 8.92033C8.65555 8.83781 8.68449 8.75865 8.72813 8.6875C8.93458 8.33022 9.25313 8.05103 9.63439 7.8932C10.0156 7.73537 10.4383 7.70772 10.8369 7.81453C11.2355 7.92133 11.5877 8.15664 11.8389 8.48397C12.0902 8.8113 12.2264 9.21236 12.2266 9.625C12.2279 10.0326 12.095 10.4293 11.8484 10.7539Z" fill="#444648"/>
</svg>
