<svg width="20" height="20" viewBox="0 0 20 20" fill="none" xmlns="http://www.w3.org/2000/svg">
<path d="M0.625021 9.49864C0.626913 9.76274 0.713675 10.0192 0.872499 10.2302C1.03132 10.4413 1.25379 10.5956 1.50705 10.6705L1.52268 10.6752L7.61643 12.3815L9.32268 18.4752L9.32736 18.4908C9.40238 18.744 9.55676 18.9664 9.76775 19.1252C9.97874 19.284 10.2352 19.3708 10.4992 19.3729H10.5227C10.7816 19.3753 11.0348 19.296 11.2461 19.1464C11.4575 18.9968 11.6163 18.7843 11.7 18.5393L16.7969 4.79786C16.7985 4.79381 16.7999 4.78963 16.8008 4.78536C16.877 4.56414 16.8895 4.32597 16.837 4.09797C16.7845 3.86996 16.6691 3.66127 16.5039 3.49562C16.3386 3.32998 16.1302 3.21403 15.9023 3.16098C15.6745 3.10792 15.4363 3.11989 15.2149 3.19552L15.2024 3.19942L1.45861 8.29786C1.20976 8.38292 0.994626 8.54534 0.84465 8.76138C0.694675 8.97741 0.617718 9.23575 0.625021 9.49864Z" fill="#7BBC42"/>
</svg>
